<svg xmlns="http://www.w3.org/2000/svg" xmlns:xlink="http://www.w3.org/1999/xlink" width="500" zoomAndPan="magnify" viewBox="0 0 375 374.999991" height="500" preserveAspectRatio="xMidYMid meet" version="1.0"><defs><filter x="0%" y="0%" width="100%" height="100%" id="1ab8c8f9e5"><feColorMatrix values="0 0 0 0 1 0 0 0 0 1 0 0 0 0 1 0 0 0 1 0" color-interpolation-filters="sRGB"/></filter><mask id="1d2060ecba"><g filter="url(#1ab8c8f9e5)"><rect x="-37.5" width="450" fill="#000000" y="-37.499999" height="449.999989" fill-opacity="0.2"/></g></mask><clipPath id="d1a8e3974a"><path d="M 0.238281 0.75 L 375 0.75 L 375 252 L 0.238281 252 Z M 0.238281 0.75 " clip-rule="nonzero"/></clipPath><clipPath id="1fbdf8e7b9"><rect x="0" width="375" y="0" height="252"/></clipPath></defs><g mask="url(#1d2060ecba)"><g transform="matrix(1, 0, 0, 1, 0, 123)"><g clip-path="url(#1fbdf8e7b9)"><g clip-path="url(#d1a8e3974a)"><path fill="#e4b361" d="M 59.890625 110.210938 C 63.15625 110.210938 67.15625 111.523438 71.886719 114.152344 L 71.875 114.152344 C 71.085938 114.757812 70.246094 115.347656 69.363281 115.921875 L 69.355469 115.921875 C 63.824219 118.816406 59.644531 120.261719 56.820312 120.261719 C 54.929688 120.261719 53.644531 119.613281 52.964844 118.316406 C 52.441406 117.320312 52.226562 115.921875 52.324219 114.121094 L 52.3125 114.121094 C 54.109375 111.515625 56.636719 110.210938 59.890625 110.210938 Z M 134.980469 192.496094 C 134.96875 192.730469 134.960938 192.960938 134.949219 193.195312 C 134.933594 193.105469 134.917969 193.015625 134.898438 192.925781 L 134.886719 192.925781 C 134.914062 192.785156 134.941406 192.640625 134.96875 192.496094 Z M 60.804688 212.109375 C 60.898438 212.109375 60.992188 212.128906 61.089844 212.160156 C 61.027344 212.148438 60.960938 212.144531 60.898438 212.144531 C 60.570312 212.144531 60.253906 212.300781 60.054688 212.574219 C 60.277344 212.265625 60.527344 212.109375 60.804688 212.109375 Z M 218.6875 182.789062 C 224.226562 185.347656 226.96875 187.351562 226.914062 188.792969 C 226.910156 188.898438 226.921875 189 226.945312 189.097656 L 235.039062 219.914062 C 234.664062 219.859375 234.335938 219.832031 234.054688 219.832031 C 233.929688 219.832031 233.816406 219.839844 233.710938 219.847656 L 228.308594 219.421875 L 228.296875 219.421875 C 221.683594 199.125 218.476562 186.914062 218.675781 182.789062 Z M 58.003906 177.691406 C 58 178.148438 57.84375 178.878906 57.535156 179.886719 L 44.351562 217.105469 L 44.332031 217.164062 C 43.570312 219.804688 43.046875 221.96875 42.761719 223.652344 L 42.753906 223.652344 L 40.75 223.984375 C 42.050781 215.367188 45.070312 203.300781 49.804688 187.792969 L 49.828125 187.691406 C 50.710938 183.203125 53.433594 179.871094 57.996094 177.691406 Z M 120.585938 170.527344 C 127.359375 171.804688 132.101562 176.488281 134.808594 184.582031 L 134.796875 184.582031 C 134.03125 186.992188 133.371094 189.699219 132.816406 192.707031 C 132.792969 192.835938 132.792969 192.964844 132.816406 193.089844 C 133.78125 198.230469 134.429688 203.476562 134.769531 208.820312 L 134.757812 208.820312 C 134.8125 210.890625 134.902344 212.882812 135.027344 214.796875 L 135.015625 214.796875 C 135.101562 219.292969 134.976562 223.859375 134.632812 228.496094 L 134.625 228.496094 C 133.894531 226.355469 132.597656 224.480469 130.738281 222.871094 L 130.726562 222.871094 C 132.871094 219.210938 132.769531 216.242188 130.425781 213.957031 C 128.984375 212.554688 126.664062 211.484375 123.464844 210.753906 C 123.417969 210.742188 123.375 210.734375 123.328125 210.730469 C 115.996094 210.066406 108.976562 209.738281 102.273438 209.738281 C 87.777344 209.738281 74.753906 211.285156 63.195312 214.386719 C 62.457031 214.371094 62.035156 213.929688 61.929688 213.058594 C 61.914062 212.941406 61.882812 212.828125 61.832031 212.726562 L 61.820312 212.726562 C 61.738281 210.734375 62.785156 199.335938 64.960938 178.539062 L 64.964844 178.476562 C 65.015625 177.296875 65.335938 176.390625 65.925781 175.757812 L 65.9375 175.757812 C 69.863281 176.285156 74.035156 176.546875 78.445312 176.546875 C 90.644531 176.546875 104.6875 174.539062 120.578125 170.527344 Z M 160.648438 216.128906 L 226.714844 221.378906 L 226.699219 221.378906 C 227.195312 224.257812 227.046875 226.019531 226.257812 226.667969 L 198.136719 223.386719 L 198.125 223.386719 C 198.089844 223.375 198.058594 223.363281 198.023438 223.351562 C 197.753906 223.261719 197.316406 223.214844 196.707031 223.214844 C 192.585938 223.214844 180.667969 225.265625 160.949219 229.371094 L 160.9375 229.371094 C 159.273438 229.464844 157.714844 229.511719 156.257812 229.511719 C 151.191406 229.511719 147.390625 228.945312 144.851562 227.816406 L 144.84375 227.816406 C 144.242188 226.3125 144.390625 224.921875 145.292969 223.636719 C 147.246094 220.851562 152.359375 218.347656 160.636719 216.128906 Z M 285.097656 217.035156 C 286.226562 217.269531 287.0625 217.609375 287.605469 218.054688 C 289.007812 219.207031 288.320312 221.472656 285.542969 224.855469 L 285.53125 224.855469 C 283.105469 227.121094 279.964844 228.6875 276.101562 229.550781 C 275.992188 229.09375 275.898438 228.625 275.824219 228.144531 L 275.8125 228.144531 C 276.15625 221.617188 279.246094 217.910156 285.085938 217.035156 Z M 98.917969 217.445312 C 101.890625 217.445312 104.832031 217.617188 107.746094 217.960938 L 107.785156 217.964844 C 117.023438 218.675781 123.746094 220.464844 127.953125 223.332031 L 127.941406 223.332031 C 127.164062 224.398438 126.179688 225.542969 124.988281 226.765625 C 122.980469 228.792969 119.621094 229.804688 114.914062 229.804688 C 113.632812 229.804688 112.257812 229.730469 110.777344 229.582031 L 110.765625 229.582031 L 74.089844 222.269531 C 74.023438 222.257812 73.953125 222.25 73.886719 222.25 C 73.839844 222.25 73.789062 222.253906 73.742188 222.261719 L 44.546875 226.402344 C 44.511719 226.167969 44.511719 225.855469 44.546875 225.460938 L 44.535156 225.460938 L 89.113281 218.050781 L 89.121094 218.050781 C 92.421875 217.648438 95.6875 217.445312 98.917969 217.445312 Z M 228.84375 221.546875 L 233.648438 221.929688 C 233.675781 221.929688 233.703125 221.929688 233.730469 221.929688 C 233.78125 221.929688 233.832031 221.929688 233.882812 221.921875 C 233.984375 221.90625 234.101562 221.898438 234.230469 221.898438 C 234.589844 221.898438 235.050781 221.957031 235.617188 222.074219 L 235.605469 222.074219 L 237.882812 230.746094 L 237.867188 230.746094 C 237.839844 231.78125 237.308594 232.351562 236.269531 232.457031 L 236.246094 232.460938 C 228.03125 233.488281 221.070312 234.164062 215.363281 234.484375 C 200.117188 233.71875 186.5625 233.335938 174.699219 233.335938 C 165.71875 233.335938 157.703125 233.554688 150.660156 233.996094 C 149.019531 232.824219 147.703125 231.699219 146.714844 230.621094 L 146.726562 230.621094 C 149.28125 231.261719 152.492188 231.582031 156.359375 231.582031 C 157.855469 231.582031 159.453125 231.535156 161.148438 231.4375 C 161.199219 231.4375 161.25 231.429688 161.300781 231.417969 C 181.144531 227.289062 192.847656 225.222656 196.410156 225.222656 C 196.851562 225.222656 197.167969 225.253906 197.359375 225.320312 L 197.351562 225.320312 C 197.464844 225.378906 197.585938 225.414062 197.710938 225.429688 L 226.378906 228.773438 C 226.417969 228.777344 226.460938 228.78125 226.5 228.78125 C 226.660156 228.78125 226.820312 228.742188 226.964844 228.671875 C 228.773438 227.765625 229.394531 225.394531 228.832031 221.546875 Z M 73.855469 224.34375 L 110.398438 231.625 L 110.496094 231.640625 C 112.046875 231.800781 113.5 231.878906 114.863281 231.878906 C 120.191406 231.878906 124.0625 230.660156 126.472656 228.222656 L 126.476562 228.214844 C 127.703125 226.953125 128.738281 225.753906 129.574219 224.613281 L 129.585938 224.613281 C 131.070312 225.960938 132.105469 227.503906 132.683594 229.242188 L 132.671875 229.242188 C 133.078125 233.546875 130.027344 236.203125 123.511719 237.214844 C 103.179688 234.144531 90.449219 232.609375 85.324219 232.609375 C 84.652344 232.609375 84.109375 232.636719 83.699219 232.691406 L 83.691406 232.691406 L 40.433594 236.644531 C 39.859375 234.308594 39.863281 230.808594 40.449219 226.144531 L 40.4375 226.144531 L 42.507812 225.800781 L 42.519531 225.800781 C 42.488281 226.59375 42.5625 227.183594 42.734375 227.570312 C 42.953125 228.042969 43.289062 228.34375 43.742188 228.476562 C 43.882812 228.515625 44.027344 228.539062 44.175781 228.539062 C 44.277344 228.539062 44.378906 228.527344 44.484375 228.507812 L 44.476562 228.507812 Z M 136.742188 228.292969 C 138.050781 234.660156 139.988281 239.671875 142.550781 243.316406 L 139.800781 243.214844 C 139.785156 243.214844 139.773438 243.214844 139.761719 243.214844 C 139.269531 243.214844 138.839844 243.5625 138.742188 244.050781 L 137.777344 248.871094 C 136.597656 247.175781 135.847656 244.109375 135.519531 239.664062 L 135.507812 239.664062 C 136.054688 235.828125 136.464844 232.039062 136.730469 228.292969 Z M 1.550781 0.726562 C 1.429688 0.726562 1.308594 0.746094 1.1875 0.792969 C 0.652344 0.992188 0.378906 1.589844 0.578125 2.128906 C 4.210938 11.886719 11.789062 23.003906 23.308594 35.480469 L 23.300781 35.480469 C 26.378906 39.691406 38.183594 47.980469 58.710938 60.34375 L 58.699219 60.34375 C 64.308594 64.605469 68.582031 68.453125 71.527344 71.878906 L 71.535156 71.890625 C 78.359375 79.589844 81.910156 86.800781 82.191406 93.523438 C 82.457031 101.113281 79.578125 107.53125 73.554688 112.777344 C 73.4375 112.6875 73.320312 112.601562 73.199219 112.511719 C 73.164062 112.488281 73.128906 112.464844 73.089844 112.445312 C 67.90625 109.539062 63.46875 108.085938 59.777344 108.085938 C 55.789062 108.085938 52.675781 109.789062 50.4375 113.1875 C 50.339844 113.335938 50.28125 113.507812 50.269531 113.6875 C 50.105469 116.019531 50.390625 117.886719 51.125 119.285156 C 52.175781 121.285156 54.042969 122.285156 56.726562 122.285156 C 60.042969 122.285156 64.605469 120.761719 70.410156 117.710938 L 70.492188 117.664062 C 71.574219 116.960938 72.589844 116.238281 73.542969 115.488281 L 73.554688 115.488281 C 77.816406 119.4375 78.820312 124.648438 76.5625 131.121094 C 75.472656 134.238281 73.4375 136.800781 70.453125 138.804688 L 70.441406 138.804688 C 52.207031 146.902344 41.210938 152.816406 37.453125 156.539062 L 37.441406 156.539062 C 32.199219 160.394531 26.820312 166.078125 21.304688 173.59375 L 21.28125 173.625 C 10.660156 189.328125 8.492188 203.90625 14.777344 217.355469 L 14.8125 217.425781 C 18.53125 223.992188 24.738281 227.28125 33.433594 227.292969 C 33.433594 227.292969 33.4375 227.292969 33.4375 227.292969 C 33.492188 227.292969 33.550781 227.289062 33.605469 227.28125 L 38.351562 226.492188 L 38.363281 226.492188 C 37.742188 231.785156 37.855469 235.652344 38.695312 238.09375 C 38.839844 238.515625 39.238281 238.792969 39.675781 238.792969 C 39.707031 238.792969 39.738281 238.792969 39.773438 238.789062 L 83.925781 234.753906 L 83.964844 234.75 C 84.335938 234.703125 84.828125 234.679688 85.441406 234.679688 C 90.355469 234.679688 102.996094 236.214844 123.359375 239.292969 C 123.410156 239.300781 123.460938 239.304688 123.515625 239.304688 C 123.566406 239.304688 123.617188 239.300781 123.667969 239.292969 C 129.363281 238.4375 132.871094 236.433594 134.195312 233.28125 L 134.207031 233.28125 C 133.992188 235.316406 133.738281 237.367188 133.445312 239.425781 C 133.433594 239.5 133.429688 239.574219 133.4375 239.648438 C 133.902344 246.25 135.386719 250.304688 137.890625 251.8125 C 138.054688 251.910156 138.242188 251.960938 138.425781 251.960938 C 138.570312 251.960938 138.710938 251.929688 138.847656 251.871094 C 139.15625 251.734375 139.378906 251.457031 139.445312 251.125 L 140.605469 245.324219 L 144.710938 245.476562 C 144.722656 245.476562 144.738281 245.476562 144.75 245.476562 C 145.148438 245.476562 145.515625 245.25 145.6875 244.882812 C 145.867188 244.507812 145.804688 244.066406 145.53125 243.753906 C 140.847656 238.433594 138.042969 228.890625 137.109375 215.125 L 137.097656 215.125 C 137.058594 212.867188 136.96875 210.628906 136.824219 208.402344 L 136.8125 208.402344 C 136.660156 201.828125 136.863281 194.453125 137.425781 186.269531 C 137.433594 186.152344 137.421875 186.035156 137.390625 185.921875 C 137.261719 185.460938 137.128906 185.011719 136.988281 184.570312 L 136.976562 184.570312 C 139.570312 176.753906 143.3125 172.625 148.191406 172.171875 L 148.203125 172.171875 C 164.425781 175.65625 177.746094 177.394531 188.164062 177.394531 C 194.394531 177.394531 199.585938 176.773438 203.738281 175.527344 L 203.75 175.527344 C 204.261719 176.085938 204.808594 177.628906 205.386719 180.152344 L 205.386719 180.15625 C 208.738281 195.570312 210.519531 204.910156 210.726562 208.183594 L 210.714844 208.183594 C 210.617188 208.648438 210.171875 208.882812 209.378906 208.882812 C 209.246094 208.882812 209.097656 208.875 208.945312 208.863281 L 208.941406 208.863281 C 208.914062 208.859375 208.882812 208.855469 208.851562 208.851562 C 193.828125 207.386719 183.414062 206.65625 177.617188 206.65625 C 176.042969 206.65625 174.808594 206.710938 173.914062 206.816406 L 173.902344 206.816406 C 166.769531 207.085938 160.792969 207.886719 155.964844 209.226562 L 155.890625 209.25 C 143.152344 213.863281 137.863281 219.15625 140.023438 225.128906 C 140.445312 226.289062 141.15625 227.457031 142.15625 228.632812 C 142.21875 228.710938 142.292969 228.773438 142.375 228.828125 C 142.640625 229.003906 142.925781 229.171875 143.226562 229.328125 L 143.214844 229.328125 C 144.328125 231.433594 146.511719 233.625 149.765625 235.90625 C 149.941406 236.027344 150.148438 236.09375 150.359375 236.09375 C 150.382812 236.09375 150.40625 236.09375 150.425781 236.09375 C 157.515625 235.640625 165.605469 235.414062 174.699219 235.414062 C 186.539062 235.414062 200.078125 235.796875 215.316406 236.5625 L 215.425781 236.5625 C 221.183594 236.242188 228.203125 235.5625 236.484375 234.523438 L 236.480469 234.523438 C 238.84375 234.285156 240 232.957031 239.945312 230.539062 C 239.945312 230.457031 239.933594 230.378906 239.914062 230.296875 L 237.914062 222.691406 L 237.929688 222.691406 C 241.890625 223.933594 248.394531 226.617188 257.433594 230.746094 C 257.476562 230.765625 257.523438 230.78125 257.570312 230.796875 C 261.015625 231.828125 264.703125 232.371094 268.636719 232.425781 L 268.664062 232.425781 C 270.785156 232.402344 272.769531 232.242188 274.625 231.945312 L 274.640625 231.945312 C 276.429688 237.003906 280.332031 240.667969 286.339844 242.9375 L 286.371094 242.949219 C 289.03125 243.859375 292.078125 244.316406 295.515625 244.316406 C 297.175781 244.316406 298.929688 244.207031 300.773438 243.996094 C 300.816406 243.988281 300.863281 243.980469 300.910156 243.96875 C 322.011719 238.59375 334.851562 235.902344 339.425781 235.902344 C 340.242188 235.902344 340.792969 235.988281 341.082031 236.160156 C 341.230469 236.25 341.394531 236.300781 341.566406 236.3125 C 351.941406 236.921875 362.371094 240.847656 372.855469 248.101562 C 373.035156 248.222656 373.242188 248.285156 373.445312 248.285156 C 373.777344 248.285156 374.101562 248.128906 374.300781 247.835938 C 374.628906 247.363281 374.511719 246.71875 374.039062 246.390625 C 363.304688 238.96875 352.589844 234.921875 341.898438 234.25 L 341.882812 234.25 C 341.421875 234.074219 340.699219 233.984375 339.722656 233.984375 C 334.359375 233.984375 321.269531 236.636719 300.453125 241.941406 L 300.441406 241.941406 C 298.707031 242.140625 297.0625 242.238281 295.507812 242.238281 C 292.324219 242.238281 289.511719 241.824219 287.078125 240.996094 L 287.074219 240.996094 C 281.816406 239.007812 278.363281 235.859375 276.714844 231.546875 L 276.703125 231.546875 C 280.921875 230.578125 284.375 228.820312 287.0625 226.269531 C 287.09375 226.238281 287.121094 226.207031 287.148438 226.175781 C 290.804688 221.722656 291.398438 218.480469 288.925781 216.449219 C 288.085938 215.757812 286.882812 215.261719 285.320312 214.957031 C 285.253906 214.945312 285.1875 214.941406 285.121094 214.941406 C 285.074219 214.941406 285.027344 214.941406 284.976562 214.949219 C 277.875 215.9375 274.128906 220.316406 273.734375 228.082031 C 273.730469 228.148438 273.734375 228.21875 273.746094 228.285156 C 273.828125 228.847656 273.929688 229.398438 274.054688 229.933594 L 274.042969 229.933594 C 272.367188 230.1875 270.570312 230.328125 268.652344 230.347656 C 264.957031 230.292969 261.496094 229.789062 258.269531 228.835938 L 258.253906 228.835938 C 248.460938 224.363281 241.488281 221.558594 237.332031 220.417969 L 237.316406 220.417969 L 229.003906 188.75 L 228.992188 188.75 C 228.964844 186.296875 225.414062 183.496094 218.335938 180.347656 C 218.203125 180.289062 218.058594 180.257812 217.914062 180.257812 C 217.785156 180.257812 217.652344 180.285156 217.53125 180.332031 C 217.273438 180.433594 217.0625 180.636719 216.957031 180.894531 C 215.695312 183.890625 218.730469 196.675781 226.054688 219.242188 L 160.625 214.042969 C 160.597656 214.039062 160.570312 214.039062 160.542969 214.039062 C 160.453125 214.039062 160.363281 214.050781 160.277344 214.074219 C 151.410156 216.433594 145.847656 219.226562 143.589844 222.445312 C 142.925781 223.390625 142.527344 224.359375 142.394531 225.347656 C 142.226562 225.035156 142.089844 224.726562 141.976562 224.421875 C 140.289062 219.761719 145.140625 215.363281 156.53125 211.226562 L 156.523438 211.226562 C 161.203125 209.929688 167.042969 209.148438 174.039062 208.890625 L 174.128906 208.886719 C 174.972656 208.78125 176.152344 208.726562 177.667969 208.726562 C 183.324219 208.726562 193.652344 209.457031 208.648438 210.921875 C 208.6875 210.925781 208.722656 210.929688 208.761719 210.929688 C 209.011719 210.953125 209.25 210.964844 209.476562 210.964844 C 211.535156 210.964844 212.644531 210.058594 212.800781 208.25 C 212.808594 208.199219 212.808594 208.148438 212.804688 208.097656 C 212.601562 204.753906 210.804688 195.289062 207.414062 179.707031 L 207.414062 179.699219 L 207.410156 179.691406 L 207.410156 179.6875 C 206.582031 176.070312 205.5625 173.988281 204.359375 173.4375 C 204.222656 173.375 204.074219 173.34375 203.925781 173.34375 C 203.820312 173.34375 203.714844 173.359375 203.609375 173.390625 C 199.558594 174.683594 194.40625 175.328125 188.15625 175.328125 C 177.894531 175.328125 164.671875 173.589844 148.488281 170.105469 C 148.414062 170.089844 148.339844 170.082031 148.269531 170.082031 C 148.242188 170.082031 148.214844 170.085938 148.1875 170.085938 C 142.890625 170.492188 138.789062 174.304688 135.886719 181.53125 C 132.773438 174.039062 127.722656 169.671875 120.726562 168.4375 C 120.664062 168.429688 120.605469 168.421875 120.546875 168.421875 C 120.460938 168.421875 120.375 168.433594 120.289062 168.453125 C 104.476562 172.464844 90.53125 174.46875 78.457031 174.46875 C 73.953125 174.46875 69.710938 174.191406 65.726562 173.632812 C 65.679688 173.625 65.628906 173.621094 65.582031 173.621094 C 65.347656 173.621094 65.117188 173.703125 64.933594 173.851562 C 63.65625 174.878906 62.976562 176.386719 62.886719 178.382812 C 60.609375 200.175781 59.574219 211.789062 59.78125 213.222656 C 59.808594 213.40625 59.859375 213.566406 59.9375 213.707031 L 59.925781 213.707031 C 60.265625 215.546875 61.351562 216.464844 63.179688 216.464844 C 63.246094 216.464844 63.308594 216.464844 63.375 216.460938 C 63.453125 216.460938 63.535156 216.449219 63.609375 216.425781 C 75.019531 213.351562 87.90625 211.8125 102.269531 211.8125 C 108.894531 211.8125 115.835938 212.140625 123.085938 212.796875 L 123.074219 212.796875 C 125.855469 213.441406 127.820312 214.324219 128.976562 215.449219 C 130.496094 216.925781 130.527344 218.976562 129.066406 221.59375 C 124.519531 218.53125 117.496094 216.632812 108 215.898438 L 107.988281 215.898438 C 104.996094 215.546875 101.972656 215.371094 98.917969 215.371094 C 95.585938 215.371094 92.21875 215.578125 88.816406 215.996094 L 88.769531 216.003906 L 44.894531 223.296875 C 45.191406 221.878906 45.664062 220.046875 46.3125 217.800781 L 46.308594 217.800781 L 59.511719 180.535156 L 59.523438 180.488281 C 60.046875 178.773438 60.191406 177.527344 59.960938 176.753906 C 59.945312 176.703125 59.929688 176.652344 59.910156 176.601562 C 59.625 175.859375 59.09375 175.488281 58.3125 175.488281 C 58.292969 175.488281 58.269531 175.488281 58.246094 175.488281 C 58.039062 175.496094 57.820312 175.53125 57.59375 175.597656 C 57.546875 175.613281 57.5 175.628906 57.457031 175.648438 C 52.054688 178.121094 48.832031 182 47.792969 187.289062 L 47.785156 187.289062 C 42.957031 203.125 39.90625 215.476562 38.640625 224.335938 L 38.632812 224.335938 L 33.351562 225.214844 C 25.539062 225.183594 19.976562 222.269531 16.664062 216.476562 L 16.660156 216.476562 C 10.710938 203.746094 12.820312 189.863281 22.980469 174.820312 L 22.976562 174.820312 C 28.40625 167.429688 33.667969 161.871094 38.773438 158.136719 C 38.8125 158.105469 38.855469 158.074219 38.890625 158.035156 C 42.453125 154.488281 53.289062 148.695312 71.398438 140.652344 C 71.453125 140.628906 71.503906 140.601562 71.550781 140.570312 C 74.953125 138.300781 77.277344 135.378906 78.523438 131.804688 C 81.058594 124.539062 79.941406 118.652344 75.167969 114.144531 L 75.15625 114.144531 C 81.515625 108.515625 84.554688 101.617188 84.269531 93.445312 L 84.269531 93.4375 C 83.96875 86.226562 80.246094 78.585938 73.101562 70.523438 C 70.050781 66.96875 65.640625 63.003906 59.875 58.625 L 59.78125 58.5625 C 39.332031 46.246094 27.710938 38.117188 24.921875 34.175781 C 24.894531 34.140625 24.867188 34.105469 24.835938 34.070312 C 13.5 21.796875 6.0625 10.90625 2.523438 1.402344 C 2.367188 0.984375 1.972656 0.726562 1.550781 0.726562 Z M 1.550781 0.726562 " fill-opacity="1" fill-rule="nonzero"/></g></g></g></g></svg>