<svg xmlns="http://www.w3.org/2000/svg" xmlns:xlink="http://www.w3.org/1999/xlink" width="200" zoomAndPan="magnify" viewBox="0 0 150 74.999997" height="100" preserveAspectRatio="xMidYMid meet" version="1.0"><defs><clipPath id="3057de76ac"><path d="M 17.160156 0 L 149.910156 0 L 149.910156 75 L 17.160156 75 Z M 17.160156 0 " clip-rule="nonzero"/></clipPath></defs><g clip-path="url(#3057de76ac)"><path fill="#3f322c" d="M 141.316406 74.460938 C 137.359375 74.460938 133.40625 73.40625 130.007812 71.335938 C 129.203125 70.839844 128.414062 70.277344 127.648438 69.742188 C 126.53125 68.953125 125.351562 68.125 124.109375 67.503906 C 123.984375 67.441406 123.859375 67.378906 123.714844 67.316406 C 123.113281 67.027344 122.515625 66.738281 122.015625 66.28125 C 121.0625 66.820312 119.925781 67.046875 118.890625 66.964844 C 117.210938 66.839844 115.660156 66.117188 114.167969 65.414062 C 113.878906 65.269531 113.589844 65.144531 113.300781 65.019531 C 111.726562 64.316406 109.65625 63.570312 107.75 64.085938 C 107.128906 64.253906 106.507812 64.585938 105.90625 64.875 C 104.890625 65.390625 103.855469 65.910156 102.699219 65.804688 C 102.242188 65.765625 101.910156 65.621094 101.722656 65.351562 L 101.414062 65.804688 C 101.351562 65.890625 101.246094 65.910156 101.164062 65.867188 C 101.144531 65.847656 101.101562 65.828125 101.082031 65.804688 C 100.917969 66.21875 100.710938 66.613281 100.503906 67.007812 C 98.265625 71.023438 93.296875 73.386719 88.699219 72.640625 C 87.519531 72.453125 86.359375 72.082031 85.242188 71.707031 C 83.273438 71.066406 81.429688 70.464844 79.484375 70.753906 C 78.574219 70.878906 77.683594 71.210938 76.8125 71.542969 C 76.234375 71.75 75.632812 71.976562 75.03125 72.140625 C 73.003906 72.679688 70.808594 72.597656 68.84375 71.875 C 67.992188 71.5625 67.246094 71.148438 66.605469 70.652344 C 61.820312 73.59375 55.796875 74.296875 50.476562 72.433594 C 48.402344 71.707031 46.417969 70.609375 44.492188 69.554688 C 40.910156 67.585938 37.511719 65.722656 33.660156 66.011719 C 32.003906 66.136719 30.390625 66.675781 28.835938 67.214844 C 27.550781 67.648438 26.246094 68.082031 24.902344 68.3125 C 21.734375 68.828125 17.921875 67.523438 17.28125 64.5 C 17.261719 64.398438 17.324219 64.273438 17.449219 64.253906 C 17.550781 64.234375 17.675781 64.292969 17.695312 64.417969 C 18.277344 67.214844 21.859375 68.394531 24.839844 67.898438 C 26.164062 67.667969 27.449219 67.234375 28.710938 66.820312 C 30.304688 66.28125 31.941406 65.742188 33.640625 65.597656 C 37.617188 65.308594 41.21875 67.277344 44.699219 69.203125 C 46.601562 70.257812 48.589844 71.335938 50.621094 72.058594 C 55.777344 73.859375 61.636719 73.199219 66.292969 70.382812 C 65.820312 69.949219 65.425781 69.429688 65.136719 68.890625 C 64.328125 67.316406 64.597656 65.351562 65.757812 64.292969 C 66.398438 63.714844 67.390625 63.445312 68.304688 63.632812 C 69.132812 63.796875 69.773438 64.273438 70.105469 64.9375 C 70.933594 66.675781 69.484375 68.601562 67.972656 69.742188 C 67.640625 69.988281 67.308594 70.214844 66.976562 70.445312 C 67.539062 70.878906 68.21875 71.230469 68.964844 71.519531 C 70.851562 72.203125 72.960938 72.308594 74.910156 71.769531 C 75.507812 71.605469 76.089844 71.398438 76.667969 71.191406 C 77.558594 70.859375 78.46875 70.527344 79.421875 70.382812 C 81.453125 70.09375 83.441406 70.734375 85.367188 71.355469 C 86.484375 71.707031 87.621094 72.082031 88.761719 72.265625 C 93.191406 72.992188 97.957031 70.714844 100.128906 66.839844 C 101.019531 65.226562 101.496094 63.425781 101.953125 61.664062 L 104.210938 53.03125 C 104.125 52.988281 104.085938 52.886719 104.105469 52.78125 C 104.148438 52.65625 104.1875 52.53125 104.230469 52.410156 C 104.230469 52.367188 104.230469 52.347656 104.25 52.304688 C 104.25 52.285156 104.269531 52.265625 104.292969 52.265625 C 106.941406 44.332031 110.109375 36.484375 113.691406 28.925781 C 113.628906 28.96875 113.546875 28.988281 113.464844 28.949219 C 113.363281 28.90625 113.320312 28.78125 113.363281 28.679688 C 116.53125 21.015625 120.296875 13.5 124.523438 6.378906 C 124.542969 6.316406 124.605469 6.292969 124.667969 6.273438 C 124.730469 6.253906 124.792969 6.273438 124.832031 6.316406 C 124.914062 6.378906 125 6.460938 125.101562 6.523438 C 126.074219 4.410156 127.027344 2.277344 127.9375 0.144531 C 127.980469 0.0429688 128.105469 0 128.207031 0.0195312 C 129.511719 0.476562 130.839844 0.972656 132.101562 1.84375 C 132.183594 1.90625 132.203125 1.988281 132.183594 2.070312 C 131.851562 3.125 131.480469 4.183594 131.085938 5.21875 C 131.128906 5.21875 131.167969 5.238281 131.210938 5.257812 L 132.121094 5.300781 C 132.183594 5.300781 132.246094 5.34375 132.289062 5.40625 C 132.328125 5.464844 132.328125 5.527344 132.308594 5.589844 C 132.183594 5.902344 132.058594 6.191406 131.933594 6.5 C 131.914062 6.6875 131.894531 6.875 131.851562 7.0625 C 131.210938 9.898438 129.90625 12.546875 128.644531 15.117188 C 128.582031 15.21875 128.539062 15.34375 128.476562 15.445312 C 127.773438 17.414062 127.089844 19.402344 126.425781 21.371094 L 126.425781 21.390625 C 126.136719 22.261719 125.847656 23.171875 125.269531 23.917969 C 125.101562 24.125 124.894531 24.351562 124.667969 24.539062 C 124.273438 24.972656 123.695312 25.28125 123.09375 25.242188 L 120.753906 30.769531 C 120.710938 30.875 120.589844 30.914062 120.484375 30.875 L 120.402344 30.832031 L 109.199219 53.546875 C 109.199219 53.546875 109.179688 53.570312 109.179688 53.570312 C 109.136719 53.609375 109.097656 53.671875 109.074219 53.714844 L 109.363281 53.816406 C 109.425781 53.835938 109.46875 53.898438 109.488281 53.960938 C 109.511719 54.023438 109.488281 54.105469 109.449219 54.148438 C 109.425781 54.191406 109.386719 54.210938 109.363281 54.25 C 109.363281 54.25 109.363281 54.273438 109.363281 54.273438 C 109.386719 54.335938 109.386719 54.398438 109.34375 54.457031 L 102.035156 64.957031 C 102.054688 65 102.078125 65.039062 102.097656 65.082031 C 102.242188 65.289062 102.550781 65.351562 102.78125 65.371094 C 103.816406 65.476562 104.769531 64.976562 105.761719 64.480469 C 106.382812 64.171875 107.023438 63.839844 107.6875 63.652344 C 109.738281 63.09375 111.871094 63.859375 113.507812 64.605469 C 113.796875 64.730469 114.085938 64.875 114.375 65.019531 C 115.847656 65.703125 117.359375 66.40625 118.953125 66.53125 C 119.882812 66.59375 120.917969 66.40625 121.769531 65.949219 C 121.230469 65.269531 120.980469 64.253906 121.539062 63.507812 C 121.914062 63.011719 122.574219 62.949219 123.050781 63.09375 C 123.527344 63.238281 123.816406 63.589844 123.839844 64.027344 C 123.839844 64.046875 123.839844 64.066406 123.839844 64.085938 C 123.609375 64.914062 123.09375 65.578125 122.429688 66.035156 C 122.867188 66.40625 123.402344 66.675781 123.941406 66.925781 C 124.066406 66.988281 124.210938 67.046875 124.335938 67.109375 C 125.597656 67.753906 126.78125 68.582031 127.917969 69.386719 C 128.664062 69.925781 129.449219 70.464844 130.257812 70.960938 C 135.992188 74.460938 143.386719 75 149.578125 72.371094 C 149.679688 72.328125 149.804688 72.371094 149.847656 72.472656 C 149.886719 72.578125 149.847656 72.703125 149.742188 72.742188 C 147.050781 73.902344 144.195312 74.460938 141.316406 74.460938 Z M 67.722656 63.984375 C 67.101562 63.984375 66.480469 64.191406 66.046875 64.585938 C 65.03125 65.515625 64.785156 67.277344 65.507812 68.683594 C 65.777344 69.203125 66.171875 69.699219 66.667969 70.132812 C 67.039062 69.90625 67.390625 69.636719 67.746094 69.386719 C 69.109375 68.351562 70.476562 66.613281 69.753906 65.101562 C 69.484375 64.542969 68.945312 64.148438 68.242188 64.023438 C 68.074219 64.003906 67.890625 63.984375 67.722656 63.984375 Z M 122.574219 63.445312 C 122.308594 63.445312 122.015625 63.550781 121.851562 63.757812 C 121.417969 64.335938 121.644531 65.183594 122.101562 65.742188 C 122.722656 65.328125 123.195312 64.75 123.402344 64.003906 C 123.363281 63.671875 123.050781 63.527344 122.90625 63.488281 C 122.824219 63.464844 122.699219 63.445312 122.574219 63.445312 Z M 103.277344 61.871094 C 102.59375 62.617188 102.054688 63.402344 101.953125 64.316406 L 102.136719 64.046875 C 102.078125 63.984375 102.054688 63.878906 102.117188 63.796875 C 102.242188 63.609375 102.34375 63.402344 102.46875 63.21875 C 102.738281 62.78125 103.007812 62.328125 103.277344 61.871094 Z M 102.429688 61.851562 L 102.285156 62.453125 C 102.71875 61.808594 103.296875 61.230469 103.855469 60.691406 C 103.980469 60.566406 104.125 60.421875 104.25 60.296875 C 105.367188 58.476562 106.527344 56.632812 107.75 54.851562 C 107.832031 54.644531 107.914062 54.417969 107.976562 54.210938 C 107.75 54.128906 107.523438 54.042969 107.292969 53.960938 C 107.046875 54.148438 106.816406 54.417969 106.652344 54.644531 C 105.347656 56.613281 104.125 58.683594 103.050781 60.796875 C 102.90625 61.105469 102.738281 61.4375 102.574219 61.746094 C 102.53125 61.808594 102.492188 61.851562 102.429688 61.851562 Z M 104.3125 54.4375 L 102.84375 60.277344 C 103.648438 58.433594 104.148438 56.46875 104.3125 54.4375 Z M 104.769531 53.070312 C 104.769531 54.75 104.539062 56.425781 104.0625 58.042969 C 104.769531 56.820312 105.511719 55.597656 106.300781 54.417969 C 106.445312 54.210938 106.632812 53.984375 106.859375 53.777344 C 106.425781 53.589844 105.988281 53.382812 105.554688 53.175781 C 105.304688 53.132812 105.039062 53.09375 104.769531 53.070312 Z M 108.121094 55.058594 C 108.101562 55.101562 108.082031 55.140625 108.082031 55.183594 C 108.265625 54.933594 108.472656 54.6875 108.683594 54.4375 C 108.640625 54.4375 108.621094 54.417969 108.578125 54.398438 C 108.414062 54.625 108.265625 54.851562 108.121094 55.058594 Z M 108.535156 53.589844 L 108.621094 53.609375 C 108.683594 53.527344 108.722656 53.445312 108.785156 53.363281 L 119.96875 30.6875 L 119.613281 30.542969 C 115.949219 38.226562 112.140625 45.84375 108.246094 53.363281 C 108.328125 53.402344 108.414062 53.445312 108.496094 53.527344 C 108.515625 53.546875 108.535156 53.570312 108.535156 53.589844 Z M 104.851562 52.285156 L 107.769531 53.320312 C 107.792969 53.320312 107.792969 53.320312 107.8125 53.320312 C 111.726562 45.78125 115.535156 38.140625 119.222656 30.417969 L 115.078125 28.78125 C 111.394531 36.421875 107.957031 44.269531 104.808594 52.140625 C 104.851562 52.203125 104.851562 52.242188 104.851562 52.285156 Z M 114.355469 28.492188 C 111.851562 33.753906 109.550781 39.136719 107.480469 44.601562 C 109.757812 39.21875 112.179688 33.875 114.707031 28.617188 Z M 119.800781 30.191406 L 120.152344 30.335938 L 121.476562 27.664062 C 121.3125 27.664062 121.167969 27.664062 121.003906 27.664062 C 120.609375 28.492188 120.214844 29.339844 119.800781 30.191406 Z M 115.265625 28.410156 L 119.40625 30.046875 C 119.800781 29.238281 120.175781 28.429688 120.546875 27.644531 C 119.015625 27.539062 117.480469 27.207031 116.054688 26.628906 C 116.074219 26.671875 116.074219 26.734375 116.054688 26.792969 C 115.804688 27.3125 115.535156 27.871094 115.265625 28.410156 Z M 114.625 28.160156 L 114.871094 28.265625 C 114.976562 28.058594 115.078125 27.851562 115.183594 27.644531 Z M 115.410156 26.316406 C 115.246094 26.648438 115.078125 26.980469 114.933594 27.3125 L 115.742188 26.527344 C 115.761719 26.503906 115.785156 26.503906 115.804688 26.484375 C 115.660156 26.441406 115.535156 26.378906 115.410156 26.316406 Z M 121.210938 27.25 C 121.394531 27.25 121.582031 27.25 121.769531 27.25 L 122.636719 25.179688 C 122.535156 25.136719 122.492188 25.035156 122.515625 24.929688 C 122.535156 24.828125 122.636719 24.765625 122.742188 24.765625 C 122.761719 24.765625 122.78125 24.765625 122.824219 24.765625 L 128.683594 10.953125 C 126.261719 16.398438 123.757812 21.824219 121.210938 27.25 Z M 115.496094 25.902344 C 117.128906 26.691406 118.929688 27.125 120.753906 27.230469 C 123.652344 21.078125 126.488281 14.910156 129.222656 8.71875 C 127.816406 8.488281 126.46875 7.929688 125.289062 7.144531 C 122.308594 13.542969 119.035156 19.816406 115.496094 25.902344 Z M 124.792969 6.769531 C 121.148438 12.941406 117.855469 19.382812 114.976562 25.964844 C 118.578125 19.773438 121.933594 13.398438 124.9375 6.875 C 124.894531 6.855469 124.832031 6.8125 124.792969 6.769531 Z M 129.824219 8.367188 C 129.863281 8.367188 129.886719 8.367188 129.925781 8.386719 C 129.988281 8.386719 130.050781 8.425781 130.09375 8.488281 C 130.132812 8.550781 130.132812 8.613281 130.113281 8.675781 L 123.300781 24.765625 C 123.695312 24.703125 124.066406 24.496094 124.378906 24.269531 C 124.417969 24.226562 124.460938 24.164062 124.5 24.125 C 124.875 23.625 125.039062 22.984375 125.207031 22.363281 L 125.269531 22.136719 C 125.929688 19.753906 127.007812 17.476562 128.105469 15.28125 C 129.179688 12.300781 130.339844 9.339844 131.5625 6.417969 C 131.5625 6.273438 131.542969 6.128906 131.5 6.003906 C 131.4375 5.859375 131.3125 5.734375 131.167969 5.671875 L 131.066406 5.671875 C 130.609375 6.5625 130.214844 7.476562 129.824219 8.367188 Z M 126.675781 19.277344 C 126.28125 20.25 125.910156 21.222656 125.640625 22.238281 L 125.578125 22.46875 C 125.578125 22.488281 125.558594 22.527344 125.558594 22.550781 C 125.722656 22.136719 125.867188 21.699219 126.011719 21.265625 L 126.011719 21.246094 C 126.21875 20.582031 126.449219 19.921875 126.675781 19.277344 Z M 125.453125 6.75 C 126.613281 7.558594 127.980469 8.097656 129.367188 8.324219 L 130.421875 5.363281 C 130.445312 5.28125 130.527344 5.21875 130.609375 5.21875 C 131.003906 4.183594 131.375 3.125 131.707031 2.070312 C 130.589844 1.324219 129.386719 0.871094 128.230469 0.457031 C 127.359375 2.566406 126.425781 4.660156 125.453125 6.75 Z M 131.769531 5.695312 C 131.769531 5.714844 131.789062 5.734375 131.789062 5.734375 C 131.789062 5.714844 131.8125 5.714844 131.8125 5.695312 Z M 131.769531 5.695312 " fill-opacity="1" fill-rule="nonzero"/><path fill="#3f322c" d="M 141.316406 74.460938 C 137.359375 74.460938 133.40625 73.40625 130.007812 71.335938 C 129.203125 70.839844 128.414062 70.277344 127.648438 69.742188 C 126.53125 68.953125 125.351562 68.125 124.109375 67.503906 C 123.984375 67.441406 123.859375 67.378906 123.714844 67.316406 C 123.113281 67.027344 122.515625 66.738281 122.015625 66.28125 C 121.0625 66.820312 119.925781 67.046875 118.890625 66.964844 C 117.210938 66.839844 115.660156 66.117188 114.167969 65.414062 C 113.878906 65.269531 113.589844 65.144531 113.300781 65.019531 C 111.726562 64.316406 109.65625 63.570312 107.75 64.085938 C 107.128906 64.253906 106.507812 64.585938 105.90625 64.875 C 104.890625 65.390625 103.855469 65.910156 102.699219 65.804688 C 102.242188 65.765625 101.910156 65.621094 101.722656 65.351562 L 101.414062 65.804688 C 101.351562 65.890625 101.246094 65.910156 101.164062 65.867188 C 101.144531 65.847656 101.101562 65.828125 101.082031 65.804688 C 100.917969 66.21875 100.710938 66.613281 100.503906 67.007812 C 98.265625 71.023438 93.296875 73.386719 88.699219 72.640625 C 87.519531 72.453125 86.359375 72.082031 85.242188 71.707031 C 83.273438 71.066406 81.429688 70.464844 79.484375 70.753906 C 78.574219 70.878906 77.683594 71.210938 76.8125 71.542969 C 76.234375 71.75 75.632812 71.976562 75.03125 72.140625 C 73.003906 72.679688 70.808594 72.597656 68.84375 71.875 C 67.992188 71.5625 67.246094 71.148438 66.605469 70.652344 C 61.820312 73.59375 55.796875 74.296875 50.476562 72.433594 C 48.402344 71.707031 46.417969 70.609375 44.492188 69.554688 C 40.910156 67.585938 37.511719 65.722656 33.660156 66.011719 C 32.003906 66.136719 30.390625 66.675781 28.835938 67.214844 C 27.550781 67.648438 26.246094 68.082031 24.902344 68.3125 C 21.734375 68.828125 17.921875 67.523438 17.28125 64.5 C 17.261719 64.398438 17.324219 64.273438 17.449219 64.253906 C 17.550781 64.234375 17.675781 64.292969 17.695312 64.417969 C 18.277344 67.214844 21.859375 68.394531 24.839844 67.898438 C 26.164062 67.667969 27.449219 67.234375 28.710938 66.820312 C 30.304688 66.28125 31.941406 65.742188 33.640625 65.597656 C 37.617188 65.308594 41.21875 67.277344 44.699219 69.203125 C 46.601562 70.257812 48.589844 71.335938 50.621094 72.058594 C 55.777344 73.859375 61.636719 73.199219 66.292969 70.382812 C 65.820312 69.949219 65.425781 69.429688 65.136719 68.890625 C 64.328125 67.316406 64.597656 65.351562 65.757812 64.292969 C 66.398438 63.714844 67.390625 63.445312 68.304688 63.632812 C 69.132812 63.796875 69.773438 64.273438 70.105469 64.9375 C 70.933594 66.675781 69.484375 68.601562 67.972656 69.742188 C 67.640625 69.988281 67.308594 70.214844 66.976562 70.445312 C 67.539062 70.878906 68.21875 71.230469 68.964844 71.519531 C 70.851562 72.203125 72.960938 72.308594 74.910156 71.769531 C 75.507812 71.605469 76.089844 71.398438 76.667969 71.191406 C 77.558594 70.859375 78.46875 70.527344 79.421875 70.382812 C 81.453125 70.09375 83.441406 70.734375 85.367188 71.355469 C 86.484375 71.707031 87.621094 72.082031 88.761719 72.265625 C 93.191406 72.992188 97.957031 70.714844 100.128906 66.839844 C 101.019531 65.226562 101.496094 63.425781 101.953125 61.664062 L 104.210938 53.03125 C 104.125 52.988281 104.085938 52.886719 104.105469 52.78125 C 104.148438 52.65625 104.1875 52.53125 104.230469 52.410156 C 104.230469 52.367188 104.230469 52.347656 104.25 52.304688 C 104.25 52.285156 104.269531 52.265625 104.292969 52.265625 C 106.941406 44.332031 110.109375 36.484375 113.691406 28.925781 C 113.628906 28.96875 113.546875 28.988281 113.464844 28.949219 C 113.363281 28.90625 113.320312 28.78125 113.363281 28.679688 C 116.53125 21.015625 120.296875 13.5 124.523438 6.378906 C 124.542969 6.316406 124.605469 6.292969 124.667969 6.273438 C 124.730469 6.253906 124.792969 6.273438 124.832031 6.316406 C 124.914062 6.378906 125 6.460938 125.101562 6.523438 C 126.074219 4.410156 127.027344 2.277344 127.9375 0.144531 C 127.980469 0.0429688 128.105469 0 128.207031 0.0195312 C 129.511719 0.476562 130.839844 0.972656 132.101562 1.84375 C 132.183594 1.90625 132.203125 1.988281 132.183594 2.070312 C 131.851562 3.125 131.480469 4.183594 131.085938 5.21875 C 131.128906 5.21875 131.167969 5.238281 131.210938 5.257812 L 132.121094 5.300781 C 132.183594 5.300781 132.246094 5.34375 132.289062 5.40625 C 132.328125 5.464844 132.328125 5.527344 132.308594 5.589844 C 132.183594 5.902344 132.058594 6.191406 131.933594 6.5 C 131.914062 6.6875 131.894531 6.875 131.851562 7.0625 C 131.210938 9.898438 129.90625 12.546875 128.644531 15.117188 C 128.582031 15.21875 128.539062 15.34375 128.476562 15.445312 C 127.773438 17.414062 127.089844 19.402344 126.425781 21.371094 L 126.425781 21.390625 C 126.136719 22.261719 125.847656 23.171875 125.269531 23.917969 C 125.101562 24.125 124.894531 24.351562 124.667969 24.539062 C 124.273438 24.972656 123.695312 25.28125 123.09375 25.242188 L 120.753906 30.769531 C 120.710938 30.875 120.589844 30.914062 120.484375 30.875 L 120.402344 30.832031 L 109.199219 53.546875 C 109.199219 53.546875 109.179688 53.570312 109.179688 53.570312 C 109.136719 53.609375 109.097656 53.671875 109.074219 53.714844 L 109.363281 53.816406 C 109.425781 53.835938 109.46875 53.898438 109.488281 53.960938 C 109.511719 54.023438 109.488281 54.105469 109.449219 54.148438 C 109.425781 54.191406 109.386719 54.210938 109.363281 54.25 C 109.363281 54.25 109.363281 54.273438 109.363281 54.273438 C 109.386719 54.335938 109.386719 54.398438 109.34375 54.457031 L 102.035156 64.957031 C 102.054688 65 102.078125 65.039062 102.097656 65.082031 C 102.242188 65.289062 102.550781 65.351562 102.78125 65.371094 C 103.816406 65.476562 104.769531 64.976562 105.761719 64.480469 C 106.382812 64.171875 107.023438 63.839844 107.6875 63.652344 C 109.738281 63.09375 111.871094 63.859375 113.507812 64.605469 C 113.796875 64.730469 114.085938 64.875 114.375 65.019531 C 115.847656 65.703125 117.359375 66.40625 118.953125 66.53125 C 119.882812 66.59375 120.917969 66.40625 121.769531 65.949219 C 121.230469 65.269531 120.980469 64.253906 121.539062 63.507812 C 121.914062 63.011719 122.574219 62.949219 123.050781 63.09375 C 123.527344 63.238281 123.816406 63.589844 123.839844 64.027344 C 123.839844 64.046875 123.839844 64.066406 123.839844 64.085938 C 123.609375 64.914062 123.09375 65.578125 122.429688 66.035156 C 122.867188 66.40625 123.402344 66.675781 123.941406 66.925781 C 124.066406 66.988281 124.210938 67.046875 124.335938 67.109375 C 125.597656 67.753906 126.78125 68.582031 127.917969 69.386719 C 128.664062 69.925781 129.449219 70.464844 130.257812 70.960938 C 135.992188 74.460938 143.386719 75 149.578125 72.371094 C 149.679688 72.328125 149.804688 72.371094 149.847656 72.472656 C 149.886719 72.578125 149.847656 72.703125 149.742188 72.742188 C 147.050781 73.902344 144.195312 74.460938 141.316406 74.460938 Z M 67.722656 63.984375 C 67.101562 63.984375 66.480469 64.191406 66.046875 64.585938 C 65.03125 65.515625 64.785156 67.277344 65.507812 68.683594 C 65.777344 69.203125 66.171875 69.699219 66.667969 70.132812 C 67.039062 69.90625 67.390625 69.636719 67.746094 69.386719 C 69.109375 68.351562 70.476562 66.613281 69.753906 65.101562 C 69.484375 64.542969 68.945312 64.148438 68.242188 64.023438 C 68.074219 64.003906 67.890625 63.984375 67.722656 63.984375 Z M 122.574219 63.445312 C 122.308594 63.445312 122.015625 63.550781 121.851562 63.757812 C 121.417969 64.335938 121.644531 65.183594 122.101562 65.742188 C 122.722656 65.328125 123.195312 64.75 123.402344 64.003906 C 123.363281 63.671875 123.050781 63.527344 122.90625 63.488281 C 122.824219 63.464844 122.699219 63.445312 122.574219 63.445312 Z M 103.277344 61.871094 C 102.59375 62.617188 102.054688 63.402344 101.953125 64.316406 L 102.136719 64.046875 C 102.078125 63.984375 102.054688 63.878906 102.117188 63.796875 C 102.242188 63.609375 102.34375 63.402344 102.46875 63.21875 C 102.738281 62.78125 103.007812 62.328125 103.277344 61.871094 Z M 102.429688 61.851562 L 102.285156 62.453125 C 102.71875 61.808594 103.296875 61.230469 103.855469 60.691406 C 103.980469 60.566406 104.125 60.421875 104.25 60.296875 C 105.367188 58.476562 106.527344 56.632812 107.75 54.851562 C 107.832031 54.644531 107.914062 54.417969 107.976562 54.210938 C 107.75 54.128906 107.523438 54.042969 107.292969 53.960938 C 107.046875 54.148438 106.816406 54.417969 106.652344 54.644531 C 105.347656 56.613281 104.125 58.683594 103.050781 60.796875 C 102.90625 61.105469 102.738281 61.4375 102.574219 61.746094 C 102.53125 61.808594 102.492188 61.851562 102.429688 61.851562 Z M 104.3125 54.4375 L 102.84375 60.277344 C 103.648438 58.433594 104.148438 56.46875 104.3125 54.4375 Z M 104.769531 53.070312 C 104.769531 54.75 104.539062 56.425781 104.0625 58.042969 C 104.769531 56.820312 105.511719 55.597656 106.300781 54.417969 C 106.445312 54.210938 106.632812 53.984375 106.859375 53.777344 C 106.425781 53.589844 105.988281 53.382812 105.554688 53.175781 C 105.304688 53.132812 105.039062 53.09375 104.769531 53.070312 Z M 108.121094 55.058594 C 108.101562 55.101562 108.082031 55.140625 108.082031 55.183594 C 108.265625 54.933594 108.472656 54.6875 108.683594 54.4375 C 108.640625 54.4375 108.621094 54.417969 108.578125 54.398438 C 108.414062 54.625 108.265625 54.851562 108.121094 55.058594 Z M 108.535156 53.589844 L 108.621094 53.609375 C 108.683594 53.527344 108.722656 53.445312 108.785156 53.363281 L 119.96875 30.6875 L 119.613281 30.542969 C 115.949219 38.226562 112.140625 45.84375 108.246094 53.363281 C 108.328125 53.402344 108.414062 53.445312 108.496094 53.527344 C 108.515625 53.546875 108.535156 53.570312 108.535156 53.589844 Z M 104.851562 52.285156 L 107.769531 53.320312 C 107.792969 53.320312 107.792969 53.320312 107.8125 53.320312 C 111.726562 45.78125 115.535156 38.140625 119.222656 30.417969 L 115.078125 28.78125 C 111.394531 36.421875 107.957031 44.269531 104.808594 52.140625 C 104.851562 52.203125 104.851562 52.242188 104.851562 52.285156 Z M 114.355469 28.492188 C 111.851562 33.753906 109.550781 39.136719 107.480469 44.601562 C 109.757812 39.21875 112.179688 33.875 114.707031 28.617188 Z M 119.800781 30.191406 L 120.152344 30.335938 L 121.476562 27.664062 C 121.3125 27.664062 121.167969 27.664062 121.003906 27.664062 C 120.609375 28.492188 120.214844 29.339844 119.800781 30.191406 Z M 115.265625 28.410156 L 119.40625 30.046875 C 119.800781 29.238281 120.175781 28.429688 120.546875 27.644531 C 119.015625 27.539062 117.480469 27.207031 116.054688 26.628906 C 116.074219 26.671875 116.074219 26.734375 116.054688 26.792969 C 115.804688 27.3125 115.535156 27.871094 115.265625 28.410156 Z M 114.625 28.160156 L 114.871094 28.265625 C 114.976562 28.058594 115.078125 27.851562 115.183594 27.644531 Z M 115.410156 26.316406 C 115.246094 26.648438 115.078125 26.980469 114.933594 27.3125 L 115.742188 26.527344 C 115.761719 26.503906 115.785156 26.503906 115.804688 26.484375 C 115.660156 26.441406 115.535156 26.378906 115.410156 26.316406 Z M 121.210938 27.25 C 121.394531 27.25 121.582031 27.25 121.769531 27.25 L 122.636719 25.179688 C 122.535156 25.136719 122.492188 25.035156 122.515625 24.929688 C 122.535156 24.828125 122.636719 24.765625 122.742188 24.765625 C 122.761719 24.765625 122.78125 24.765625 122.824219 24.765625 L 128.683594 10.953125 C 126.261719 16.398438 123.757812 21.824219 121.210938 27.25 Z M 115.496094 25.902344 C 117.128906 26.691406 118.929688 27.125 120.753906 27.230469 C 123.652344 21.078125 126.488281 14.910156 129.222656 8.71875 C 127.816406 8.488281 126.46875 7.929688 125.289062 7.144531 C 122.308594 13.542969 119.035156 19.816406 115.496094 25.902344 Z M 124.792969 6.769531 C 121.148438 12.941406 117.855469 19.382812 114.976562 25.964844 C 118.578125 19.773438 121.933594 13.398438 124.9375 6.875 C 124.894531 6.855469 124.832031 6.8125 124.792969 6.769531 Z M 129.824219 8.367188 C 129.863281 8.367188 129.886719 8.367188 129.925781 8.386719 C 129.988281 8.386719 130.050781 8.425781 130.09375 8.488281 C 130.132812 8.550781 130.132812 8.613281 130.113281 8.675781 L 123.300781 24.765625 C 123.695312 24.703125 124.066406 24.496094 124.378906 24.269531 C 124.417969 24.226562 124.460938 24.164062 124.5 24.125 C 124.875 23.625 125.039062 22.984375 125.207031 22.363281 L 125.269531 22.136719 C 125.929688 19.753906 127.007812 17.476562 128.105469 15.28125 C 129.179688 12.300781 130.339844 9.339844 131.5625 6.417969 C 131.5625 6.273438 131.542969 6.128906 131.5 6.003906 C 131.4375 5.859375 131.3125 5.734375 131.167969 5.671875 L 131.066406 5.671875 C 130.609375 6.5625 130.214844 7.476562 129.824219 8.367188 Z M 126.675781 19.277344 C 126.28125 20.25 125.910156 21.222656 125.640625 22.238281 L 125.578125 22.46875 C 125.578125 22.488281 125.558594 22.527344 125.558594 22.550781 C 125.722656 22.136719 125.867188 21.699219 126.011719 21.265625 L 126.011719 21.246094 C 126.21875 20.582031 126.449219 19.921875 126.675781 19.277344 Z M 125.453125 6.75 C 126.613281 7.558594 127.980469 8.097656 129.367188 8.324219 L 130.421875 5.363281 C 130.445312 5.28125 130.527344 5.21875 130.609375 5.21875 C 131.003906 4.183594 131.375 3.125 131.707031 2.070312 C 130.589844 1.324219 129.386719 0.871094 128.230469 0.457031 C 127.359375 2.566406 126.425781 4.660156 125.453125 6.75 Z M 131.769531 5.695312 C 131.769531 5.714844 131.789062 5.734375 131.789062 5.734375 C 131.789062 5.714844 131.8125 5.714844 131.8125 5.695312 Z M 131.769531 5.695312 " fill-opacity="1" fill-rule="nonzero"/></g></svg>