<svg xmlns="http://www.w3.org/2000/svg" xmlns:xlink="http://www.w3.org/1999/xlink" width="500" zoomAndPan="magnify" viewBox="0 0 375 374.999991" height="500" preserveAspectRatio="xMidYMid meet" version="1.0"><path fill="#a14a21" d="M 375.003906 222.308594 L 375.003906 327.703125 C 375.003906 353.535156 354.015625 374.480469 328.128906 374.480469 L 46.878906 374.480469 C 20.988281 374.480469 0.00390625 353.535156 0.00390625 327.703125 L 0.00390625 222.308594 L 152.347656 243.144531 L 152.347656 253.625 C 152.347656 273.046875 168.089844 288.78125 187.503906 288.78125 C 206.917969 288.78125 222.660156 273.046875 222.660156 253.625 L 222.660156 243.144531 Z M 375.003906 140.582031 L 375.003906 198.78125 L 222.660156 219.613281 L 222.660156 216.308594 C 222.660156 196.890625 206.917969 181.152344 187.503906 181.152344 C 168.089844 181.152344 152.347656 196.890625 152.347656 216.308594 L 152.347656 219.613281 L 0.00390625 198.78125 L 0.00390625 140.582031 C 0.00390625 114.75 20.988281 93.804688 46.878906 93.804688 L 70.316406 93.804688 L 70.316406 47.027344 C 70.316406 21.195312 91.300781 0.25 117.191406 0.25 L 257.816406 0.25 C 283.703125 0.25 304.691406 21.195312 304.691406 47.027344 L 304.691406 93.804688 L 328.128906 93.804688 C 354.015625 93.804688 375.003906 114.75 375.003906 140.582031 Z M 187.503906 213.023438 C 193.253906 213.023438 197.917969 217.6875 197.917969 223.4375 L 197.917969 254.6875 C 197.917969 260.441406 193.253906 265.105469 187.503906 265.105469 C 181.75 265.105469 177.085938 260.441406 177.085938 254.6875 L 177.085938 223.4375 C 177.085938 217.6875 181.75 213.023438 187.503906 213.023438 Z M 101.078125 93.804688 L 273.929688 93.804688 L 273.929688 54.335938 C 273.929688 41.453125 263.421875 30.945312 250.492188 30.945312 L 124.515625 30.945312 C 111.59375 30.945312 101.078125 41.453125 101.078125 54.335938 Z M 101.078125 93.804688 " fill-opacity="1" fill-rule="evenodd"/></svg>