<svg xmlns="http://www.w3.org/2000/svg" xmlns:xlink="http://www.w3.org/1999/xlink" width="500" zoomAndPan="magnify" viewBox="0 0 375 374.999991" height="500" preserveAspectRatio="xMidYMid meet" version="1.0"><defs><clipPath id="4b94bc81fc"><path d="M 33.28125 0 L 340 0 L 340 371 L 33.28125 371 Z M 33.28125 0 " clip-rule="nonzero"/></clipPath></defs><g clip-path="url(#4b94bc81fc)"><path fill="#a14a21" d="M 186.304688 0.160156 C 187.765625 0.160156 189.222656 0.195312 190.683594 0.265625 C 192.144531 0.339844 193.597656 0.445312 195.054688 0.589844 C 196.507812 0.734375 197.957031 0.910156 199.402344 1.125 C 200.847656 1.339844 202.285156 1.589844 203.71875 1.875 C 205.152344 2.160156 206.578125 2.480469 207.996094 2.835938 C 209.410156 3.191406 210.820312 3.578125 212.21875 4.003906 C 213.617188 4.429688 215.003906 4.886719 216.378906 5.378906 C 217.753906 5.871094 219.117188 6.394531 220.464844 6.957031 C 221.816406 7.515625 223.152344 8.105469 224.472656 8.730469 C 225.792969 9.355469 227.097656 10.011719 228.386719 10.699219 C 229.675781 11.390625 230.945312 12.109375 232.199219 12.859375 C 233.453125 13.613281 234.6875 14.394531 235.898438 15.203125 C 237.113281 16.015625 238.308594 16.859375 239.484375 17.726562 C 240.65625 18.597656 241.808594 19.496094 242.9375 20.421875 C 244.066406 21.351562 245.171875 22.304688 246.253906 23.285156 C 247.335938 24.265625 248.394531 25.273438 249.429688 26.308594 C 250.460938 27.339844 251.46875 28.398438 252.449219 29.480469 C 253.429688 30.5625 254.386719 31.667969 255.3125 32.796875 C 256.238281 33.929688 257.136719 35.078125 258.007812 36.253906 C 258.878906 37.425781 259.71875 38.621094 260.53125 39.835938 C 261.34375 41.050781 262.125 42.285156 262.875 43.539062 C 263.625 44.789062 264.347656 46.0625 265.035156 47.347656 C 265.722656 48.636719 266.378906 49.941406 267.003906 51.261719 C 267.628906 52.585938 268.222656 53.917969 268.78125 55.269531 C 269.339844 56.617188 269.863281 57.980469 270.355469 59.355469 C 270.847656 60.734375 271.308594 62.121094 271.730469 63.519531 C 272.15625 64.914062 272.546875 66.324219 272.898438 67.742188 C 273.253906 69.15625 273.574219 70.582031 273.859375 72.015625 C 274.144531 73.449219 274.394531 74.886719 274.609375 76.332031 C 274.824219 77.777344 275.003906 79.226562 275.144531 80.683594 C 275.289062 82.136719 275.394531 83.59375 275.46875 85.050781 C 275.539062 86.511719 275.574219 87.972656 275.574219 89.433594 C 275.574219 89.636719 275.570312 89.84375 275.566406 90.050781 L 186.921875 178.695312 C 186.714844 178.695312 186.511719 178.703125 186.304688 178.703125 C 184.84375 178.703125 183.382812 178.667969 181.921875 178.597656 C 180.464844 178.527344 179.007812 178.417969 177.554688 178.273438 C 176.097656 178.132812 174.648438 177.953125 173.203125 177.738281 C 171.757812 177.523438 170.320312 177.273438 168.886719 176.988281 C 167.453125 176.703125 166.027344 176.382812 164.613281 176.03125 C 163.195312 175.675781 161.785156 175.285156 160.390625 174.859375 C 158.992188 174.4375 157.605469 173.976562 156.226562 173.484375 C 154.851562 172.992188 153.488281 172.46875 152.140625 171.910156 C 150.789062 171.351562 149.457031 170.757812 148.132812 170.132812 C 146.8125 169.507812 145.507812 168.851562 144.21875 168.164062 C 142.933594 167.476562 141.660156 166.753906 140.40625 166.003906 C 139.15625 165.253906 137.921875 164.472656 136.707031 163.660156 C 135.492188 162.847656 134.296875 162.007812 133.125 161.136719 C 131.949219 160.265625 130.800781 159.367188 129.667969 158.441406 C 128.539062 157.515625 127.433594 156.558594 126.351562 155.578125 C 125.269531 154.597656 124.210938 153.589844 123.179688 152.558594 C 122.144531 151.523438 121.136719 150.464844 120.15625 149.382812 C 119.175781 148.300781 118.222656 147.195312 117.292969 146.066406 C 116.367188 144.9375 115.46875 143.785156 114.597656 142.613281 C 113.730469 141.4375 112.886719 140.246094 112.074219 139.03125 C 111.265625 137.816406 110.484375 136.582031 109.730469 135.328125 C 108.980469 134.074219 108.261719 132.804688 107.570312 131.515625 C 106.882812 130.226562 106.226562 128.921875 105.601562 127.601562 C 104.976562 126.28125 104.386719 124.945312 103.828125 123.59375 C 103.265625 122.246094 102.742188 120.882812 102.25 119.507812 C 101.757812 118.132812 101.300781 116.746094 100.875 115.347656 C 100.449219 113.949219 100.0625 112.539062 99.707031 111.125 C 99.351562 109.707031 99.03125 108.28125 98.746094 106.847656 C 98.460938 105.414062 98.210938 103.976562 97.996094 102.53125 C 97.78125 101.085938 97.605469 99.636719 97.460938 98.183594 C 97.316406 96.730469 97.210938 95.273438 97.136719 93.8125 C 97.066406 92.351562 97.03125 90.894531 97.03125 89.433594 C 97.03125 87.972656 97.066406 86.511719 97.136719 85.050781 C 97.210938 83.59375 97.316406 82.136719 97.460938 80.683594 C 97.605469 79.226562 97.78125 77.777344 97.996094 76.332031 C 98.210938 74.886719 98.460938 73.449219 98.746094 72.015625 C 99.03125 70.582031 99.351562 69.15625 99.707031 67.742188 C 100.0625 66.324219 100.449219 64.914062 100.875 63.519531 C 101.300781 62.121094 101.757812 60.734375 102.25 59.355469 C 102.742188 57.980469 103.265625 56.617188 103.828125 55.269531 C 104.386719 53.917969 104.976562 52.585938 105.601562 51.261719 C 106.226562 49.941406 106.882812 48.636719 107.570312 47.347656 C 108.261719 46.0625 108.980469 44.789062 109.730469 43.539062 C 110.484375 42.285156 111.265625 41.050781 112.074219 39.835938 C 112.886719 38.621094 113.730469 37.425781 114.597656 36.253906 C 115.46875 35.078125 116.367188 33.929688 117.292969 32.796875 C 118.222656 31.667969 119.175781 30.5625 120.15625 29.480469 C 121.136719 28.398438 122.144531 27.339844 123.179688 26.308594 C 124.210938 25.273438 125.269531 24.265625 126.351562 23.285156 C 127.433594 22.304688 128.539062 21.351562 129.667969 20.421875 C 130.800781 19.496094 131.949219 18.597656 133.125 17.726562 C 134.296875 16.859375 135.492188 16.015625 136.707031 15.203125 C 137.921875 14.394531 139.15625 13.613281 140.40625 12.859375 C 141.660156 12.109375 142.933594 11.390625 144.21875 10.699219 C 145.507812 10.011719 146.8125 9.355469 148.132812 8.730469 C 149.457031 8.105469 150.789062 7.515625 152.140625 6.957031 C 153.488281 6.394531 154.851562 5.871094 156.226562 5.378906 C 157.605469 4.886719 158.992188 4.429688 160.390625 4.003906 C 161.785156 3.578125 163.195312 3.191406 164.613281 2.835938 C 166.027344 2.480469 167.453125 2.160156 168.886719 1.875 C 170.320312 1.589844 171.757812 1.339844 173.203125 1.125 C 174.648438 0.910156 176.097656 0.734375 177.554688 0.589844 C 179.007812 0.445312 180.464844 0.339844 181.921875 0.265625 C 183.382812 0.195312 184.84375 0.160156 186.304688 0.160156 Z M 144.351562 236.550781 L 158.175781 222.730469 L 192.585938 257.140625 L 178.761719 270.960938 C 178.398438 271.320312 177.980469 271.597656 177.507812 271.792969 C 177.035156 271.988281 176.542969 272.085938 176.03125 272.085938 C 175.519531 272.085938 175.027344 271.988281 174.554688 271.792969 C 174.082031 271.597656 173.664062 271.320312 173.300781 270.960938 L 144.351562 242.007812 C 143.988281 241.644531 143.710938 241.226562 143.515625 240.753906 C 143.320312 240.28125 143.222656 239.789062 143.222656 239.277344 C 143.222656 238.765625 143.320312 238.273438 143.515625 237.800781 C 143.710938 237.328125 143.988281 236.910156 144.351562 236.550781 Z M 165.816406 215.089844 L 200.222656 249.496094 L 332.242188 117.476562 C 332.804688 116.914062 333.339844 116.324219 333.84375 115.707031 C 334.347656 115.09375 334.820312 114.453125 335.261719 113.789062 C 335.707031 113.128906 336.113281 112.445312 336.488281 111.742188 C 336.863281 111.039062 337.203125 110.320312 337.507812 109.585938 C 337.8125 108.847656 338.078125 108.101562 338.308594 107.335938 C 338.539062 106.574219 338.730469 105.804688 338.886719 105.023438 C 339.042969 104.242188 339.160156 103.453125 339.234375 102.664062 C 339.3125 101.871094 339.351562 101.074219 339.351562 100.277344 C 339.351562 99.484375 339.3125 98.6875 339.234375 97.894531 C 339.15625 97.101562 339.039062 96.316406 338.882812 95.535156 C 338.726562 94.753906 338.53125 93.984375 338.300781 93.222656 C 338.070312 92.460938 337.800781 91.710938 337.496094 90.976562 C 337.191406 90.238281 336.851562 89.519531 336.476562 88.816406 C 336.101562 88.117188 335.691406 87.433594 335.25 86.773438 C 334.808594 86.109375 334.332031 85.46875 333.828125 84.855469 C 333.324219 84.238281 332.789062 83.648438 332.226562 83.085938 C 331.660156 82.523438 331.074219 81.988281 330.457031 81.484375 C 329.839844 80.980469 329.203125 80.503906 328.539062 80.0625 C 327.878906 79.621094 327.195312 79.210938 326.496094 78.835938 C 325.792969 78.460938 325.074219 78.121094 324.335938 77.816406 C 323.601562 77.511719 322.851562 77.242188 322.089844 77.011719 C 321.328125 76.78125 320.558594 76.585938 319.777344 76.429688 C 318.996094 76.273438 318.207031 76.15625 317.417969 76.078125 C 316.625 76 315.828125 75.960938 315.035156 75.960938 C 314.238281 75.960938 313.441406 76 312.648438 76.078125 C 311.855469 76.15625 311.070312 76.269531 310.289062 76.425781 C 309.507812 76.582031 308.738281 76.773438 307.972656 77.003906 C 307.210938 77.234375 306.464844 77.5 305.726562 77.804688 C 304.992188 78.109375 304.273438 78.449219 303.570312 78.824219 C 302.867188 79.199219 302.183594 79.609375 301.523438 80.050781 C 300.859375 80.492188 300.21875 80.964844 299.605469 81.46875 C 298.988281 81.972656 298.398438 82.507812 297.835938 83.070312 L 165.816406 215.085938 Z M 310.339844 97.332031 L 256.089844 151.582031 C 255.835938 151.832031 255.613281 152.105469 255.414062 152.402344 C 255.21875 152.695312 255.050781 153.007812 254.917969 153.335938 C 254.78125 153.664062 254.679688 154.003906 254.609375 154.351562 C 254.539062 154.699219 254.503906 155.050781 254.503906 155.40625 C 254.503906 155.757812 254.539062 156.109375 254.609375 156.460938 C 254.679688 156.808594 254.78125 157.144531 254.917969 157.472656 C 255.050781 157.800781 255.21875 158.113281 255.414062 158.40625 C 255.613281 158.703125 255.835938 158.976562 256.089844 159.226562 C 256.339844 159.476562 256.613281 159.703125 256.90625 159.898438 C 257.203125 160.09375 257.511719 160.261719 257.839844 160.398438 C 258.167969 160.535156 258.507812 160.636719 258.855469 160.707031 C 259.203125 160.773438 259.554688 160.808594 259.910156 160.808594 C 260.265625 160.808594 260.617188 160.773438 260.964844 160.707031 C 261.3125 160.636719 261.648438 160.535156 261.976562 160.398438 C 262.304688 160.261719 262.617188 160.09375 262.914062 159.898438 C 263.207031 159.703125 263.480469 159.476562 263.730469 159.226562 L 317.984375 104.976562 C 318.234375 104.722656 318.457031 104.453125 318.65625 104.15625 C 318.851562 103.859375 319.019531 103.550781 319.152344 103.222656 C 319.289062 102.894531 319.390625 102.554688 319.460938 102.207031 C 319.53125 101.859375 319.566406 101.507812 319.566406 101.152344 C 319.566406 100.796875 319.53125 100.449219 319.460938 100.097656 C 319.390625 99.75 319.289062 99.414062 319.152344 99.085938 C 319.019531 98.757812 318.851562 98.445312 318.65625 98.152344 C 318.457031 97.855469 318.234375 97.582031 317.984375 97.332031 C 317.730469 97.082031 317.457031 96.855469 317.164062 96.660156 C 316.867188 96.460938 316.558594 96.296875 316.230469 96.160156 C 315.902344 96.023438 315.5625 95.921875 315.214844 95.851562 C 314.867188 95.785156 314.515625 95.75 314.160156 95.75 C 313.804688 95.75 313.453125 95.785156 313.105469 95.851562 C 312.757812 95.921875 312.421875 96.023438 312.09375 96.160156 C 311.765625 96.296875 311.453125 96.460938 311.15625 96.660156 C 310.863281 96.855469 310.589844 97.082031 310.339844 97.332031 Z M 161.28125 274.226562 L 141.085938 254.027344 L 33.265625 361.847656 C 45.316406 373.898438 82.382812 375.015625 100.332031 357.066406 L 137.765625 319.636719 C 138.566406 318.835938 138.628906 300.96875 139.285156 296.226562 L 161.28125 274.230469 Z M 166.523438 38.316406 L 166.523438 69.652344 L 135.191406 69.652344 L 135.191406 109.214844 L 166.527344 109.214844 L 166.527344 140.546875 L 206.089844 140.546875 L 206.089844 109.214844 L 237.421875 109.214844 L 237.421875 69.652344 L 206.085938 69.652344 L 206.085938 38.316406 Z M 166.523438 38.316406 " fill-opacity="1" fill-rule="evenodd"/></g></svg>