<svg xmlns="http://www.w3.org/2000/svg" xmlns:xlink="http://www.w3.org/1999/xlink" width="500" zoomAndPan="magnify" viewBox="0 0 375 374.999991" height="500" preserveAspectRatio="xMidYMid meet" version="1.0"><defs><filter x="0%" y="0%" width="100%" height="100%" id="ccce3ee49e"><feColorMatrix values="0 0 0 0 1 0 0 0 0 1 0 0 0 0 1 0 0 0 1 0" color-interpolation-filters="sRGB"/></filter><mask id="d7d39c666d"><g filter="url(#ccce3ee49e)"><rect x="-37.5" width="450" fill="#000000" y="-37.499999" height="449.999989" fill-opacity="0.2"/></g></mask><clipPath id="fd54d42b8a"><path d="M 0.226562 1 L 259.726562 1 L 259.726562 374.878906 L 0.226562 374.878906 Z M 0.226562 1 " clip-rule="nonzero"/></clipPath><clipPath id="111d225777"><rect x="0" width="260" y="0" height="375"/></clipPath></defs><g mask="url(#d7d39c666d)"><g transform="matrix(1, 0, 0, 1, 115, 0)"><g clip-path="url(#111d225777)"><g clip-path="url(#fd54d42b8a)"><path fill="#e4b361" d="M 41.433594 105.585938 C 41.28125 104.828125 41.109375 104.054688 40.910156 103.296875 C 37.894531 91.25 27.003906 84.628906 14.988281 86.980469 C 13.65625 87.226562 3.542969 90.257812 1.578125 90.925781 C 1.128906 91.078125 0.898438 91.25 0.851562 91.28125 C 0.527344 91.574219 0.480469 91.882812 0.464844 92.085938 C 0.449219 92.363281 0.542969 92.625 0.714844 92.859375 C 5.648438 99.246094 14.894531 101.640625 22.132812 103.992188 C 27.792969 105.832031 33.609375 107.070312 39.488281 107.71875 C 41.449219 118.609375 40.539062 130.085938 40.539062 141.066406 C 40.539062 144.128906 40.136719 147.578125 40.460938 150.761719 C 40.832031 154.242188 42.054688 157.414062 45.332031 159.53125 C 47.421875 160.894531 50.4375 161.667969 53.792969 161.835938 C 57.363281 162.007812 61.324219 161.511719 64.898438 160.367188 C 65.421875 164.976562 66.367188 169.863281 68.066406 174.242188 C 66.800781 174.285156 65.453125 174.394531 64.386719 174.613281 C 63.535156 174.78125 62.839844 175.042969 62.34375 175.371094 C 61.851562 175.695312 61.511719 176.113281 61.355469 176.574219 C 60.84375 178.074219 61.15625 179.824219 61.898438 181.570312 C 62.839844 183.796875 64.449219 186.039062 65.238281 187.664062 C 65.871094 188.980469 66.195312 190.355469 66.582031 191.703125 C 67.03125 193.25 67.574219 194.75 68.578125 196.140625 C 71.175781 199.757812 74.609375 201.273438 78.335938 201.601562 C 78.523438 202.078125 78.675781 202.527344 78.753906 202.945312 C 79.914062 209.457031 81.199219 213.988281 83.828125 217.605469 C 86.472656 221.257812 90.476562 224.011719 97.160156 226.871094 C 108.308594 231.679688 118.609375 228 129.4375 223.949219 C 145.476562 217.949219 159.300781 204.460938 169.601562 188.933594 C 174.550781 197.6875 177.320312 206.65625 173.253906 216.121094 C 166.789062 231.234375 154.261719 238.039062 140.339844 243.140625 C 126.050781 248.382812 110.304688 251.832031 97.792969 260.140625 C 92.75 263.480469 88.558594 267.75 84.585938 272.25 C 80.890625 276.441406 77.253906 280.738281 75.027344 285.9375 C 68.207031 301.882812 70.527344 317.164062 76.109375 331.933594 C 81.601562 346.441406 90.246094 360.46875 96.214844 374.15625 C 96.464844 374.742188 97.144531 375.003906 97.730469 374.742188 C 98.320312 374.496094 98.582031 373.816406 98.335938 373.226562 C 92.378906 359.570312 83.75 345.589844 78.273438 331.113281 C 72.910156 316.898438 70.605469 302.191406 77.160156 286.847656 C 79.296875 281.882812 82.792969 277.800781 86.332031 273.796875 C 90.167969 269.433594 94.207031 265.289062 99.078125 262.070312 C 111.433594 253.875 127.023438 250.503906 141.144531 245.324219 C 155.652344 240.003906 168.628906 232.792969 175.386719 217.035156 C 179.902344 206.488281 176.65625 196.480469 171.011719 186.769531 C 177.367188 176.761719 182.253906 166.027344 185.363281 155.976562 C 187.375 149.511719 189.785156 138.761719 189.601562 129.15625 C 189.460938 122.535156 188.070312 116.460938 184.589844 112.546875 C 180.476562 107.890625 176.375 105.941406 172.511719 105.820312 C 168.613281 105.695312 164.917969 107.441406 161.605469 110.410156 C 152.15625 118.902344 145.863281 137.476562 146.820312 147.265625 C 147.949219 158.757812 157.277344 170.066406 165.039062 181.632812 C 166.167969 183.320312 167.265625 185.019531 168.304688 186.722656 C 158.21875 202.25 144.5625 215.8125 128.617188 221.78125 C 118.378906 225.617188 108.636719 229.285156 98.070312 224.753906 C 91.902344 222.09375 88.15625 219.617188 85.714844 216.246094 C 83.253906 212.859375 82.109375 208.621094 81.027344 202.542969 C 80.980469 202.265625 80.90625 201.957031 80.796875 201.644531 L 80.875 201.644531 C 85.296875 201.460938 89.96875 199.929688 93.957031 198.660156 C 94.34375 198.539062 105.558594 194.53125 107.523438 193.261719 C 108.542969 192.597656 108.339844 191.6875 108.15625 191.375 C 108.015625 191.160156 107.816406 190.945312 107.523438 190.757812 C 107.152344 190.527344 106.59375 190.324219 105.914062 190.171875 C 104.148438 189.816406 101.457031 189.785156 100.6875 189.722656 C 97.46875 189.457031 91.53125 189.117188 86.394531 189.785156 C 82.730469 190.261719 79.480469 191.285156 77.71875 193.078125 C 76.511719 194.300781 76.375 195.878906 76.789062 197.5625 C 76.914062 198.074219 77.101562 198.597656 77.300781 199.109375 C 74.6875 198.644531 72.320312 197.378906 70.449219 194.792969 C 69.613281 193.621094 69.195312 192.351562 68.808594 191.050781 C 68.390625 189.582031 68.019531 188.082031 67.324219 186.644531 C 66.550781 185.050781 64.960938 182.855469 64.03125 180.675781 C 63.550781 179.515625 63.226562 178.371094 63.535156 177.363281 C 63.597656 177.332031 63.832031 177.179688 64.015625 177.117188 C 64.542969 176.914062 65.207031 176.792969 65.949219 176.714844 C 66.9375 176.589844 68.019531 176.527344 69.042969 176.5 C 69.382812 177.226562 69.738281 177.9375 70.140625 178.617188 C 72.941406 183.519531 77.054688 187.214844 83.023438 188.34375 C 89.550781 189.582031 95.753906 187.464844 102.21875 187.046875 C 102.960938 187 110.523438 186.179688 112.007812 185.964844 C 112.441406 185.902344 112.6875 185.761719 112.71875 185.730469 C 113.042969 185.515625 113.152344 185.265625 113.199219 185.066406 C 113.257812 184.835938 113.257812 184.585938 113.167969 184.371094 C 113.027344 184 112.75 183.613281 112.300781 183.242188 C 111.851562 182.871094 111.203125 182.5 110.414062 182.144531 C 107.753906 180.9375 103.515625 179.886719 102.277344 179.546875 C 93.105469 176.976562 81.816406 172.523438 72.226562 174.085938 C 71.902344 174.132812 71.300781 174.148438 70.542969 174.164062 L 70.449219 173.976562 C 68.609375 169.460938 67.648438 164.34375 67.140625 159.546875 C 67.664062 159.332031 68.175781 159.097656 68.671875 158.851562 C 73.835938 156.269531 77.285156 152.078125 76.386719 146.554688 C 76.0625 144.546875 74.5 143.308594 72.644531 142.921875 C 70.882812 142.566406 68.902344 143.015625 67.648438 144.21875 C 65.191406 146.585938 64.261719 151.101562 64.433594 154.429688 C 64.480469 155.574219 64.558594 156.777344 64.664062 158 C 61.230469 159.175781 57.363281 159.6875 53.917969 159.515625 C 51.007812 159.378906 48.394531 158.757812 46.601562 157.582031 C 43.972656 155.882812 43.058594 153.316406 42.765625 150.515625 C 42.441406 147.421875 42.859375 144.050781 42.859375 141.066406 C 42.859375 130.160156 43.707031 118.792969 41.882812 107.953125 C 57.90625 109.296875 74.253906 106.3125 88.855469 99.429688 C 128.449219 80.730469 158.003906 46.566406 195.167969 23.707031 C 212.953125 12.757812 236.972656 2.367188 258.441406 4.144531 C 259.074219 4.207031 259.628906 3.726562 259.675781 3.09375 C 259.738281 2.457031 259.257812 1.886719 258.625 1.839844 C 236.695312 0.015625 212.132812 10.546875 193.960938 21.730469 C 156.859375 44.542969 127.378906 78.675781 87.863281 97.328125 C 73.433594 104.148438 57.257812 107.023438 41.433594 105.585938 Z M 104.289062 192.273438 C 102.773438 192.105469 101.085938 192.089844 100.5 192.042969 C 97.390625 191.777344 91.652344 191.4375 86.6875 192.089844 C 83.625 192.476562 80.84375 193.203125 79.359375 194.703125 C 78.539062 195.535156 78.878906 196.695312 79.296875 197.871094 C 79.464844 198.367188 79.667969 198.863281 79.882812 199.339844 C 80.175781 199.339844 80.472656 199.339844 80.78125 199.328125 C 84.988281 199.140625 89.441406 197.65625 93.246094 196.449219 C 93.554688 196.355469 100.578125 193.882812 104.289062 192.273438 Z M 108.867188 184.015625 C 106.332031 182.964844 102.757812 182.082031 101.660156 181.773438 C 92.78125 179.296875 81.878906 174.875 72.597656 176.375 C 72.382812 176.40625 72.027344 176.421875 71.59375 176.4375 C 74.070312 181.246094 77.796875 184.988281 83.457031 186.070312 C 89.78125 187.261719 95.796875 185.144531 102.078125 184.726562 C 102.558594 184.695312 106.160156 184.308594 108.867188 184.015625 Z M 169.679688 184.554688 C 175.617188 175.011719 180.195312 164.835938 183.152344 155.292969 C 185.101562 149 187.464844 138.542969 187.28125 129.203125 C 187.15625 123.1875 186.011719 117.632812 182.855469 114.078125 C 179.285156 110.054688 175.789062 108.246094 172.433594 108.136719 C 169.125 108.03125 165.984375 109.609375 163.167969 112.144531 C 154.199219 120.1875 148.226562 137.769531 149.140625 147.035156 C 150.222656 158.203125 159.425781 169.105469 166.957031 180.347656 C 167.902344 181.742188 168.8125 183.148438 169.679688 184.554688 Z M 66.921875 157.121094 C 67.15625 157.011719 67.386719 156.902344 67.632812 156.777344 C 71.824219 154.675781 74.828125 151.414062 74.097656 146.925781 C 73.929688 145.9375 73.09375 145.378906 72.183594 145.195312 C 71.144531 144.992188 69.984375 145.195312 69.257812 145.890625 C 67.234375 147.839844 66.613281 151.582031 66.738281 154.320312 C 66.785156 155.21875 66.847656 156.160156 66.921875 157.121094 Z M 39.007812 105.339844 C 38.898438 104.84375 38.789062 104.347656 38.667969 103.871094 C 35.960938 93.074219 26.199219 87.152344 15.4375 89.253906 C 14.324219 89.46875 6.960938 91.652344 3.636719 92.703125 C 8.492188 97.777344 16.519531 99.726562 22.84375 101.78125 C 28.117188 103.5 33.546875 104.675781 39.007812 105.339844 Z M 39.007812 105.339844 " fill-opacity="1" fill-rule="evenodd"/></g></g></g></g></svg>