<svg xmlns="http://www.w3.org/2000/svg" xmlns:xlink="http://www.w3.org/1999/xlink" width="300" zoomAndPan="magnify" viewBox="0 0 224.87999 30.000001" height="40" preserveAspectRatio="xMidYMid meet" version="1.0"><defs><clipPath id="d1ca90418b"><path d="M 116 11.25 L 221.195312 11.25 L 221.195312 17.78125 L 116 17.78125 Z M 116 11.25 " clip-rule="nonzero"/></clipPath><clipPath id="f9a20c28af"><path d="M 3.570312 11.25 L 109 11.25 L 109 17.78125 L 3.570312 17.78125 Z M 3.570312 11.25 " clip-rule="nonzero"/></clipPath><clipPath id="d38247e997"><path d="M 109 11.25 L 116 11.25 L 116 17.78125 L 109 17.78125 Z M 109 11.25 " clip-rule="nonzero"/></clipPath></defs><g clip-path="url(#d1ca90418b)"><path fill="#e4b361" d="M 220.917969 14.167969 L 157.265625 14.167969 L 119.777344 11.335938 L 116.597656 14.515625 L 119.777344 17.695312 L 157.265625 14.863281 L 220.960938 14.863281 C 221.136719 14.863281 221.3125 14.734375 221.3125 14.515625 C 221.3125 14.296875 221.136719 14.167969 220.917969 14.167969 Z M 220.917969 14.167969 " fill-opacity="1" fill-rule="nonzero"/></g><g clip-path="url(#f9a20c28af)"><path fill="#e4b361" d="M 67.574219 14.167969 L 3.917969 14.167969 C 3.699219 14.167969 3.570312 14.34375 3.570312 14.515625 C 3.570312 14.691406 3.699219 14.863281 3.917969 14.863281 L 67.574219 14.863281 L 105.058594 17.695312 L 108.238281 14.515625 L 105.058594 11.335938 Z M 67.574219 14.167969 " fill-opacity="1" fill-rule="nonzero"/></g><g clip-path="url(#d38247e997)"><path fill="#e4b361" d="M 115.117188 14.515625 C 115.117188 14.875 115.050781 15.21875 114.914062 15.550781 C 114.773438 15.878906 114.582031 16.171875 114.328125 16.425781 C 114.074219 16.679688 113.78125 16.875 113.453125 17.011719 C 113.121094 17.148438 112.777344 17.214844 112.417969 17.214844 C 112.058594 17.214844 111.714844 17.148438 111.386719 17.011719 C 111.054688 16.875 110.761719 16.679688 110.507812 16.425781 C 110.257812 16.171875 110.0625 15.878906 109.925781 15.550781 C 109.789062 15.21875 109.71875 14.875 109.71875 14.515625 C 109.71875 14.15625 109.789062 13.8125 109.925781 13.484375 C 110.0625 13.152344 110.257812 12.859375 110.507812 12.605469 C 110.761719 12.355469 111.054688 12.160156 111.386719 12.023438 C 111.714844 11.886719 112.058594 11.816406 112.417969 11.816406 C 112.777344 11.816406 113.121094 11.886719 113.453125 12.023438 C 113.78125 12.160156 114.074219 12.355469 114.328125 12.605469 C 114.582031 12.859375 114.773438 13.152344 114.914062 13.484375 C 115.050781 13.8125 115.117188 14.15625 115.117188 14.515625 Z M 115.117188 14.515625 " fill-opacity="1" fill-rule="nonzero"/></g></svg>