<svg xmlns="http://www.w3.org/2000/svg" xmlns:xlink="http://www.w3.org/1999/xlink" width="300" zoomAndPan="magnify" viewBox="0 0 224.87999 225" height="300" preserveAspectRatio="xMidYMid meet" version="1.0"><defs><clipPath id="773cdbefec"><path d="M 90.167969 147.492188 L 127.644531 147.492188 L 127.644531 184.972656 L 90.167969 184.972656 Z M 90.167969 147.492188 " clip-rule="nonzero"/></clipPath><clipPath id="3159fa5fa4"><path d="M 3 32.246094 L 221 32.246094 L 221 121 L 3 121 Z M 3 32.246094 " clip-rule="nonzero"/></clipPath><clipPath id="64c6cdce9c"><path d="M 0 59 L 224.761719 59 L 224.761719 192.660156 L 0 192.660156 Z M 0 59 " clip-rule="nonzero"/></clipPath></defs><g clip-path="url(#773cdbefec)"><path fill="#99b83c" d="M 127.644531 166.230469 C 127.644531 166.847656 127.617188 167.457031 127.554688 168.070312 C 127.496094 168.679688 127.40625 169.285156 127.285156 169.886719 C 127.167969 170.488281 127.019531 171.085938 126.839844 171.671875 C 126.660156 172.257812 126.453125 172.835938 126.21875 173.402344 C 125.984375 173.96875 125.722656 174.523438 125.433594 175.066406 C 125.144531 175.605469 124.828125 176.132812 124.488281 176.644531 C 124.148438 177.152344 123.78125 177.644531 123.390625 178.121094 C 123.003906 178.59375 122.589844 179.050781 122.15625 179.484375 C 121.722656 179.917969 121.269531 180.328125 120.792969 180.71875 C 120.320312 181.109375 119.828125 181.472656 119.316406 181.8125 C 118.808594 182.15625 118.28125 182.46875 117.742188 182.757812 C 117.199219 183.046875 116.644531 183.3125 116.078125 183.546875 C 115.511719 183.78125 114.933594 183.988281 114.347656 184.164062 C 113.757812 184.34375 113.164062 184.492188 112.5625 184.613281 C 111.960938 184.730469 111.355469 184.820312 110.742188 184.882812 C 110.132812 184.941406 109.519531 184.972656 108.90625 184.972656 C 108.292969 184.972656 107.679688 184.941406 107.070312 184.882812 C 106.457031 184.820312 105.851562 184.730469 105.25 184.613281 C 104.648438 184.492188 104.054688 184.34375 103.464844 184.164062 C 102.878906 183.988281 102.300781 183.78125 101.734375 183.546875 C 101.167969 183.3125 100.613281 183.046875 100.074219 182.757812 C 99.53125 182.46875 99.003906 182.15625 98.496094 181.8125 C 97.984375 181.472656 97.492188 181.109375 97.019531 180.71875 C 96.542969 180.328125 96.089844 179.917969 95.65625 179.484375 C 95.222656 179.050781 94.808594 178.59375 94.421875 178.121094 C 94.03125 177.644531 93.664062 177.152344 93.324219 176.644531 C 92.984375 176.132812 92.667969 175.605469 92.378906 175.066406 C 92.089844 174.523438 91.828125 173.96875 91.59375 173.402344 C 91.359375 172.835938 91.152344 172.257812 90.972656 171.671875 C 90.796875 171.085938 90.644531 170.488281 90.527344 169.886719 C 90.40625 169.285156 90.316406 168.679688 90.257812 168.070312 C 90.195312 167.457031 90.167969 166.847656 90.167969 166.230469 C 90.167969 165.617188 90.195312 165.007812 90.257812 164.394531 C 90.316406 163.785156 90.40625 163.179688 90.527344 162.574219 C 90.644531 161.972656 90.796875 161.378906 90.972656 160.792969 C 91.152344 160.203125 91.359375 159.628906 91.59375 159.0625 C 91.828125 158.492188 92.089844 157.9375 92.378906 157.398438 C 92.667969 156.855469 92.984375 156.332031 93.324219 155.820312 C 93.664062 155.308594 94.03125 154.816406 94.421875 154.34375 C 94.808594 153.867188 95.222656 153.414062 95.65625 152.980469 C 96.089844 152.546875 96.542969 152.136719 97.019531 151.746094 C 97.492188 151.355469 97.984375 150.992188 98.496094 150.648438 C 99.003906 150.308594 99.53125 149.996094 100.074219 149.703125 C 100.613281 149.414062 101.167969 149.152344 101.734375 148.917969 C 102.300781 148.683594 102.878906 148.476562 103.464844 148.300781 C 104.054688 148.121094 104.648438 147.972656 105.25 147.851562 C 105.851562 147.730469 106.457031 147.640625 107.070312 147.582031 C 107.679688 147.523438 108.292969 147.492188 108.90625 147.492188 C 109.519531 147.492188 110.132812 147.523438 110.742188 147.582031 C 111.355469 147.640625 111.960938 147.730469 112.5625 147.851562 C 113.164062 147.972656 113.757812 148.121094 114.347656 148.300781 C 114.933594 148.476562 115.511719 148.683594 116.078125 148.917969 C 116.644531 149.152344 117.199219 149.414062 117.742188 149.703125 C 118.28125 149.996094 118.808594 150.308594 119.316406 150.648438 C 119.828125 150.992188 120.320312 151.355469 120.792969 151.746094 C 121.269531 152.136719 121.722656 152.546875 122.15625 152.980469 C 122.589844 153.414062 123.003906 153.867188 123.390625 154.34375 C 123.78125 154.816406 124.148438 155.308594 124.488281 155.820312 C 124.828125 156.332031 125.144531 156.855469 125.433594 157.398438 C 125.722656 157.9375 125.984375 158.492188 126.21875 159.0625 C 126.453125 159.628906 126.660156 160.203125 126.839844 160.792969 C 127.015625 161.378906 127.167969 161.972656 127.285156 162.574219 C 127.40625 163.179688 127.496094 163.785156 127.554688 164.394531 C 127.617188 165.007812 127.644531 165.617188 127.644531 166.230469 Z M 127.644531 166.230469 " fill-opacity="1" fill-rule="nonzero"/></g><path fill="#ffffff" d="M 104.257812 179.15625 L 94.039062 168.9375 L 98.109375 164.863281 L 104.257812 171.011719 L 119.699219 155.570312 L 123.773438 159.640625 Z M 104.257812 179.15625 " fill-opacity="1" fill-rule="nonzero"/><g clip-path="url(#3159fa5fa4)"><path fill="#dbaf6d" d="M 97.730469 115.132812 C 98.777344 115.9375 99.882812 116.648438 101.046875 117.269531 C 102.207031 117.894531 103.414062 118.417969 104.664062 118.839844 C 105.914062 119.265625 107.191406 119.585938 108.492188 119.800781 C 109.792969 120.015625 111.105469 120.121094 112.425781 120.121094 C 113.742188 120.121094 115.054688 120.015625 116.355469 119.800781 C 117.65625 119.585938 118.933594 119.265625 120.183594 118.839844 C 121.433594 118.417969 122.640625 117.894531 123.804688 117.269531 C 124.964844 116.648438 126.070312 115.9375 127.117188 115.132812 L 220.375 42.46875 C 219.265625 40.890625 217.988281 39.464844 216.539062 38.195312 C 215.085938 36.925781 213.507812 35.84375 211.796875 34.953125 C 210.085938 34.066406 208.292969 33.390625 206.421875 32.933594 C 204.546875 32.476562 202.648438 32.246094 200.71875 32.246094 L 24.160156 32.246094 C 22.117188 32.25 20.109375 32.511719 18.132812 33.027344 C 16.15625 33.546875 14.277344 34.304688 12.492188 35.300781 C 10.710938 36.296875 9.082031 37.503906 7.605469 38.914062 C 6.132812 40.328125 4.855469 41.902344 3.785156 43.640625 Z M 97.730469 115.132812 " fill-opacity="1" fill-rule="nonzero"/></g><g clip-path="url(#64c6cdce9c)"><path fill="#dbaf6d" d="M 136.949219 127.851562 C 136.078125 128.519531 135.183594 129.152344 134.261719 129.746094 C 133.339844 130.34375 132.394531 130.898438 131.425781 131.414062 C 130.460938 131.933594 129.472656 132.410156 128.464844 132.847656 C 127.460938 133.285156 126.4375 133.679688 125.398438 134.03125 C 124.359375 134.382812 123.308594 134.695312 122.242188 134.960938 C 121.179688 135.226562 120.105469 135.449219 119.023438 135.628906 C 117.941406 135.808594 116.851562 135.941406 115.757812 136.03125 C 114.664062 136.121094 113.570312 136.167969 112.472656 136.167969 C 111.375 136.167969 110.28125 136.121094 109.1875 136.03125 C 108.09375 135.941406 107.003906 135.808594 105.921875 135.628906 C 104.839844 135.449219 103.765625 135.226562 102.703125 134.960938 C 101.636719 134.695312 100.585938 134.382812 99.546875 134.03125 C 98.507812 133.679688 97.484375 133.285156 96.476562 132.847656 C 95.472656 132.410156 94.484375 131.933594 93.515625 131.414062 C 92.550781 130.898438 91.605469 130.34375 90.683594 129.746094 C 89.761719 129.152344 88.863281 128.519531 87.996094 127.851562 L 0.0859375 61 L 0.0859375 168.679688 C 0.0859375 169.464844 0.121094 170.253906 0.199219 171.039062 C 0.277344 171.824219 0.394531 172.601562 0.546875 173.375 C 0.699219 174.148438 0.890625 174.914062 1.121094 175.667969 C 1.351562 176.421875 1.617188 177.164062 1.917969 177.890625 C 2.21875 178.621094 2.554688 179.332031 2.925781 180.027344 C 3.300781 180.722656 3.703125 181.398438 4.140625 182.054688 C 4.578125 182.710938 5.050781 183.34375 5.550781 183.953125 C 6.050781 184.5625 6.578125 185.144531 7.136719 185.703125 C 7.695312 186.261719 8.277344 186.789062 8.886719 187.289062 C 9.496094 187.789062 10.128906 188.257812 10.785156 188.695312 C 11.441406 189.132812 12.117188 189.539062 12.8125 189.910156 C 13.507812 190.28125 14.21875 190.621094 14.945312 190.921875 C 15.675781 191.222656 16.417969 191.488281 17.171875 191.71875 C 17.925781 191.945312 18.691406 192.136719 19.464844 192.292969 C 20.238281 192.445312 21.015625 192.5625 21.800781 192.636719 C 22.585938 192.714844 23.371094 192.753906 24.160156 192.753906 L 200.71875 192.753906 C 201.507812 192.753906 202.292969 192.714844 203.078125 192.636719 C 203.863281 192.5625 204.644531 192.445312 205.417969 192.292969 C 206.191406 192.136719 206.953125 191.945312 207.707031 191.71875 C 208.464844 191.488281 209.203125 191.222656 209.933594 190.921875 C 210.660156 190.621094 211.375 190.28125 212.070312 189.910156 C 212.765625 189.539062 213.441406 189.132812 214.09375 188.695312 C 214.75 188.257812 215.382812 187.789062 215.992188 187.289062 C 216.601562 186.789062 217.1875 186.261719 217.742188 185.703125 C 218.300781 185.144531 218.832031 184.5625 219.332031 183.953125 C 219.832031 183.34375 220.300781 182.710938 220.738281 182.054688 C 221.175781 181.398438 221.582031 180.722656 221.953125 180.027344 C 222.324219 179.332031 222.660156 178.621094 222.964844 177.890625 C 223.265625 177.164062 223.53125 176.421875 223.757812 175.667969 C 223.988281 174.914062 224.179688 174.148438 224.332031 173.375 C 224.488281 172.601562 224.601562 171.824219 224.679688 171.039062 C 224.757812 170.253906 224.796875 169.464844 224.796875 168.679688 L 224.796875 59.410156 Z M 136.949219 127.851562 " fill-opacity="1" fill-rule="nonzero"/></g></svg>