<svg xmlns="http://www.w3.org/2000/svg" xmlns:xlink="http://www.w3.org/1999/xlink" width="200" zoomAndPan="magnify" viewBox="0 0 150 74.999997" height="100" preserveAspectRatio="xMidYMid meet" version="1.0"><defs><clipPath id="92ddecd6fd"><path d="M 0 2 L 150 2 L 150 74.09375 L 0 74.09375 Z M 0 2 " clip-rule="nonzero"/></clipPath></defs><g clip-path="url(#92ddecd6fd)"><path fill="#3f322c" d="M 149.835938 74.394531 L 79.097656 74.394531 C 78.78125 74.394531 78.558594 74.3125 78.417969 74.140625 C 78.160156 73.820312 78.269531 73.304688 78.394531 72.707031 C 78.492188 72.25 78.605469 71.726562 78.523438 71.308594 C 78.46875 71.03125 78.378906 70.804688 78.277344 70.617188 L 77.519531 71.019531 C 77.464844 71.046875 77.402344 71.042969 77.351562 71.007812 C 77.300781 70.972656 77.273438 70.914062 77.28125 70.855469 L 77.421875 69.71875 C 77.425781 69.667969 77.457031 69.621094 77.5 69.597656 C 77.542969 69.570312 77.597656 69.566406 77.644531 69.585938 C 77.667969 69.59375 78.050781 69.746094 78.386719 70.1875 L 78.75 69.996094 C 78.667969 69.757812 78.535156 69.675781 78.355469 69.566406 C 78.121094 69.417969 77.828125 69.238281 77.640625 68.664062 C 77.53125 68.335938 76.925781 67.203125 73.660156 66.4375 C 72.210938 66.097656 71.207031 65.300781 70.90625 64.25 C 70.664062 63.414062 70.761719 62.03125 72.585938 60.191406 C 75.691406 57.0625 81.824219 57.089844 84.179688 58.765625 C 84.566406 59.042969 84.933594 59.304688 85.28125 59.546875 C 85.472656 59.316406 85.667969 59.085938 85.863281 58.851562 C 84.675781 57.371094 81.816406 57.394531 79.667969 57.410156 C 79.511719 57.414062 79.363281 57.414062 79.214844 57.414062 C 79.210938 57.414062 79.207031 57.414062 79.203125 57.414062 C 76.660156 57.414062 73.84375 54.738281 71.664062 50.246094 C 71.503906 49.914062 71.332031 49.609375 71.152344 49.335938 C 71.066406 50.042969 70.558594 50.675781 69.695312 51.148438 C 69.261719 51.382812 68.710938 51.648438 68.074219 51.957031 C 65.964844 52.976562 63.035156 54.394531 61.308594 56.191406 C 61.3125 56.25 61.316406 56.308594 61.320312 56.363281 C 61.464844 58.902344 61.613281 61.527344 61.351562 65.089844 C 61.316406 65.5625 61.246094 65.863281 61.128906 66.027344 C 62.621094 66.386719 64.050781 66.742188 65.304688 67.078125 C 67.777344 67.742188 70.566406 68.921875 72.804688 69.867188 C 74.273438 70.488281 75.542969 71.023438 76.257812 71.214844 C 76.867188 71.371094 76.992188 71.644531 76.992188 71.84375 C 76.992188 72.296875 76.34375 72.714844 75.730469 72.875 C 75.472656 72.941406 75.339844 73.050781 75.195312 73.164062 C 74.871094 73.429688 74.5625 73.675781 73.148438 73.453125 C 72.082031 73.28125 71.125 72.976562 70.167969 72.625 C 70.167969 72.6875 70.152344 72.75 70.125 72.808594 C 69.753906 73.59375 67.71875 73.933594 65.171875 73.636719 C 62.59375 73.335938 61.8125 73.300781 56.742188 73.453125 C 53.839844 73.542969 51.972656 72.917969 50.328125 72.363281 C 49.105469 71.953125 48.046875 71.597656 46.8125 71.628906 C 45.992188 71.652344 44.617188 71.878906 42.714844 72.199219 C 37.789062 73.019531 29.542969 74.394531 17.953125 74.394531 L 0.164062 74.394531 C 0.0742188 74.394531 0 74.324219 0 74.230469 C 0 74.140625 0.0742188 74.066406 0.164062 74.066406 L 17.953125 74.066406 C 29.515625 74.066406 37.742188 72.695312 42.660156 71.875 C 44.578125 71.554688 45.960938 71.324219 46.804688 71.300781 C 48.101562 71.269531 49.179688 71.632812 50.429688 72.054688 C 52.050781 72.597656 53.886719 73.214844 56.730469 73.125 C 61.824219 72.96875 62.613281 73.007812 65.210938 73.3125 C 67.769531 73.609375 69.566406 73.21875 69.828125 72.667969 C 69.847656 72.628906 69.84375 72.597656 69.824219 72.558594 C 69.804688 72.527344 69.78125 72.496094 69.746094 72.464844 C 69.53125 72.382812 69.3125 72.300781 69.089844 72.214844 C 68.886719 72.132812 68.679688 72.054688 68.464844 71.972656 C 67.890625 71.835938 67.164062 71.71875 66.335938 71.628906 C 65.574219 71.546875 64.917969 71.28125 64.222656 71 C 64.171875 70.980469 64.121094 70.960938 64.066406 70.941406 C 63.597656 70.925781 63.136719 70.941406 62.648438 70.953125 C 62.40625 70.960938 62.160156 70.964844 61.902344 70.96875 C 61.085938 70.984375 60.550781 70.839844 60.390625 70.566406 C 60.328125 70.457031 60.324219 70.332031 60.386719 70.222656 C 60.492188 70.042969 60.761719 69.929688 61.09375 69.929688 C 62.332031 69.929688 63.257812 70.261719 64.132812 70.613281 C 65.074219 70.640625 66.050781 70.773438 67.28125 71.191406 C 67.726562 71.34375 68.152344 71.5 68.5625 71.660156 C 69.117188 71.792969 69.609375 71.960938 69.898438 72.171875 C 70.96875 72.578125 72.019531 72.941406 73.203125 73.128906 C 74.46875 73.328125 74.710938 73.132812 74.992188 72.910156 C 75.144531 72.785156 75.320312 72.644531 75.644531 72.558594 C 76.21875 72.40625 76.664062 72.050781 76.664062 71.84375 C 76.664062 71.726562 76.480469 71.609375 76.175781 71.53125 C 75.4375 71.335938 74.21875 70.820312 72.675781 70.167969 C 70.445312 69.226562 67.671875 68.054688 65.222656 67.394531 C 61.9375 66.515625 57.4375 65.488281 53.820312 64.664062 C 52.917969 64.457031 52.074219 64.265625 51.332031 64.09375 C 49.601562 63.691406 48.65625 63.914062 47.460938 64.195312 L 47.140625 64.269531 C 45.597656 64.625 37.367188 65.378906 30.167969 64.847656 C 27.125 64.625 24.210938 64.574219 21.742188 64.679688 C 21.148438 64.914062 20.484375 65.050781 19.84375 65.148438 C 18.148438 65.40625 15.378906 66.539062 14.144531 67.476562 C 13.761719 67.765625 13.488281 67.859375 13.296875 67.769531 C 13.191406 67.71875 13.128906 67.609375 13.128906 67.476562 C 13.117188 66.996094 13.824219 66.101562 14.972656 65.492188 C 16.132812 64.878906 18.550781 64.484375 21.683594 64.347656 C 22.386719 64.0625 22.839844 63.679688 23.109375 63.167969 C 23.671875 62.101562 24.308594 61.101562 25.144531 61.019531 C 25.148438 61.019531 25.148438 61.019531 25.148438 61.019531 C 25.089844 60.609375 23.078125 58.867188 18.6875 58.148438 C 14.300781 57.429688 11.496094 58.054688 9.992188 58.386719 C 9.207031 58.5625 8.8125 58.648438 8.609375 58.453125 C 8.464844 58.316406 8.5 58.113281 8.511719 58.042969 C 8.761719 56.640625 12.078125 54.59375 17.433594 54.5625 C 17.480469 54.5625 17.53125 54.5625 17.578125 54.5625 C 20.664062 54.5625 22.429688 55.128906 23.386719 55.433594 C 23.710938 55.539062 24.046875 55.644531 24.117188 55.609375 C 24.113281 55.609375 24.136719 55.578125 24.132812 55.464844 C 24.117188 54.4375 23.46875 52.804688 22.832031 51.644531 C 22.746094 51.488281 22.484375 51.007812 22.773438 50.824219 C 23.179688 50.566406 24.304688 51.5 25.035156 52.507812 C 25.726562 53.464844 26.105469 54.28125 26.410156 54.9375 C 26.609375 55.367188 26.78125 55.742188 26.988281 56.019531 C 27.003906 56.039062 27.015625 56.050781 27.023438 56.058594 C 27.246094 55.84375 27.550781 54.035156 27.34375 50.390625 C 27.144531 46.84375 26.65625 42.859375 23.414062 40.511719 C 21.796875 39.34375 20.480469 39.347656 19.605469 39.351562 C 19.121094 39.351562 18.769531 39.355469 18.597656 39.117188 C 18.460938 38.929688 18.472656 38.65625 18.632812 38.171875 C 19.320312 36.113281 20.570312 35.140625 22.953125 34.808594 C 23.667969 34.710938 24.386719 34.730469 25.035156 34.855469 C 25.035156 34.5625 25.113281 34.324219 25.273438 34.152344 C 25.515625 33.890625 25.921875 33.828125 26.410156 33.984375 L 26.453125 33.996094 C 27.027344 34.179688 27.40625 34.296875 27.605469 34.183594 C 27.722656 34.113281 27.8125 33.945312 27.878906 33.65625 C 27.957031 33.316406 28.132812 33.074219 28.398438 32.929688 C 28.910156 32.660156 29.609375 32.859375 29.984375 33 C 30.589844 33.234375 30.828125 33.078125 31.277344 32.464844 C 31.652344 31.953125 32.058594 31.710938 32.457031 31.757812 C 32.949219 31.8125 33.382812 32.292969 33.773438 33.21875 C 35.609375 37.539062 39.796875 41.417969 42.671875 43.515625 C 42.066406 42.398438 41.425781 41.089844 40.738281 39.679688 L 40.3125 38.808594 C 38.527344 35.171875 36.210938 31.203125 34.347656 28.011719 C 33.253906 26.140625 32.390625 24.660156 31.925781 23.746094 C 31.03125 21.980469 31.351562 20.710938 31.609375 19.6875 C 31.71875 19.253906 31.8125 18.878906 31.804688 18.523438 C 31.726562 15.863281 32.125 6.9375 40.4375 3.832031 C 49.082031 0.605469 57.472656 4.589844 58.65625 5.457031 C 59.105469 5.785156 58.90625 6.089844 58.757812 6.3125 C 58.519531 6.671875 58.226562 7.113281 59.636719 8.304688 C 62.171875 10.441406 62.183594 15.691406 61.632812 17.898438 C 61.058594 20.191406 59.863281 20.710938 58.8125 21.167969 C 58.742188 21.199219 58.667969 21.230469 58.597656 21.265625 C 57.679688 21.671875 56.964844 21.679688 56.636719 21.277344 C 56.292969 20.863281 56.445312 20.125 57.050781 19.257812 C 57.085938 19.203125 57.113281 19.160156 57.132812 19.128906 C 57.019531 19.152344 56.847656 19.203125 56.710938 19.246094 C 56.582031 19.285156 56.445312 19.328125 56.300781 19.367188 C 55.753906 19.511719 55.375 19.46875 55.257812 19.246094 C 55.210938 19.164062 55.195312 19.046875 55.296875 18.890625 C 55.253906 18.898438 55.214844 18.90625 55.175781 18.914062 C 54.726562 19 54.367188 19.066406 54.304688 18.808594 C 54.292969 18.753906 54.144531 18.273438 53.265625 18.480469 C 52.707031 18.613281 52.351562 18.378906 52.210938 18.113281 C 52.027344 17.777344 52.117188 17.351562 52.4375 17.019531 C 52.015625 17.089844 51.058594 17.394531 50.261719 17.652344 L 49.867188 17.777344 C 48.820312 18.109375 47.796875 18.085938 46.808594 18.0625 C 46.101562 18.046875 45.433594 18.03125 44.839844 18.15625 C 44.3125 18.269531 44.039062 18.605469 43.664062 19.066406 C 43.117188 19.738281 42.367188 20.65625 40.363281 21.238281 C 38.472656 21.785156 38.21875 23.308594 37.976562 24.78125 C 37.839844 25.589844 37.714844 26.355469 37.332031 26.960938 C 37.234375 27.113281 37.132812 27.230469 37.03125 27.324219 C 37.101562 27.933594 37.203125 28.5 37.351562 28.992188 C 38.074219 31.40625 40.410156 35.578125 42.601562 37.707031 C 44.25 39.300781 45.75 40.339844 47.667969 40.394531 C 47.773438 40.03125 47.882812 39.660156 48.003906 39.289062 C 48.765625 36.902344 49.972656 36.167969 50.769531 35.679688 C 51.144531 35.453125 51.4375 35.273438 51.5625 35.003906 C 51.683594 34.742188 51.679688 34.648438 51.664062 34.375 C 51.652344 34.125 51.632812 33.746094 51.699219 33.027344 C 51.429688 32.964844 51.152344 32.945312 50.898438 32.984375 C 50.519531 33.046875 50.199219 32.914062 50.0625 32.640625 C 49.921875 32.355469 50.011719 31.996094 50.296875 31.726562 C 50.609375 31.429688 51.082031 31.347656 51.445312 31.523438 C 51.679688 31.640625 52.050781 31.949219 52.042969 32.777344 C 52.359375 32.878906 52.652344 33.027344 52.863281 33.183594 C 52.972656 33.265625 53.171875 33.320312 53.375 33.214844 C 53.679688 33.054688 53.835938 32.578125 53.8125 31.914062 C 53.738281 30.070312 53.671875 27.582031 53.734375 26.625 C 53.800781 25.558594 54.75 24.617188 56.089844 24.277344 C 57.402344 23.949219 58.464844 24.0625 58.859375 24.582031 C 59.015625 24.792969 59.140625 25.164062 58.816406 25.726562 C 58.753906 25.84375 58.691406 25.945312 58.636719 26.042969 C 58.128906 26.917969 58.039062 27.078125 57.839844 28.769531 L 57.816406 28.996094 C 57.613281 30.753906 57.402344 32.570312 55.59375 34.535156 C 55.152344 35.015625 54.734375 35.5625 54.304688 36.144531 C 54.359375 36.097656 54.414062 36.050781 54.460938 36.011719 C 55.53125 35.152344 56.574219 34.765625 56.996094 35.078125 C 57.117188 35.164062 57.285156 35.378906 57.101562 35.851562 C 56.632812 37.046875 56.710938 37.367188 56.800781 37.449219 C 56.835938 37.484375 56.964844 37.546875 57.378906 37.359375 C 58.589844 36.808594 59.828125 36.5 60.710938 37.945312 L 60.820312 38.121094 C 61.515625 39.261719 61.863281 39.839844 62.648438 39.796875 C 63.664062 39.746094 64.371094 40.441406 64.441406 41.570312 C 64.496094 42.488281 65.671875 45.117188 67.238281 45.648438 C 69.484375 46.414062 70.882812 47.527344 71.125 48.734375 C 71.414062 49.101562 71.691406 49.554688 71.960938 50.105469 C 74.082031 54.476562 76.785156 57.089844 79.199219 57.089844 C 79.207031 57.089844 79.210938 57.089844 79.214844 57.089844 C 79.359375 57.085938 79.511719 57.085938 79.664062 57.085938 C 81.867188 57.066406 84.777344 57.042969 86.078125 58.597656 C 88.5 55.714844 90.835938 52.945312 90.984375 52.773438 C 91.265625 52.449219 91.796875 52.320312 92.269531 52.695312 C 92.503906 52.878906 92.632812 53.09375 92.660156 53.328125 C 92.683594 53.546875 92.613281 53.773438 92.457031 53.96875 C 92.375 54.074219 91.609375 54.988281 90.554688 56.253906 C 89.539062 57.472656 88.171875 59.113281 86.886719 60.65625 C 87.800781 61.261719 88.492188 61.660156 89.015625 61.835938 C 89.914062 62.136719 90.5625 62.738281 90.671875 63.363281 C 90.6875 63.453125 90.699219 63.546875 90.714844 63.644531 C 90.785156 64.160156 90.847656 64.648438 91.378906 64.84375 C 92.1875 65.140625 92.1875 65.832031 92.183594 66.566406 L 92.183594 66.660156 C 92.183594 67 92.316406 67.285156 92.441406 67.5625 C 92.582031 67.871094 92.714844 68.164062 92.644531 68.496094 C 92.605469 68.675781 92.582031 68.953125 92.550781 69.277344 C 92.492188 69.898438 92.414062 70.75 92.179688 71.628906 C 91.839844 72.898438 90.785156 72.789062 89.9375 72.699219 C 89.792969 72.683594 89.648438 72.671875 89.511719 72.664062 C 88.84375 72.621094 87.0625 72.714844 85.757812 72.78125 C 85.230469 72.808594 84.769531 72.832031 84.527344 72.839844 C 84.511719 72.839844 84.496094 72.839844 84.484375 72.839844 C 83.796875 72.839844 82.820312 72.402344 82.484375 71.933594 C 82.324219 71.707031 82.339844 71.523438 82.382812 71.410156 C 82.394531 71.375 82.414062 71.339844 82.433594 71.308594 C 81.261719 71.222656 80.515625 70.703125 80.132812 70.34375 C 79.972656 70.191406 79.976562 70.042969 80 69.949219 C 79.609375 69.929688 79.273438 69.675781 79.054688 69.21875 C 78.832031 68.746094 78.476562 68.316406 78.132812 67.902344 C 77.613281 67.273438 77.078125 66.628906 77.023438 65.839844 C 76.980469 65.21875 77.257812 64.59375 77.765625 64.167969 C 78.394531 63.644531 79.285156 63.476562 80.214844 63.710938 C 80.621094 63.8125 81.226562 63.753906 81.898438 63.570312 C 82.738281 62.574219 83.878906 61.21875 85.066406 59.800781 C 84.726562 59.5625 84.367188 59.308594 83.988281 59.035156 C 81.722656 57.421875 75.816406 57.402344 72.816406 60.425781 C 71.464844 61.789062 70.910156 63.082031 71.222656 64.160156 C 71.488281 65.09375 72.40625 65.808594 73.734375 66.121094 C 76.085938 66.671875 77.621094 67.558594 77.949219 68.5625 C 78.101562 69.023438 78.308594 69.152344 78.527344 69.285156 C 78.75 69.421875 78.996094 69.574219 79.105469 70.046875 C 79.121094 70.117188 79.085938 70.191406 79.019531 70.226562 L 78.566406 70.46875 C 78.683594 70.679688 78.785156 70.933594 78.84375 71.246094 C 78.941406 71.734375 78.820312 72.289062 78.714844 72.777344 C 78.613281 73.269531 78.511719 73.734375 78.671875 73.933594 C 78.746094 74.023438 78.886719 74.070312 79.097656 74.070312 L 149.835938 74.070312 C 149.925781 74.070312 150 74.144531 150 74.234375 C 150 74.324219 149.925781 74.394531 149.835938 74.394531 Z M 83.214844 71.296875 C 82.9375 71.335938 82.734375 71.40625 82.691406 71.519531 C 82.667969 71.578125 82.691406 71.652344 82.753906 71.742188 C 83.035156 72.132812 83.941406 72.53125 84.519531 72.511719 C 84.757812 72.503906 85.214844 72.480469 85.742188 72.453125 C 87.050781 72.382812 88.84375 72.289062 89.53125 72.332031 C 89.675781 72.34375 89.820312 72.355469 89.96875 72.371094 C 90.84375 72.460938 91.59375 72.539062 91.863281 71.542969 C 92.089844 70.691406 92.167969 69.855469 92.222656 69.246094 C 92.257812 68.898438 92.28125 68.625 92.324219 68.425781 C 92.371094 68.203125 92.265625 67.96875 92.140625 67.699219 C 92.007812 67.402344 91.855469 67.070312 91.855469 66.65625 L 91.855469 66.5625 C 91.859375 65.777344 91.832031 65.359375 91.265625 65.148438 C 90.550781 64.886719 90.460938 64.222656 90.386719 63.6875 C 90.375 63.59375 90.363281 63.503906 90.347656 63.417969 C 90.261719 62.914062 89.683594 62.40625 88.914062 62.144531 C 88.355469 61.957031 87.628906 61.539062 86.675781 60.90625 C 84.871094 63.078125 83.285156 64.996094 83.171875 65.167969 C 83.167969 65.175781 83.164062 65.179688 83.160156 65.183594 C 83.070312 65.289062 82.929688 65.355469 82.75 65.433594 C 82.328125 65.625 81.75 65.886719 81.566406 66.855469 C 81.546875 66.964844 81.535156 67.066406 81.535156 67.160156 C 81.554688 67.269531 81.570312 67.386719 81.582031 67.503906 C 81.605469 67.570312 81.636719 67.628906 81.675781 67.679688 C 81.925781 67.996094 82.492188 68.03125 82.992188 68.0625 C 83.089844 68.066406 83.183594 68.074219 83.273438 68.082031 C 83.421875 68.09375 83.582031 68.117188 83.753906 68.140625 C 84.078125 68.1875 84.433594 68.238281 84.777344 68.230469 C 85.003906 67.964844 85.261719 67.609375 85.609375 67.140625 L 85.738281 66.964844 C 86.6875 65.679688 87.761719 64.917969 88.09375 64.957031 C 88.175781 64.964844 88.238281 65.011719 88.269531 65.082031 C 88.324219 65.210938 88.234375 65.359375 88.148438 65.46875 C 87.984375 65.683594 87.816406 65.882812 87.644531 66.089844 C 87.289062 66.511719 86.890625 66.988281 86.402344 67.738281 C 86.023438 68.316406 85.480469 68.511719 84.925781 68.550781 C 84.40625 69.128906 83.976562 69.308594 83.113281 69.308594 C 81.902344 69.308594 80.4375 69.730469 80.320312 70.027344 C 80.316406 70.039062 80.308594 70.054688 80.359375 70.101562 C 80.777344 70.496094 81.6875 71.109375 83.191406 70.96875 C 83.265625 70.957031 83.339844 70.949219 83.421875 70.941406 C 83.4375 70.941406 83.453125 70.9375 83.46875 70.9375 C 84.328125 70.808594 85.667969 70.613281 86.800781 70.125 C 87.0625 69.765625 87.347656 69.28125 87.710938 68.671875 C 88.414062 67.476562 89.234375 67.175781 89.617188 67.191406 C 89.808594 67.199219 89.886719 67.277344 89.917969 67.34375 C 89.953125 67.414062 89.945312 67.5 89.898438 67.566406 C 89.878906 67.597656 89.855469 67.628906 89.832031 67.664062 C 89.699219 67.867188 89.472656 68.203125 88.550781 69.300781 C 88.15625 69.769531 87.613281 70.121094 87.007812 70.390625 C 86.554688 70.988281 86.128906 71.285156 85.480469 71.273438 C 85.324219 71.273438 85.148438 71.265625 84.960938 71.261719 C 84.570312 71.25 83.941406 71.230469 83.441406 71.273438 C 83.367188 71.28125 83.289062 71.289062 83.214844 71.296875 Z M 65.214844 71.03125 C 65.589844 71.15625 65.96875 71.257812 66.371094 71.300781 C 66.453125 71.308594 66.539062 71.320312 66.628906 71.332031 C 66.121094 71.183594 65.65625 71.089844 65.214844 71.03125 Z M 85.300781 70.941406 C 85.363281 70.945312 85.425781 70.945312 85.484375 70.945312 C 85.492188 70.945312 85.496094 70.945312 85.503906 70.945312 C 85.816406 70.945312 86.070312 70.855469 86.308594 70.664062 C 85.972656 70.773438 85.632812 70.867188 85.300781 70.941406 Z M 61.09375 70.257812 C 60.796875 70.257812 60.675781 70.367188 60.667969 70.394531 C 60.675781 70.4375 60.914062 70.65625 61.898438 70.640625 C 62.152344 70.636719 62.398438 70.632812 62.640625 70.625 C 62.824219 70.621094 63.007812 70.613281 63.1875 70.613281 C 62.570312 70.40625 61.898438 70.257812 61.09375 70.257812 Z M 77.71875 69.996094 L 77.644531 70.582031 L 78.09375 70.34375 C 77.960938 70.179688 77.824219 70.070312 77.71875 69.996094 Z M 89.535156 67.519531 C 89.246094 67.550781 88.582031 67.839844 87.992188 68.835938 C 87.773438 69.210938 87.578125 69.539062 87.398438 69.828125 C 87.746094 69.621094 88.054688 69.378906 88.296875 69.089844 C 89.148438 68.078125 89.398438 67.722656 89.535156 67.519531 Z M 79.40625 63.933594 C 78.859375 63.933594 78.359375 64.097656 77.976562 64.417969 C 77.550781 64.777344 77.316406 65.300781 77.351562 65.816406 C 77.398438 66.496094 77.878906 67.078125 78.386719 67.691406 C 78.742188 68.121094 79.113281 68.566406 79.355469 69.074219 C 79.546875 69.488281 79.847656 69.675781 80.195312 69.605469 C 80.691406 69.503906 81.226562 68.886719 81.265625 68.027344 C 81.273438 67.871094 81.269531 67.71875 81.257812 67.570312 C 81.222656 67.457031 81.203125 67.328125 81.207031 67.1875 C 81.074219 66.53125 80.761719 66.042969 80.40625 65.753906 C 80.050781 66.027344 79.824219 66.007812 79.683594 65.914062 C 79.527344 65.808594 79.480469 65.589844 79.578125 65.402344 C 79.664062 65.238281 79.875 65.113281 80.140625 65.21875 C 80.222656 65.25 80.304688 65.292969 80.386719 65.339844 C 80.484375 65.246094 80.597656 65.128906 80.726562 64.972656 C 80.894531 64.769531 81.179688 64.429688 81.550781 63.988281 C 80.992188 64.097656 80.496094 64.117188 80.132812 64.027344 C 79.886719 63.964844 79.640625 63.933594 79.40625 63.933594 Z M 81.589844 68.054688 C 81.570312 68.5 81.425781 68.917969 81.199219 69.246094 C 81.855469 69.074219 82.625 68.980469 83.113281 68.980469 C 83.746094 68.980469 84.089844 68.894531 84.46875 68.550781 C 84.203125 68.539062 83.945312 68.5 83.707031 68.464844 C 83.542969 68.441406 83.382812 68.417969 83.246094 68.40625 C 83.160156 68.402344 83.066406 68.394531 82.972656 68.390625 C 82.488281 68.359375 81.949219 68.328125 81.589844 68.054688 Z M 87.777344 65.410156 C 87.394531 65.648438 86.703125 66.210938 86.003906 67.15625 L 85.875 67.335938 C 85.632812 67.664062 85.429688 67.9375 85.246094 68.171875 C 85.585938 68.089844 85.898438 67.910156 86.128906 67.558594 C 86.628906 66.792969 87.035156 66.308594 87.390625 65.882812 C 87.523438 65.722656 87.652344 65.570312 87.777344 65.410156 Z M 20.015625 64.785156 C 17.757812 64.96875 16.023438 65.308594 15.128906 65.78125 C 13.914062 66.421875 13.421875 67.269531 13.453125 67.472656 C 13.496094 67.472656 13.640625 67.445312 13.945312 67.214844 C 15.214844 66.25 18.054688 65.089844 19.792969 64.824219 C 19.871094 64.8125 19.945312 64.800781 20.015625 64.785156 Z M 80.65625 65.535156 C 80.917969 65.761719 81.15625 66.078125 81.324219 66.472656 C 81.605469 65.589844 82.226562 65.308594 82.617188 65.136719 C 82.742188 65.078125 82.859375 65.027344 82.902344 64.980469 C 83.019531 64.8125 83.792969 63.871094 84.933594 62.492188 C 84.078125 63.109375 83.03125 63.59375 82.089844 63.855469 C 81.578125 64.464844 81.1875 64.933594 80.976562 65.183594 C 80.863281 65.324219 80.753906 65.4375 80.65625 65.535156 Z M 49.601562 63.542969 C 50.117188 63.542969 50.699219 63.609375 51.40625 63.773438 C 52.148438 63.945312 52.992188 64.136719 53.894531 64.34375 C 55.929688 64.808594 58.246094 65.335938 60.46875 65.867188 C 59.761719 64.746094 58.871094 60.375 59.785156 57.910156 C 60.027344 57.257812 60.445312 56.644531 60.976562 56.074219 C 60.859375 54.019531 60.761719 52.050781 60.914062 49.738281 C 61.15625 46.113281 62.011719 43.386719 62.46875 43.175781 C 62.546875 43.136719 62.632812 43.144531 62.699219 43.195312 C 62.8125 43.28125 62.902344 43.484375 62.769531 44.398438 C 62.367188 47.15625 62.601562 49.578125 62.871094 51.121094 C 62.941406 51.535156 63.0625 51.785156 63.203125 51.808594 C 63.332031 51.828125 63.832031 51.71875 64.976562 49.535156 C 65.585938 48.371094 66.878906 47.207031 68.394531 47.207031 C 68.410156 47.207031 68.425781 47.207031 68.441406 47.207031 C 69.011719 47.214844 69.726562 47.394531 70.453125 48.019531 C 69.898438 47.230469 68.746094 46.507812 67.132812 45.960938 C 65.410156 45.375 64.175781 42.601562 64.113281 41.585938 C 64.054688 40.640625 63.5 40.078125 62.667969 40.125 C 61.683594 40.171875 61.253906 39.464844 60.539062 38.289062 L 60.433594 38.113281 C 59.722656 36.953125 58.789062 37.078125 57.515625 37.65625 C 57.070312 37.859375 56.761719 37.867188 56.574219 37.6875 C 56.292969 37.421875 56.359375 36.835938 56.796875 35.730469 C 56.832031 35.636719 56.90625 35.414062 56.804688 35.339844 C 56.589844 35.183594 55.726562 35.417969 54.667969 36.265625 C 53.25 37.40625 49.578125 42.011719 47.605469 45.789062 C 47.113281 46.734375 46.585938 47.191406 45.976562 47.183594 C 45.039062 47.167969 44.089844 46 43.042969 44.179688 C 40.144531 42.175781 35.457031 38.019531 33.472656 33.34375 C 33.140625 32.558594 32.777344 32.125 32.417969 32.082031 C 32.074219 32.039062 31.753906 32.375 31.542969 32.660156 C 31.042969 33.34375 30.664062 33.613281 29.867188 33.308594 C 29.320312 33.097656 28.84375 33.066406 28.554688 33.222656 C 28.371094 33.316406 28.257812 33.484375 28.199219 33.730469 C 28.109375 34.121094 27.976562 34.351562 27.769531 34.46875 C 27.445312 34.652344 27.011719 34.515625 26.355469 34.3125 L 26.3125 34.296875 C 25.949219 34.183594 25.667969 34.210938 25.515625 34.375 C 25.402344 34.496094 25.351562 34.691406 25.367188 34.929688 C 25.914062 35.074219 26.394531 35.292969 26.757812 35.582031 C 27.117188 35.871094 27.320312 36.199219 27.347656 36.535156 C 27.390625 37.011719 27.105469 37.132812 26.984375 37.160156 C 26.492188 37.277344 25.609375 36.6875 25.242188 35.78125 C 25.160156 35.574219 25.101562 35.378906 25.070312 35.195312 C 24.488281 35.070312 23.785156 35.023438 23 35.132812 C 20.761719 35.445312 19.585938 36.355469 18.945312 38.277344 C 18.800781 38.707031 18.820312 38.863281 18.863281 38.921875 C 18.9375 39.023438 19.246094 39.023438 19.605469 39.023438 C 20.464844 39.019531 21.90625 39.015625 23.605469 40.246094 C 26.964844 42.679688 27.46875 46.75 27.671875 50.371094 C 27.792969 52.488281 27.8125 56.132812 27.121094 56.382812 C 27.042969 56.410156 26.882812 56.425781 26.722656 56.214844 C 26.5 55.910156 26.320312 55.523438 26.113281 55.074219 C 25.8125 54.429688 25.445312 53.628906 24.769531 52.703125 C 24.03125 51.683594 23.203125 51.125 22.96875 51.105469 C 22.972656 51.152344 23 51.265625 23.121094 51.488281 C 23.726562 52.59375 24.441406 54.300781 24.460938 55.457031 C 24.464844 55.585938 24.449219 55.769531 24.3125 55.875 C 24.121094 56.015625 23.839844 55.925781 23.285156 55.746094 C 22.332031 55.441406 20.558594 54.871094 17.433594 54.890625 C 12.082031 54.921875 9.035156 56.964844 8.835938 58.101562 C 8.820312 58.191406 8.835938 58.21875 8.835938 58.21875 C 8.910156 58.292969 9.445312 58.171875 9.921875 58.066406 C 11.449219 57.726562 14.292969 57.097656 18.738281 57.824219 C 23.148438 58.546875 25.503906 60.339844 25.476562 61.058594 C 25.472656 61.183594 25.390625 61.328125 25.175781 61.347656 C 24.492188 61.414062 23.894531 62.382812 23.398438 63.324219 C 23.175781 63.746094 22.851562 64.070312 22.460938 64.320312 C 24.765625 64.253906 27.40625 64.316406 30.191406 64.519531 C 37.726562 65.074219 45.847656 64.234375 47.070312 63.949219 L 47.386719 63.875 C 48.140625 63.699219 48.796875 63.542969 49.601562 63.542969 Z M 61 56.535156 C 60.601562 57.007812 60.289062 57.503906 60.09375 58.023438 C 59.28125 60.21875 59.984375 64.152344 60.625 65.480469 C 60.746094 65.730469 60.832031 65.8125 60.863281 65.835938 C 60.894531 65.792969 60.980469 65.628906 61.023438 65.066406 C 61.277344 61.597656 61.140625 59.015625 61 56.535156 Z M 79.945312 65.507812 C 79.894531 65.507812 79.878906 65.542969 79.871094 65.554688 C 79.851562 65.59375 79.859375 65.632812 79.867188 65.640625 C 79.886719 65.652344 79.964844 65.652344 80.105469 65.5625 C 80.078125 65.546875 80.050781 65.535156 80.023438 65.523438 C 79.992188 65.511719 79.964844 65.507812 79.945312 65.507812 Z M 85.335938 59.988281 C 84.289062 61.234375 83.28125 62.4375 82.480469 63.390625 C 83.652344 62.980469 84.914062 62.257812 85.675781 61.398438 C 85.917969 61.121094 86.09375 60.851562 86.199219 60.585938 C 85.929688 60.402344 85.640625 60.203125 85.335938 59.988281 Z M 86.589844 60.453125 C 86.597656 60.460938 86.605469 60.464844 86.613281 60.472656 C 87.734375 59.121094 89.015625 57.585938 90.300781 56.042969 C 91.355469 54.777344 92.121094 53.863281 92.199219 53.761719 C 92.257812 53.6875 92.355469 53.539062 92.332031 53.363281 C 92.316406 53.21875 92.226562 53.078125 92.066406 52.949219 C 91.742188 52.691406 91.40625 52.789062 91.230469 52.988281 C 91.082031 53.160156 88.71875 55.96875 86.277344 58.867188 C 86.378906 59.023438 86.464844 59.191406 86.535156 59.371094 C 86.667969 59.71875 86.683594 60.082031 86.589844 60.453125 Z M 85.550781 59.738281 C 85.8125 59.921875 86.0625 60.09375 86.296875 60.257812 C 86.347656 59.992188 86.324219 59.738281 86.230469 59.492188 C 86.179688 59.363281 86.121094 59.246094 86.054688 59.132812 C 85.886719 59.335938 85.71875 59.535156 85.550781 59.738281 Z M 62.503906 43.609375 C 62.183594 44.175781 61.46875 46.34375 61.242188 49.761719 C 61.097656 51.941406 61.179688 53.816406 61.285156 55.753906 C 63.074219 54.011719 65.882812 52.652344 67.929688 51.664062 C 68.566406 51.355469 69.113281 51.089844 69.535156 50.859375 C 70.433594 50.371094 70.894531 49.703125 70.832031 48.980469 C 70.828125 48.945312 70.824219 48.910156 70.816406 48.875 C 70.121094 48.007812 69.3125 47.546875 68.4375 47.535156 C 68.421875 47.535156 68.410156 47.535156 68.394531 47.535156 C 67.015625 47.535156 65.832031 48.609375 65.265625 49.6875 C 63.925781 52.253906 63.34375 52.160156 63.152344 52.128906 C 62.847656 52.082031 62.648438 51.769531 62.546875 51.179688 C 62.277344 49.609375 62.039062 47.152344 62.445312 44.347656 C 62.5 43.96875 62.507812 43.742188 62.503906 43.609375 Z M 43.671875 44.597656 C 44.511719 45.96875 45.28125 46.84375 45.980469 46.855469 C 45.984375 46.855469 45.988281 46.855469 45.992188 46.855469 C 46.449219 46.855469 46.894531 46.445312 47.316406 45.636719 C 48.355469 43.644531 49.824219 41.472656 51.207031 39.667969 C 50.65625 40.074219 50.054688 40.382812 49.375 40.539062 C 48.863281 40.65625 48.378906 40.714844 47.917969 40.71875 C 47.867188 40.902344 47.816406 41.085938 47.765625 41.265625 C 47.207031 43.25 46.769531 44.820312 45.804688 45.214844 C 45.378906 45.390625 44.894531 45.316406 44.324219 44.992188 C 44.125 44.882812 43.90625 44.75 43.671875 44.597656 Z M 43.292969 43.953125 C 43.742188 44.261719 44.144531 44.515625 44.484375 44.707031 C 44.960938 44.980469 45.351562 45.046875 45.679688 44.910156 C 46.496094 44.578125 46.9375 43 47.449219 41.179688 C 47.492188 41.023438 47.535156 40.871094 47.578125 40.714844 C 45.589844 40.625 44.015625 39.53125 42.375 37.941406 C 40.144531 35.78125 37.773438 31.539062 37.035156 29.085938 C 36.894531 28.621094 36.796875 28.089844 36.722656 27.527344 C 36.523438 27.621094 36.332031 27.640625 36.171875 27.632812 C 35.175781 27.582031 34.046875 26.351562 33.445312 25.15625 C 32.664062 23.609375 32.367188 21.492188 33.460938 20.257812 C 34.015625 19.632812 34.769531 19.328125 35.429688 19.460938 C 35.980469 19.574219 36.394531 19.964844 36.59375 20.558594 C 36.789062 21.136719 36.8125 22.320312 36.84375 23.6875 C 36.863281 24.730469 36.886719 25.851562 36.984375 26.886719 C 37.007812 26.855469 37.03125 26.820312 37.054688 26.785156 C 37.402344 26.238281 37.523438 25.503906 37.652344 24.726562 C 37.902344 23.226562 38.183594 21.527344 40.273438 20.921875 C 42.175781 20.371094 42.859375 19.53125 43.410156 18.859375 C 43.796875 18.382812 44.132812 17.972656 44.773438 17.835938 C 45.402344 17.703125 46.089844 17.71875 46.816406 17.734375 C 47.777344 17.757812 48.773438 17.78125 49.769531 17.464844 L 50.160156 17.335938 C 52.214844 16.679688 52.710938 16.550781 52.859375 16.796875 C 52.960938 16.96875 52.78125 17.140625 52.703125 17.214844 C 52.460938 17.449219 52.382812 17.738281 52.5 17.957031 C 52.609375 18.160156 52.867188 18.238281 53.191406 18.160156 C 54.21875 17.921875 54.523438 18.457031 54.601562 18.660156 C 54.714844 18.667969 54.972656 18.617188 55.117188 18.589844 C 55.519531 18.515625 55.71875 18.476562 55.800781 18.640625 C 55.871094 18.789062 55.730469 18.910156 55.683594 18.953125 C 55.597656 19.023438 55.570312 19.074219 55.558594 19.09375 C 55.621094 19.125 55.839844 19.148438 56.214844 19.046875 C 56.355469 19.011719 56.492188 18.96875 56.617188 18.929688 C 57.0625 18.792969 57.332031 18.710938 57.460938 18.890625 C 57.570312 19.039062 57.457031 19.246094 57.320312 19.441406 C 56.820312 20.160156 56.65625 20.785156 56.890625 21.070312 C 57.113281 21.34375 57.703125 21.300781 58.464844 20.964844 C 58.535156 20.929688 58.609375 20.898438 58.683594 20.867188 C 59.714844 20.417969 60.777344 19.953125 61.3125 17.816406 C 61.847656 15.675781 61.851562 10.597656 59.425781 8.554688 C 57.917969 7.28125 58.132812 6.660156 58.484375 6.132812 C 58.632812 5.90625 58.660156 5.867188 58.460938 5.71875 C 57.300781 4.871094 49.0625 0.960938 40.554688 4.140625 C 32.445312 7.167969 32.058594 15.910156 32.132812 18.515625 C 32.144531 18.914062 32.039062 19.328125 31.929688 19.765625 C 31.671875 20.785156 31.382812 21.941406 32.222656 23.597656 C 32.679688 24.503906 33.542969 25.980469 34.632812 27.847656 C 36.496094 31.042969 38.816406 35.015625 40.609375 38.664062 L 41.035156 39.535156 C 41.832031 41.167969 42.585938 42.710938 43.292969 43.953125 Z M 52.019531 33.117188 C 51.964844 33.773438 51.980469 34.121094 51.992188 34.355469 C 52.007812 34.644531 52.015625 34.804688 51.859375 35.140625 C 51.695312 35.5 51.347656 35.714844 50.941406 35.960938 C 50.140625 36.449219 49.042969 37.117188 48.316406 39.386719 C 48.207031 39.726562 48.109375 40.0625 48.011719 40.390625 C 48.421875 40.378906 48.847656 40.324219 49.300781 40.21875 C 51.214844 39.777344 52.527344 37.996094 53.800781 36.273438 C 54.324219 35.5625 54.816406 34.890625 55.351562 34.3125 C 57.089844 32.425781 57.292969 30.660156 57.488281 28.957031 L 57.515625 28.730469 C 57.722656 26.96875 57.828125 26.78125 58.351562 25.875 C 58.40625 25.78125 58.46875 25.675781 58.53125 25.5625 C 58.71875 25.234375 58.742188 24.972656 58.597656 24.78125 C 58.292969 24.378906 57.316406 24.304688 56.171875 24.59375 C 54.988281 24.894531 54.121094 25.738281 54.0625 26.644531 C 54 27.589844 54.066406 30.066406 54.140625 31.898438 C 54.183594 32.988281 53.773438 33.371094 53.527344 33.503906 C 53.253906 33.648438 52.917969 33.628906 52.671875 33.445312 C 52.503906 33.324219 52.273438 33.207031 52.019531 33.117188 Z M 25.425781 35.285156 C 25.453125 35.402344 25.496094 35.527344 25.546875 35.65625 C 25.871094 36.464844 26.625 36.910156 26.90625 36.839844 C 26.941406 36.832031 27.042969 36.808594 27.023438 36.558594 C 27.003906 36.320312 26.835938 36.066406 26.550781 35.839844 C 26.296875 35.636719 25.914062 35.433594 25.425781 35.285156 Z M 51.175781 32.636719 C 51.351562 32.636719 51.535156 32.65625 51.714844 32.691406 C 51.703125 32.25 51.5625 31.945312 51.304688 31.820312 C 51.03125 31.6875 50.703125 31.792969 50.523438 31.964844 C 50.347656 32.132812 50.28125 32.339844 50.355469 32.492188 C 50.425781 32.636719 50.609375 32.699219 50.84375 32.660156 C 50.953125 32.644531 51.0625 32.636719 51.175781 32.636719 Z M 35.113281 19.757812 C 34.632812 19.757812 34.113281 20.019531 33.707031 20.476562 C 32.863281 21.429688 32.875 23.292969 33.738281 25.007812 C 34.28125 26.089844 35.328125 27.261719 36.1875 27.304688 C 36.371094 27.3125 36.535156 27.273438 36.683594 27.175781 C 36.5625 26.058594 36.539062 24.828125 36.511719 23.695312 C 36.484375 22.351562 36.460938 21.195312 36.28125 20.664062 C 36.121094 20.183594 35.796875 19.871094 35.363281 19.785156 C 35.28125 19.765625 35.199219 19.757812 35.113281 19.757812 Z M 55.503906 18.664062 Z M 55.503906 18.664062 " fill-opacity="1" fill-rule="nonzero"/><path fill="#3f322c" d="M 149.835938 74.394531 L 79.097656 74.394531 C 78.78125 74.394531 78.558594 74.3125 78.417969 74.140625 C 78.160156 73.820312 78.269531 73.304688 78.394531 72.707031 C 78.492188 72.25 78.605469 71.726562 78.523438 71.308594 C 78.46875 71.03125 78.378906 70.804688 78.277344 70.617188 L 77.519531 71.019531 C 77.464844 71.046875 77.402344 71.042969 77.351562 71.007812 C 77.300781 70.972656 77.273438 70.914062 77.28125 70.855469 L 77.421875 69.71875 C 77.425781 69.667969 77.457031 69.621094 77.5 69.597656 C 77.542969 69.570312 77.597656 69.566406 77.644531 69.585938 C 77.667969 69.59375 78.050781 69.746094 78.386719 70.1875 L 78.75 69.996094 C 78.667969 69.757812 78.535156 69.675781 78.355469 69.566406 C 78.121094 69.417969 77.828125 69.238281 77.640625 68.664062 C 77.53125 68.335938 76.925781 67.203125 73.660156 66.4375 C 72.210938 66.097656 71.207031 65.300781 70.90625 64.25 C 70.664062 63.414062 70.761719 62.03125 72.585938 60.191406 C 75.691406 57.0625 81.824219 57.089844 84.179688 58.765625 C 84.566406 59.042969 84.933594 59.304688 85.28125 59.546875 C 85.472656 59.316406 85.667969 59.085938 85.863281 58.851562 C 84.675781 57.371094 81.816406 57.394531 79.667969 57.410156 C 79.511719 57.414062 79.363281 57.414062 79.214844 57.414062 C 79.210938 57.414062 79.207031 57.414062 79.203125 57.414062 C 76.660156 57.414062 73.84375 54.738281 71.664062 50.246094 C 71.503906 49.914062 71.332031 49.609375 71.152344 49.335938 C 71.066406 50.042969 70.558594 50.675781 69.695312 51.148438 C 69.261719 51.382812 68.710938 51.648438 68.074219 51.957031 C 65.964844 52.976562 63.035156 54.394531 61.308594 56.191406 C 61.3125 56.25 61.316406 56.308594 61.320312 56.363281 C 61.464844 58.902344 61.613281 61.527344 61.351562 65.089844 C 61.316406 65.5625 61.246094 65.863281 61.128906 66.027344 C 62.621094 66.386719 64.050781 66.742188 65.304688 67.078125 C 67.777344 67.742188 70.566406 68.921875 72.804688 69.867188 C 74.273438 70.488281 75.542969 71.023438 76.257812 71.214844 C 76.867188 71.371094 76.992188 71.644531 76.992188 71.84375 C 76.992188 72.296875 76.34375 72.714844 75.730469 72.875 C 75.472656 72.941406 75.339844 73.050781 75.195312 73.164062 C 74.871094 73.429688 74.5625 73.675781 73.148438 73.453125 C 72.082031 73.28125 71.125 72.976562 70.167969 72.625 C 70.167969 72.6875 70.152344 72.75 70.125 72.808594 C 69.753906 73.59375 67.71875 73.933594 65.171875 73.636719 C 62.59375 73.335938 61.8125 73.300781 56.742188 73.453125 C 53.839844 73.542969 51.972656 72.917969 50.328125 72.363281 C 49.105469 71.953125 48.046875 71.597656 46.8125 71.628906 C 45.992188 71.652344 44.617188 71.878906 42.714844 72.199219 C 37.789062 73.019531 29.542969 74.394531 17.953125 74.394531 L 0.164062 74.394531 C 0.0742188 74.394531 0 74.324219 0 74.230469 C 0 74.140625 0.0742188 74.066406 0.164062 74.066406 L 17.953125 74.066406 C 29.515625 74.066406 37.742188 72.695312 42.660156 71.875 C 44.578125 71.554688 45.960938 71.324219 46.804688 71.300781 C 48.101562 71.269531 49.179688 71.632812 50.429688 72.054688 C 52.050781 72.597656 53.886719 73.214844 56.730469 73.125 C 61.824219 72.96875 62.613281 73.007812 65.210938 73.3125 C 67.769531 73.609375 69.566406 73.21875 69.828125 72.667969 C 69.847656 72.628906 69.84375 72.597656 69.824219 72.558594 C 69.804688 72.527344 69.78125 72.496094 69.746094 72.464844 C 69.53125 72.382812 69.3125 72.300781 69.089844 72.214844 C 68.886719 72.132812 68.679688 72.054688 68.464844 71.972656 C 67.890625 71.835938 67.164062 71.71875 66.335938 71.628906 C 65.574219 71.546875 64.917969 71.28125 64.222656 71 C 64.171875 70.980469 64.121094 70.960938 64.066406 70.941406 C 63.597656 70.925781 63.136719 70.941406 62.648438 70.953125 C 62.40625 70.960938 62.160156 70.964844 61.902344 70.96875 C 61.085938 70.984375 60.550781 70.839844 60.390625 70.566406 C 60.328125 70.457031 60.324219 70.332031 60.386719 70.222656 C 60.492188 70.042969 60.761719 69.929688 61.09375 69.929688 C 62.332031 69.929688 63.257812 70.261719 64.132812 70.613281 C 65.074219 70.640625 66.050781 70.773438 67.28125 71.191406 C 67.726562 71.34375 68.152344 71.5 68.5625 71.660156 C 69.117188 71.792969 69.609375 71.960938 69.898438 72.171875 C 70.96875 72.578125 72.019531 72.941406 73.203125 73.128906 C 74.46875 73.328125 74.710938 73.132812 74.992188 72.910156 C 75.144531 72.785156 75.320312 72.644531 75.644531 72.558594 C 76.21875 72.40625 76.664062 72.050781 76.664062 71.84375 C 76.664062 71.726562 76.480469 71.609375 76.175781 71.53125 C 75.4375 71.335938 74.21875 70.820312 72.675781 70.167969 C 70.445312 69.226562 67.671875 68.054688 65.222656 67.394531 C 61.9375 66.515625 57.4375 65.488281 53.820312 64.664062 C 52.917969 64.457031 52.074219 64.265625 51.332031 64.09375 C 49.601562 63.691406 48.65625 63.914062 47.460938 64.195312 L 47.140625 64.269531 C 45.597656 64.625 37.367188 65.378906 30.167969 64.847656 C 27.125 64.625 24.210938 64.574219 21.742188 64.679688 C 21.148438 64.914062 20.484375 65.050781 19.84375 65.148438 C 18.148438 65.40625 15.378906 66.539062 14.144531 67.476562 C 13.761719 67.765625 13.488281 67.859375 13.296875 67.769531 C 13.191406 67.71875 13.128906 67.609375 13.128906 67.476562 C 13.117188 66.996094 13.824219 66.101562 14.972656 65.492188 C 16.132812 64.878906 18.550781 64.484375 21.683594 64.347656 C 22.386719 64.0625 22.839844 63.679688 23.109375 63.167969 C 23.671875 62.101562 24.308594 61.101562 25.144531 61.019531 C 25.148438 61.019531 25.148438 61.019531 25.148438 61.019531 C 25.089844 60.609375 23.078125 58.867188 18.6875 58.148438 C 14.300781 57.429688 11.496094 58.054688 9.992188 58.386719 C 9.207031 58.5625 8.8125 58.648438 8.609375 58.453125 C 8.464844 58.316406 8.5 58.113281 8.511719 58.042969 C 8.761719 56.640625 12.078125 54.59375 17.433594 54.5625 C 17.480469 54.5625 17.53125 54.5625 17.578125 54.5625 C 20.664062 54.5625 22.429688 55.128906 23.386719 55.433594 C 23.710938 55.539062 24.046875 55.644531 24.117188 55.609375 C 24.113281 55.609375 24.136719 55.578125 24.132812 55.464844 C 24.117188 54.4375 23.46875 52.804688 22.832031 51.644531 C 22.746094 51.488281 22.484375 51.007812 22.773438 50.824219 C 23.179688 50.566406 24.304688 51.5 25.035156 52.507812 C 25.726562 53.464844 26.105469 54.28125 26.410156 54.9375 C 26.609375 55.367188 26.78125 55.742188 26.988281 56.019531 C 27.003906 56.039062 27.015625 56.050781 27.023438 56.058594 C 27.246094 55.84375 27.550781 54.035156 27.34375 50.390625 C 27.144531 46.84375 26.65625 42.859375 23.414062 40.511719 C 21.796875 39.34375 20.480469 39.347656 19.605469 39.351562 C 19.121094 39.351562 18.769531 39.355469 18.597656 39.117188 C 18.460938 38.929688 18.472656 38.65625 18.632812 38.171875 C 19.320312 36.113281 20.570312 35.140625 22.953125 34.808594 C 23.667969 34.710938 24.386719 34.730469 25.035156 34.855469 C 25.035156 34.5625 25.113281 34.324219 25.273438 34.152344 C 25.515625 33.890625 25.921875 33.828125 26.410156 33.984375 L 26.453125 33.996094 C 27.027344 34.179688 27.40625 34.296875 27.605469 34.183594 C 27.722656 34.113281 27.8125 33.945312 27.878906 33.65625 C 27.957031 33.316406 28.132812 33.074219 28.398438 32.929688 C 28.910156 32.660156 29.609375 32.859375 29.984375 33 C 30.589844 33.234375 30.828125 33.078125 31.277344 32.464844 C 31.652344 31.953125 32.058594 31.710938 32.457031 31.757812 C 32.949219 31.8125 33.382812 32.292969 33.773438 33.21875 C 35.609375 37.539062 39.796875 41.417969 42.671875 43.515625 C 42.066406 42.398438 41.425781 41.089844 40.738281 39.679688 L 40.3125 38.808594 C 38.527344 35.171875 36.210938 31.203125 34.347656 28.011719 C 33.253906 26.140625 32.390625 24.660156 31.925781 23.746094 C 31.03125 21.980469 31.351562 20.710938 31.609375 19.6875 C 31.71875 19.253906 31.8125 18.878906 31.804688 18.523438 C 31.726562 15.863281 32.125 6.9375 40.4375 3.832031 C 49.082031 0.605469 57.472656 4.589844 58.65625 5.457031 C 59.105469 5.785156 58.90625 6.089844 58.757812 6.3125 C 58.519531 6.671875 58.226562 7.113281 59.636719 8.304688 C 62.171875 10.441406 62.183594 15.691406 61.632812 17.898438 C 61.058594 20.191406 59.863281 20.710938 58.8125 21.167969 C 58.742188 21.199219 58.667969 21.230469 58.597656 21.265625 C 57.679688 21.671875 56.964844 21.679688 56.636719 21.277344 C 56.292969 20.863281 56.445312 20.125 57.050781 19.257812 C 57.085938 19.203125 57.113281 19.160156 57.132812 19.128906 C 57.019531 19.152344 56.847656 19.203125 56.710938 19.246094 C 56.582031 19.285156 56.445312 19.328125 56.300781 19.367188 C 55.753906 19.511719 55.375 19.46875 55.257812 19.246094 C 55.210938 19.164062 55.195312 19.046875 55.296875 18.890625 C 55.253906 18.898438 55.214844 18.90625 55.175781 18.914062 C 54.726562 19 54.367188 19.066406 54.304688 18.808594 C 54.292969 18.753906 54.144531 18.273438 53.265625 18.480469 C 52.707031 18.613281 52.351562 18.378906 52.210938 18.113281 C 52.027344 17.777344 52.117188 17.351562 52.4375 17.019531 C 52.015625 17.089844 51.058594 17.394531 50.261719 17.652344 L 49.867188 17.777344 C 48.820312 18.109375 47.796875 18.085938 46.808594 18.0625 C 46.101562 18.046875 45.433594 18.03125 44.839844 18.15625 C 44.3125 18.269531 44.039062 18.605469 43.664062 19.066406 C 43.117188 19.738281 42.367188 20.65625 40.363281 21.238281 C 38.472656 21.785156 38.21875 23.308594 37.976562 24.78125 C 37.839844 25.589844 37.714844 26.355469 37.332031 26.960938 C 37.234375 27.113281 37.132812 27.230469 37.03125 27.324219 C 37.101562 27.933594 37.203125 28.5 37.351562 28.992188 C 38.074219 31.40625 40.410156 35.578125 42.601562 37.707031 C 44.25 39.300781 45.75 40.339844 47.667969 40.394531 C 47.773438 40.03125 47.882812 39.660156 48.003906 39.289062 C 48.765625 36.902344 49.972656 36.167969 50.769531 35.679688 C 51.144531 35.453125 51.4375 35.273438 51.5625 35.003906 C 51.683594 34.742188 51.679688 34.648438 51.664062 34.375 C 51.652344 34.125 51.632812 33.746094 51.699219 33.027344 C 51.429688 32.964844 51.152344 32.945312 50.898438 32.984375 C 50.519531 33.046875 50.199219 32.914062 50.0625 32.640625 C 49.921875 32.355469 50.011719 31.996094 50.296875 31.726562 C 50.609375 31.429688 51.082031 31.347656 51.445312 31.523438 C 51.679688 31.640625 52.050781 31.949219 52.042969 32.777344 C 52.359375 32.878906 52.652344 33.027344 52.863281 33.183594 C 52.972656 33.265625 53.171875 33.320312 53.375 33.214844 C 53.679688 33.054688 53.835938 32.578125 53.8125 31.914062 C 53.738281 30.070312 53.671875 27.582031 53.734375 26.625 C 53.800781 25.558594 54.75 24.617188 56.089844 24.277344 C 57.402344 23.949219 58.464844 24.0625 58.859375 24.582031 C 59.015625 24.792969 59.140625 25.164062 58.816406 25.726562 C 58.753906 25.84375 58.691406 25.945312 58.636719 26.042969 C 58.128906 26.917969 58.039062 27.078125 57.839844 28.769531 L 57.816406 28.996094 C 57.613281 30.753906 57.402344 32.570312 55.59375 34.535156 C 55.152344 35.015625 54.734375 35.5625 54.304688 36.144531 C 54.359375 36.097656 54.414062 36.050781 54.460938 36.011719 C 55.53125 35.152344 56.574219 34.765625 56.996094 35.078125 C 57.117188 35.164062 57.285156 35.378906 57.101562 35.851562 C 56.632812 37.046875 56.710938 37.367188 56.800781 37.449219 C 56.835938 37.484375 56.964844 37.546875 57.378906 37.359375 C 58.589844 36.808594 59.828125 36.5 60.710938 37.945312 L 60.820312 38.121094 C 61.515625 39.261719 61.863281 39.839844 62.648438 39.796875 C 63.664062 39.746094 64.371094 40.441406 64.441406 41.570312 C 64.496094 42.488281 65.671875 45.117188 67.238281 45.648438 C 69.484375 46.414062 70.882812 47.527344 71.125 48.734375 C 71.414062 49.101562 71.691406 49.554688 71.960938 50.105469 C 74.082031 54.476562 76.785156 57.089844 79.199219 57.089844 C 79.207031 57.089844 79.210938 57.089844 79.214844 57.089844 C 79.359375 57.085938 79.511719 57.085938 79.664062 57.085938 C 81.867188 57.066406 84.777344 57.042969 86.078125 58.597656 C 88.5 55.714844 90.835938 52.945312 90.984375 52.773438 C 91.265625 52.449219 91.796875 52.320312 92.269531 52.695312 C 92.503906 52.878906 92.632812 53.09375 92.660156 53.328125 C 92.683594 53.546875 92.613281 53.773438 92.457031 53.96875 C 92.375 54.074219 91.609375 54.988281 90.554688 56.253906 C 89.539062 57.472656 88.171875 59.113281 86.886719 60.65625 C 87.800781 61.261719 88.492188 61.660156 89.015625 61.835938 C 89.914062 62.136719 90.5625 62.738281 90.671875 63.363281 C 90.6875 63.453125 90.699219 63.546875 90.714844 63.644531 C 90.785156 64.160156 90.847656 64.648438 91.378906 64.84375 C 92.1875 65.140625 92.1875 65.832031 92.183594 66.566406 L 92.183594 66.660156 C 92.183594 67 92.316406 67.285156 92.441406 67.5625 C 92.582031 67.871094 92.714844 68.164062 92.644531 68.496094 C 92.605469 68.675781 92.582031 68.953125 92.550781 69.277344 C 92.492188 69.898438 92.414062 70.75 92.179688 71.628906 C 91.839844 72.898438 90.785156 72.789062 89.9375 72.699219 C 89.792969 72.683594 89.648438 72.671875 89.511719 72.664062 C 88.84375 72.621094 87.0625 72.714844 85.757812 72.78125 C 85.230469 72.808594 84.769531 72.832031 84.527344 72.839844 C 84.511719 72.839844 84.496094 72.839844 84.484375 72.839844 C 83.796875 72.839844 82.820312 72.402344 82.484375 71.933594 C 82.324219 71.707031 82.339844 71.523438 82.382812 71.410156 C 82.394531 71.375 82.414062 71.339844 82.433594 71.308594 C 81.261719 71.222656 80.515625 70.703125 80.132812 70.34375 C 79.972656 70.191406 79.976562 70.042969 80 69.949219 C 79.609375 69.929688 79.273438 69.675781 79.054688 69.21875 C 78.832031 68.746094 78.476562 68.316406 78.132812 67.902344 C 77.613281 67.273438 77.078125 66.628906 77.023438 65.839844 C 76.980469 65.21875 77.257812 64.59375 77.765625 64.167969 C 78.394531 63.644531 79.285156 63.476562 80.214844 63.710938 C 80.621094 63.8125 81.226562 63.753906 81.898438 63.570312 C 82.738281 62.574219 83.878906 61.21875 85.066406 59.800781 C 84.726562 59.5625 84.367188 59.308594 83.988281 59.035156 C 81.722656 57.421875 75.816406 57.402344 72.816406 60.425781 C 71.464844 61.789062 70.910156 63.082031 71.222656 64.160156 C 71.488281 65.09375 72.40625 65.808594 73.734375 66.121094 C 76.085938 66.671875 77.621094 67.558594 77.949219 68.5625 C 78.101562 69.023438 78.308594 69.152344 78.527344 69.285156 C 78.75 69.421875 78.996094 69.574219 79.105469 70.046875 C 79.121094 70.117188 79.085938 70.191406 79.019531 70.226562 L 78.566406 70.46875 C 78.683594 70.679688 78.785156 70.933594 78.84375 71.246094 C 78.941406 71.734375 78.820312 72.289062 78.714844 72.777344 C 78.613281 73.269531 78.511719 73.734375 78.671875 73.933594 C 78.746094 74.023438 78.886719 74.070312 79.097656 74.070312 L 149.835938 74.070312 C 149.925781 74.070312 150 74.144531 150 74.234375 C 150 74.324219 149.925781 74.394531 149.835938 74.394531 Z M 83.214844 71.296875 C 82.9375 71.335938 82.734375 71.40625 82.691406 71.519531 C 82.667969 71.578125 82.691406 71.652344 82.753906 71.742188 C 83.035156 72.132812 83.941406 72.53125 84.519531 72.511719 C 84.757812 72.503906 85.214844 72.480469 85.742188 72.453125 C 87.050781 72.382812 88.84375 72.289062 89.53125 72.332031 C 89.675781 72.34375 89.820312 72.355469 89.96875 72.371094 C 90.84375 72.460938 91.59375 72.539062 91.863281 71.542969 C 92.089844 70.691406 92.167969 69.855469 92.222656 69.246094 C 92.257812 68.898438 92.28125 68.625 92.324219 68.425781 C 92.371094 68.203125 92.265625 67.96875 92.140625 67.699219 C 92.007812 67.402344 91.855469 67.070312 91.855469 66.65625 L 91.855469 66.5625 C 91.859375 65.777344 91.832031 65.359375 91.265625 65.148438 C 90.550781 64.886719 90.460938 64.222656 90.386719 63.6875 C 90.375 63.59375 90.363281 63.503906 90.347656 63.417969 C 90.261719 62.914062 89.683594 62.40625 88.914062 62.144531 C 88.355469 61.957031 87.628906 61.539062 86.675781 60.90625 C 84.871094 63.078125 83.285156 64.996094 83.171875 65.167969 C 83.167969 65.175781 83.164062 65.179688 83.160156 65.183594 C 83.070312 65.289062 82.929688 65.355469 82.75 65.433594 C 82.328125 65.625 81.75 65.886719 81.566406 66.855469 C 81.546875 66.964844 81.535156 67.066406 81.535156 67.160156 C 81.554688 67.269531 81.570312 67.386719 81.582031 67.503906 C 81.605469 67.570312 81.636719 67.628906 81.675781 67.679688 C 81.925781 67.996094 82.492188 68.03125 82.992188 68.0625 C 83.089844 68.066406 83.183594 68.074219 83.273438 68.082031 C 83.421875 68.09375 83.582031 68.117188 83.753906 68.140625 C 84.078125 68.1875 84.433594 68.238281 84.777344 68.230469 C 85.003906 67.964844 85.261719 67.609375 85.609375 67.140625 L 85.738281 66.964844 C 86.6875 65.679688 87.761719 64.917969 88.09375 64.957031 C 88.175781 64.964844 88.238281 65.011719 88.269531 65.082031 C 88.324219 65.210938 88.234375 65.359375 88.148438 65.46875 C 87.984375 65.683594 87.816406 65.882812 87.644531 66.089844 C 87.289062 66.511719 86.890625 66.988281 86.402344 67.738281 C 86.023438 68.316406 85.480469 68.511719 84.925781 68.550781 C 84.40625 69.128906 83.976562 69.308594 83.113281 69.308594 C 81.902344 69.308594 80.4375 69.730469 80.320312 70.027344 C 80.316406 70.039062 80.308594 70.054688 80.359375 70.101562 C 80.777344 70.496094 81.6875 71.109375 83.191406 70.96875 C 83.265625 70.957031 83.339844 70.949219 83.421875 70.941406 C 83.4375 70.941406 83.453125 70.9375 83.46875 70.9375 C 84.328125 70.808594 85.667969 70.613281 86.800781 70.125 C 87.0625 69.765625 87.347656 69.28125 87.710938 68.671875 C 88.414062 67.476562 89.234375 67.175781 89.617188 67.191406 C 89.808594 67.199219 89.886719 67.277344 89.917969 67.34375 C 89.953125 67.414062 89.945312 67.5 89.898438 67.566406 C 89.878906 67.597656 89.855469 67.628906 89.832031 67.664062 C 89.699219 67.867188 89.472656 68.203125 88.550781 69.300781 C 88.15625 69.769531 87.613281 70.121094 87.007812 70.390625 C 86.554688 70.988281 86.128906 71.285156 85.480469 71.273438 C 85.324219 71.273438 85.148438 71.265625 84.960938 71.261719 C 84.570312 71.25 83.941406 71.230469 83.441406 71.273438 C 83.367188 71.28125 83.289062 71.289062 83.214844 71.296875 Z M 65.214844 71.03125 C 65.589844 71.15625 65.96875 71.257812 66.371094 71.300781 C 66.453125 71.308594 66.539062 71.320312 66.628906 71.332031 C 66.121094 71.183594 65.65625 71.089844 65.214844 71.03125 Z M 85.300781 70.941406 C 85.363281 70.945312 85.425781 70.945312 85.484375 70.945312 C 85.492188 70.945312 85.496094 70.945312 85.503906 70.945312 C 85.816406 70.945312 86.070312 70.855469 86.308594 70.664062 C 85.972656 70.773438 85.632812 70.867188 85.300781 70.941406 Z M 61.09375 70.257812 C 60.796875 70.257812 60.675781 70.367188 60.667969 70.394531 C 60.675781 70.4375 60.914062 70.65625 61.898438 70.640625 C 62.152344 70.636719 62.398438 70.632812 62.640625 70.625 C 62.824219 70.621094 63.007812 70.613281 63.1875 70.613281 C 62.570312 70.40625 61.898438 70.257812 61.09375 70.257812 Z M 77.71875 69.996094 L 77.644531 70.582031 L 78.09375 70.34375 C 77.960938 70.179688 77.824219 70.070312 77.71875 69.996094 Z M 89.535156 67.519531 C 89.246094 67.550781 88.582031 67.839844 87.992188 68.835938 C 87.773438 69.210938 87.578125 69.539062 87.398438 69.828125 C 87.746094 69.621094 88.054688 69.378906 88.296875 69.089844 C 89.148438 68.078125 89.398438 67.722656 89.535156 67.519531 Z M 79.40625 63.933594 C 78.859375 63.933594 78.359375 64.097656 77.976562 64.417969 C 77.550781 64.777344 77.316406 65.300781 77.351562 65.816406 C 77.398438 66.496094 77.878906 67.078125 78.386719 67.691406 C 78.742188 68.121094 79.113281 68.566406 79.355469 69.074219 C 79.546875 69.488281 79.847656 69.675781 80.195312 69.605469 C 80.691406 69.503906 81.226562 68.886719 81.265625 68.027344 C 81.273438 67.871094 81.269531 67.71875 81.257812 67.570312 C 81.222656 67.457031 81.203125 67.328125 81.207031 67.1875 C 81.074219 66.53125 80.761719 66.042969 80.40625 65.753906 C 80.050781 66.027344 79.824219 66.007812 79.683594 65.914062 C 79.527344 65.808594 79.480469 65.589844 79.578125 65.402344 C 79.664062 65.238281 79.875 65.113281 80.140625 65.21875 C 80.222656 65.25 80.304688 65.292969 80.386719 65.339844 C 80.484375 65.246094 80.597656 65.128906 80.726562 64.972656 C 80.894531 64.769531 81.179688 64.429688 81.550781 63.988281 C 80.992188 64.097656 80.496094 64.117188 80.132812 64.027344 C 79.886719 63.964844 79.640625 63.933594 79.40625 63.933594 Z M 81.589844 68.054688 C 81.570312 68.5 81.425781 68.917969 81.199219 69.246094 C 81.855469 69.074219 82.625 68.980469 83.113281 68.980469 C 83.746094 68.980469 84.089844 68.894531 84.46875 68.550781 C 84.203125 68.539062 83.945312 68.5 83.707031 68.464844 C 83.542969 68.441406 83.382812 68.417969 83.246094 68.40625 C 83.160156 68.402344 83.066406 68.394531 82.972656 68.390625 C 82.488281 68.359375 81.949219 68.328125 81.589844 68.054688 Z M 87.777344 65.410156 C 87.394531 65.648438 86.703125 66.210938 86.003906 67.15625 L 85.875 67.335938 C 85.632812 67.664062 85.429688 67.9375 85.246094 68.171875 C 85.585938 68.089844 85.898438 67.910156 86.128906 67.558594 C 86.628906 66.792969 87.035156 66.308594 87.390625 65.882812 C 87.523438 65.722656 87.652344 65.570312 87.777344 65.410156 Z M 20.015625 64.785156 C 17.757812 64.96875 16.023438 65.308594 15.128906 65.78125 C 13.914062 66.421875 13.421875 67.269531 13.453125 67.472656 C 13.496094 67.472656 13.640625 67.445312 13.945312 67.214844 C 15.214844 66.25 18.054688 65.089844 19.792969 64.824219 C 19.871094 64.8125 19.945312 64.800781 20.015625 64.785156 Z M 80.65625 65.535156 C 80.917969 65.761719 81.15625 66.078125 81.324219 66.472656 C 81.605469 65.589844 82.226562 65.308594 82.617188 65.136719 C 82.742188 65.078125 82.859375 65.027344 82.902344 64.980469 C 83.019531 64.8125 83.792969 63.871094 84.933594 62.492188 C 84.078125 63.109375 83.03125 63.59375 82.089844 63.855469 C 81.578125 64.464844 81.1875 64.933594 80.976562 65.183594 C 80.863281 65.324219 80.753906 65.4375 80.65625 65.535156 Z M 49.601562 63.542969 C 50.117188 63.542969 50.699219 63.609375 51.40625 63.773438 C 52.148438 63.945312 52.992188 64.136719 53.894531 64.34375 C 55.929688 64.808594 58.246094 65.335938 60.46875 65.867188 C 59.761719 64.746094 58.871094 60.375 59.785156 57.910156 C 60.027344 57.257812 60.445312 56.644531 60.976562 56.074219 C 60.859375 54.019531 60.761719 52.050781 60.914062 49.738281 C 61.15625 46.113281 62.011719 43.386719 62.46875 43.175781 C 62.546875 43.136719 62.632812 43.144531 62.699219 43.195312 C 62.8125 43.28125 62.902344 43.484375 62.769531 44.398438 C 62.367188 47.15625 62.601562 49.578125 62.871094 51.121094 C 62.941406 51.535156 63.0625 51.785156 63.203125 51.808594 C 63.332031 51.828125 63.832031 51.71875 64.976562 49.535156 C 65.585938 48.371094 66.878906 47.207031 68.394531 47.207031 C 68.410156 47.207031 68.425781 47.207031 68.441406 47.207031 C 69.011719 47.214844 69.726562 47.394531 70.453125 48.019531 C 69.898438 47.230469 68.746094 46.507812 67.132812 45.960938 C 65.410156 45.375 64.175781 42.601562 64.113281 41.585938 C 64.054688 40.640625 63.5 40.078125 62.667969 40.125 C 61.683594 40.171875 61.253906 39.464844 60.539062 38.289062 L 60.433594 38.113281 C 59.722656 36.953125 58.789062 37.078125 57.515625 37.65625 C 57.070312 37.859375 56.761719 37.867188 56.574219 37.6875 C 56.292969 37.421875 56.359375 36.835938 56.796875 35.730469 C 56.832031 35.636719 56.90625 35.414062 56.804688 35.339844 C 56.589844 35.183594 55.726562 35.417969 54.667969 36.265625 C 53.25 37.40625 49.578125 42.011719 47.605469 45.789062 C 47.113281 46.734375 46.585938 47.191406 45.976562 47.183594 C 45.039062 47.167969 44.089844 46 43.042969 44.179688 C 40.144531 42.175781 35.457031 38.019531 33.472656 33.34375 C 33.140625 32.558594 32.777344 32.125 32.417969 32.082031 C 32.074219 32.039062 31.753906 32.375 31.542969 32.660156 C 31.042969 33.34375 30.664062 33.613281 29.867188 33.308594 C 29.320312 33.097656 28.84375 33.066406 28.554688 33.222656 C 28.371094 33.316406 28.257812 33.484375 28.199219 33.730469 C 28.109375 34.121094 27.976562 34.351562 27.769531 34.46875 C 27.445312 34.652344 27.011719 34.515625 26.355469 34.3125 L 26.3125 34.296875 C 25.949219 34.183594 25.667969 34.210938 25.515625 34.375 C 25.402344 34.496094 25.351562 34.691406 25.367188 34.929688 C 25.914062 35.074219 26.394531 35.292969 26.757812 35.582031 C 27.117188 35.871094 27.320312 36.199219 27.347656 36.535156 C 27.390625 37.011719 27.105469 37.132812 26.984375 37.160156 C 26.492188 37.277344 25.609375 36.6875 25.242188 35.78125 C 25.160156 35.574219 25.101562 35.378906 25.070312 35.195312 C 24.488281 35.070312 23.785156 35.023438 23 35.132812 C 20.761719 35.445312 19.585938 36.355469 18.945312 38.277344 C 18.800781 38.707031 18.820312 38.863281 18.863281 38.921875 C 18.9375 39.023438 19.246094 39.023438 19.605469 39.023438 C 20.464844 39.019531 21.90625 39.015625 23.605469 40.246094 C 26.964844 42.679688 27.46875 46.75 27.671875 50.371094 C 27.792969 52.488281 27.8125 56.132812 27.121094 56.382812 C 27.042969 56.410156 26.882812 56.425781 26.722656 56.214844 C 26.5 55.910156 26.320312 55.523438 26.113281 55.074219 C 25.8125 54.429688 25.445312 53.628906 24.769531 52.703125 C 24.03125 51.683594 23.203125 51.125 22.96875 51.105469 C 22.972656 51.152344 23 51.265625 23.121094 51.488281 C 23.726562 52.59375 24.441406 54.300781 24.460938 55.457031 C 24.464844 55.585938 24.449219 55.769531 24.3125 55.875 C 24.121094 56.015625 23.839844 55.925781 23.285156 55.746094 C 22.332031 55.441406 20.558594 54.871094 17.433594 54.890625 C 12.082031 54.921875 9.035156 56.964844 8.835938 58.101562 C 8.820312 58.191406 8.835938 58.21875 8.835938 58.21875 C 8.910156 58.292969 9.445312 58.171875 9.921875 58.066406 C 11.449219 57.726562 14.292969 57.097656 18.738281 57.824219 C 23.148438 58.546875 25.503906 60.339844 25.476562 61.058594 C 25.472656 61.183594 25.390625 61.328125 25.175781 61.347656 C 24.492188 61.414062 23.894531 62.382812 23.398438 63.324219 C 23.175781 63.746094 22.851562 64.070312 22.460938 64.320312 C 24.765625 64.253906 27.40625 64.316406 30.191406 64.519531 C 37.726562 65.074219 45.847656 64.234375 47.070312 63.949219 L 47.386719 63.875 C 48.140625 63.699219 48.796875 63.542969 49.601562 63.542969 Z M 61 56.535156 C 60.601562 57.007812 60.289062 57.503906 60.09375 58.023438 C 59.28125 60.21875 59.984375 64.152344 60.625 65.480469 C 60.746094 65.730469 60.832031 65.8125 60.863281 65.835938 C 60.894531 65.792969 60.980469 65.628906 61.023438 65.066406 C 61.277344 61.597656 61.140625 59.015625 61 56.535156 Z M 79.945312 65.507812 C 79.894531 65.507812 79.878906 65.542969 79.871094 65.554688 C 79.851562 65.59375 79.859375 65.632812 79.867188 65.640625 C 79.886719 65.652344 79.964844 65.652344 80.105469 65.5625 C 80.078125 65.546875 80.050781 65.535156 80.023438 65.523438 C 79.992188 65.511719 79.964844 65.507812 79.945312 65.507812 Z M 85.335938 59.988281 C 84.289062 61.234375 83.28125 62.4375 82.480469 63.390625 C 83.652344 62.980469 84.914062 62.257812 85.675781 61.398438 C 85.917969 61.121094 86.09375 60.851562 86.199219 60.585938 C 85.929688 60.402344 85.640625 60.203125 85.335938 59.988281 Z M 86.589844 60.453125 C 86.597656 60.460938 86.605469 60.464844 86.613281 60.472656 C 87.734375 59.121094 89.015625 57.585938 90.300781 56.042969 C 91.355469 54.777344 92.121094 53.863281 92.199219 53.761719 C 92.257812 53.6875 92.355469 53.539062 92.332031 53.363281 C 92.316406 53.21875 92.226562 53.078125 92.066406 52.949219 C 91.742188 52.691406 91.40625 52.789062 91.230469 52.988281 C 91.082031 53.160156 88.71875 55.96875 86.277344 58.867188 C 86.378906 59.023438 86.464844 59.191406 86.535156 59.371094 C 86.667969 59.71875 86.683594 60.082031 86.589844 60.453125 Z M 85.550781 59.738281 C 85.8125 59.921875 86.0625 60.09375 86.296875 60.257812 C 86.347656 59.992188 86.324219 59.738281 86.230469 59.492188 C 86.179688 59.363281 86.121094 59.246094 86.054688 59.132812 C 85.886719 59.335938 85.71875 59.535156 85.550781 59.738281 Z M 62.503906 43.609375 C 62.183594 44.175781 61.46875 46.34375 61.242188 49.761719 C 61.097656 51.941406 61.179688 53.816406 61.285156 55.753906 C 63.074219 54.011719 65.882812 52.652344 67.929688 51.664062 C 68.566406 51.355469 69.113281 51.089844 69.535156 50.859375 C 70.433594 50.371094 70.894531 49.703125 70.832031 48.980469 C 70.828125 48.945312 70.824219 48.910156 70.816406 48.875 C 70.121094 48.007812 69.3125 47.546875 68.4375 47.535156 C 68.421875 47.535156 68.410156 47.535156 68.394531 47.535156 C 67.015625 47.535156 65.832031 48.609375 65.265625 49.6875 C 63.925781 52.253906 63.34375 52.160156 63.152344 52.128906 C 62.847656 52.082031 62.648438 51.769531 62.546875 51.179688 C 62.277344 49.609375 62.039062 47.152344 62.445312 44.347656 C 62.5 43.96875 62.507812 43.742188 62.503906 43.609375 Z M 43.671875 44.597656 C 44.511719 45.96875 45.28125 46.84375 45.980469 46.855469 C 45.984375 46.855469 45.988281 46.855469 45.992188 46.855469 C 46.449219 46.855469 46.894531 46.445312 47.316406 45.636719 C 48.355469 43.644531 49.824219 41.472656 51.207031 39.667969 C 50.65625 40.074219 50.054688 40.382812 49.375 40.539062 C 48.863281 40.65625 48.378906 40.714844 47.917969 40.71875 C 47.867188 40.902344 47.816406 41.085938 47.765625 41.265625 C 47.207031 43.25 46.769531 44.820312 45.804688 45.214844 C 45.378906 45.390625 44.894531 45.316406 44.324219 44.992188 C 44.125 44.882812 43.90625 44.75 43.671875 44.597656 Z M 43.292969 43.953125 C 43.742188 44.261719 44.144531 44.515625 44.484375 44.707031 C 44.960938 44.980469 45.351562 45.046875 45.679688 44.910156 C 46.496094 44.578125 46.9375 43 47.449219 41.179688 C 47.492188 41.023438 47.535156 40.871094 47.578125 40.714844 C 45.589844 40.625 44.015625 39.53125 42.375 37.941406 C 40.144531 35.78125 37.773438 31.539062 37.035156 29.085938 C 36.894531 28.621094 36.796875 28.089844 36.722656 27.527344 C 36.523438 27.621094 36.332031 27.640625 36.171875 27.632812 C 35.175781 27.582031 34.046875 26.351562 33.445312 25.15625 C 32.664062 23.609375 32.367188 21.492188 33.460938 20.257812 C 34.015625 19.632812 34.769531 19.328125 35.429688 19.460938 C 35.980469 19.574219 36.394531 19.964844 36.59375 20.558594 C 36.789062 21.136719 36.8125 22.320312 36.84375 23.6875 C 36.863281 24.730469 36.886719 25.851562 36.984375 26.886719 C 37.007812 26.855469 37.03125 26.820312 37.054688 26.785156 C 37.402344 26.238281 37.523438 25.503906 37.652344 24.726562 C 37.902344 23.226562 38.183594 21.527344 40.273438 20.921875 C 42.175781 20.371094 42.859375 19.53125 43.410156 18.859375 C 43.796875 18.382812 44.132812 17.972656 44.773438 17.835938 C 45.402344 17.703125 46.089844 17.71875 46.816406 17.734375 C 47.777344 17.757812 48.773438 17.78125 49.769531 17.464844 L 50.160156 17.335938 C 52.214844 16.679688 52.710938 16.550781 52.859375 16.796875 C 52.960938 16.96875 52.78125 17.140625 52.703125 17.214844 C 52.460938 17.449219 52.382812 17.738281 52.5 17.957031 C 52.609375 18.160156 52.867188 18.238281 53.191406 18.160156 C 54.21875 17.921875 54.523438 18.457031 54.601562 18.660156 C 54.714844 18.667969 54.972656 18.617188 55.117188 18.589844 C 55.519531 18.515625 55.71875 18.476562 55.800781 18.640625 C 55.871094 18.789062 55.730469 18.910156 55.683594 18.953125 C 55.597656 19.023438 55.570312 19.074219 55.558594 19.09375 C 55.621094 19.125 55.839844 19.148438 56.214844 19.046875 C 56.355469 19.011719 56.492188 18.96875 56.617188 18.929688 C 57.0625 18.792969 57.332031 18.710938 57.460938 18.890625 C 57.570312 19.039062 57.457031 19.246094 57.320312 19.441406 C 56.820312 20.160156 56.65625 20.785156 56.890625 21.070312 C 57.113281 21.34375 57.703125 21.300781 58.464844 20.964844 C 58.535156 20.929688 58.609375 20.898438 58.683594 20.867188 C 59.714844 20.417969 60.777344 19.953125 61.3125 17.816406 C 61.847656 15.675781 61.851562 10.597656 59.425781 8.554688 C 57.917969 7.28125 58.132812 6.660156 58.484375 6.132812 C 58.632812 5.90625 58.660156 5.867188 58.460938 5.71875 C 57.300781 4.871094 49.0625 0.960938 40.554688 4.140625 C 32.445312 7.167969 32.058594 15.910156 32.132812 18.515625 C 32.144531 18.914062 32.039062 19.328125 31.929688 19.765625 C 31.671875 20.785156 31.382812 21.941406 32.222656 23.597656 C 32.679688 24.503906 33.542969 25.980469 34.632812 27.847656 C 36.496094 31.042969 38.816406 35.015625 40.609375 38.664062 L 41.035156 39.535156 C 41.832031 41.167969 42.585938 42.710938 43.292969 43.953125 Z M 52.019531 33.117188 C 51.964844 33.773438 51.980469 34.121094 51.992188 34.355469 C 52.007812 34.644531 52.015625 34.804688 51.859375 35.140625 C 51.695312 35.5 51.347656 35.714844 50.941406 35.960938 C 50.140625 36.449219 49.042969 37.117188 48.316406 39.386719 C 48.207031 39.726562 48.109375 40.0625 48.011719 40.390625 C 48.421875 40.378906 48.847656 40.324219 49.300781 40.21875 C 51.214844 39.777344 52.527344 37.996094 53.800781 36.273438 C 54.324219 35.5625 54.816406 34.890625 55.351562 34.3125 C 57.089844 32.425781 57.292969 30.660156 57.488281 28.957031 L 57.515625 28.730469 C 57.722656 26.96875 57.828125 26.78125 58.351562 25.875 C 58.40625 25.78125 58.46875 25.675781 58.53125 25.5625 C 58.71875 25.234375 58.742188 24.972656 58.597656 24.78125 C 58.292969 24.378906 57.316406 24.304688 56.171875 24.59375 C 54.988281 24.894531 54.121094 25.738281 54.0625 26.644531 C 54 27.589844 54.066406 30.066406 54.140625 31.898438 C 54.183594 32.988281 53.773438 33.371094 53.527344 33.503906 C 53.253906 33.648438 52.917969 33.628906 52.671875 33.445312 C 52.503906 33.324219 52.273438 33.207031 52.019531 33.117188 Z M 25.425781 35.285156 C 25.453125 35.402344 25.496094 35.527344 25.546875 35.65625 C 25.871094 36.464844 26.625 36.910156 26.90625 36.839844 C 26.941406 36.832031 27.042969 36.808594 27.023438 36.558594 C 27.003906 36.320312 26.835938 36.066406 26.550781 35.839844 C 26.296875 35.636719 25.914062 35.433594 25.425781 35.285156 Z M 51.175781 32.636719 C 51.351562 32.636719 51.535156 32.65625 51.714844 32.691406 C 51.703125 32.25 51.5625 31.945312 51.304688 31.820312 C 51.03125 31.6875 50.703125 31.792969 50.523438 31.964844 C 50.347656 32.132812 50.28125 32.339844 50.355469 32.492188 C 50.425781 32.636719 50.609375 32.699219 50.84375 32.660156 C 50.953125 32.644531 51.0625 32.636719 51.175781 32.636719 Z M 35.113281 19.757812 C 34.632812 19.757812 34.113281 20.019531 33.707031 20.476562 C 32.863281 21.429688 32.875 23.292969 33.738281 25.007812 C 34.28125 26.089844 35.328125 27.261719 36.1875 27.304688 C 36.371094 27.3125 36.535156 27.273438 36.683594 27.175781 C 36.5625 26.058594 36.539062 24.828125 36.511719 23.695312 C 36.484375 22.351562 36.460938 21.195312 36.28125 20.664062 C 36.121094 20.183594 35.796875 19.871094 35.363281 19.785156 C 35.28125 19.765625 35.199219 19.757812 35.113281 19.757812 Z M 55.503906 18.664062 Z M 55.503906 18.664062 " fill-opacity="1" fill-rule="nonzero"/></g></svg>