<svg xmlns="http://www.w3.org/2000/svg" xmlns:xlink="http://www.w3.org/1999/xlink" width="200" zoomAndPan="magnify" viewBox="0 0 150 149.999998" height="200" preserveAspectRatio="xMidYMid meet" version="1.0"><path fill="#ffffff" d="M 73.660156 2.007812 C 70.5625 2.003906 67.476562 2.207031 64.40625 2.609375 C 61.335938 3.015625 58.300781 3.621094 55.3125 4.425781 C 52.320312 5.230469 49.394531 6.230469 46.535156 7.421875 C 43.675781 8.617188 40.90625 9.992188 38.230469 11.550781 C 35.554688 13.109375 32.988281 14.839844 30.542969 16.738281 C 28.09375 18.636719 25.78125 20.6875 23.605469 22.890625 C 21.425781 25.097656 19.40625 27.433594 17.539062 29.90625 C 15.671875 32.378906 13.972656 34.964844 12.449219 37.660156 C 10.921875 40.355469 9.582031 43.144531 8.425781 46.015625 C 7.269531 48.890625 6.308594 51.828125 5.539062 54.832031 C 4.769531 57.832031 4.203125 60.871094 3.839844 63.949219 C 3.472656 67.023438 3.3125 70.109375 3.355469 73.210938 C 3.398438 76.308594 3.644531 79.386719 4.097656 82.453125 C 4.546875 85.519531 5.199219 88.539062 6.046875 91.519531 C 6.898438 94.5 7.941406 97.410156 9.179688 100.25 C 10.414062 103.089844 11.832031 105.839844 13.433594 108.492188 L 3.519531 138.226562 C 3.433594 138.476562 3.382812 138.734375 3.359375 139 C 3.335938 139.265625 3.34375 139.527344 3.386719 139.789062 C 3.425781 140.050781 3.496094 140.304688 3.597656 140.550781 C 3.695312 140.796875 3.824219 141.027344 3.980469 141.242188 C 4.136719 141.457031 4.3125 141.652344 4.515625 141.824219 C 4.714844 141.996094 4.933594 142.144531 5.171875 142.265625 C 5.40625 142.386719 5.652344 142.476562 5.910156 142.539062 C 6.167969 142.601562 6.429688 142.632812 6.695312 142.632812 C 7.058594 142.632812 7.414062 142.578125 7.753906 142.460938 L 37.492188 132.550781 C 38.648438 133.246094 39.820312 133.90625 41.015625 134.53125 C 42.210938 135.160156 43.421875 135.75 44.648438 136.308594 C 45.878906 136.863281 47.121094 137.386719 48.378906 137.871094 C 49.636719 138.355469 50.910156 138.804688 52.191406 139.21875 C 53.476562 139.632812 54.769531 140.007812 56.078125 140.34375 C 57.382812 140.683594 58.695312 140.980469 60.019531 141.242188 C 61.34375 141.507812 62.671875 141.730469 64.007812 141.914062 C 65.34375 142.101562 66.683594 142.25 68.027344 142.355469 C 69.371094 142.464844 70.71875 142.535156 72.066406 142.566406 C 73.414062 142.597656 74.761719 142.589844 76.109375 142.542969 C 77.457031 142.496094 78.804688 142.410156 80.144531 142.289062 C 81.488281 142.164062 82.828125 142 84.160156 141.800781 C 85.496094 141.597656 86.820312 141.359375 88.140625 141.082031 C 89.460938 140.804688 90.773438 140.488281 92.074219 140.136719 C 93.375 139.785156 94.664062 139.394531 95.945312 138.96875 C 97.222656 138.539062 98.488281 138.078125 99.742188 137.578125 C 100.996094 137.078125 102.230469 136.542969 103.453125 135.96875 C 104.675781 135.398438 105.878906 134.792969 107.066406 134.152344 C 108.253906 133.511719 109.421875 132.839844 110.570312 132.128906 C 111.714844 131.421875 112.84375 130.683594 113.949219 129.910156 C 115.054688 129.136719 116.136719 128.335938 117.195312 127.5 C 118.253906 126.664062 119.289062 125.800781 120.296875 124.90625 C 121.308594 124.011719 122.289062 123.089844 123.246094 122.136719 C 124.203125 121.1875 125.132812 120.207031 126.03125 119.203125 C 126.929688 118.199219 127.800781 117.171875 128.640625 116.117188 C 129.484375 115.0625 130.292969 113.984375 131.070312 112.882812 C 131.851562 111.78125 132.597656 110.660156 133.3125 109.515625 C 134.023438 108.371094 134.707031 107.207031 135.351562 106.023438 C 136 104.839844 136.613281 103.640625 137.191406 102.421875 C 137.769531 101.203125 138.3125 99.96875 138.816406 98.71875 C 139.324219 97.46875 139.796875 96.207031 140.230469 94.929688 C 140.664062 93.652344 141.0625 92.363281 141.421875 91.066406 C 141.78125 89.765625 142.105469 88.457031 142.386719 87.136719 C 142.671875 85.820312 142.921875 84.496094 143.128906 83.164062 C 143.335938 81.832031 143.507812 80.492188 143.636719 79.152344 C 143.769531 77.808594 143.863281 76.464844 143.917969 75.117188 C 143.972656 73.769531 143.984375 72.421875 143.960938 71.070312 C 143.9375 69.722656 143.875 68.378906 143.777344 67.03125 C 143.675781 65.6875 143.535156 64.347656 143.355469 63.011719 C 143.179688 61.671875 142.960938 60.34375 142.707031 59.019531 C 142.453125 57.695312 142.160156 56.378906 141.828125 55.070312 C 141.5 53.761719 141.132812 52.464844 140.726562 51.179688 C 140.320312 49.894531 139.878906 48.621094 139.402344 47.359375 C 138.921875 46.097656 138.40625 44.851562 137.859375 43.621094 C 137.308594 42.390625 136.722656 41.175781 136.101562 39.976562 C 135.480469 38.78125 134.828125 37.601562 134.140625 36.441406 C 133.453125 35.28125 132.730469 34.140625 131.976562 33.023438 C 131.222656 31.90625 130.4375 30.808594 129.621094 29.734375 C 128.804688 28.664062 127.960938 27.613281 127.082031 26.589844 C 126.203125 25.566406 125.300781 24.566406 124.363281 23.59375 C 123.429688 22.621094 122.46875 21.675781 121.480469 20.757812 C 120.492188 19.84375 119.476562 18.953125 118.4375 18.097656 C 117.398438 17.238281 116.332031 16.410156 115.246094 15.613281 C 114.15625 14.816406 113.046875 14.050781 111.917969 13.316406 C 110.785156 12.582031 109.632812 11.882812 108.460938 11.214844 C 107.289062 10.546875 106.097656 9.914062 104.890625 9.316406 C 103.683594 8.71875 102.457031 8.152344 101.214844 7.625 C 99.976562 7.097656 98.71875 6.605469 97.453125 6.148438 C 96.183594 5.691406 94.902344 5.273438 93.609375 4.890625 C 92.3125 4.507812 91.011719 4.164062 89.699219 3.855469 C 88.382812 3.550781 87.0625 3.28125 85.734375 3.050781 C 84.40625 2.816406 83.070312 2.625 81.734375 2.472656 C 80.394531 2.316406 79.050781 2.199219 77.703125 2.125 C 76.355469 2.046875 75.007812 2.007812 73.660156 2.007812 Z M 73.660156 135.9375 C 67.648438 135.933594 61.753906 135.089844 55.980469 133.410156 C 50.207031 131.726562 44.78125 129.273438 39.707031 126.050781 C 39.160156 125.703125 38.5625 125.53125 37.914062 125.53125 C 37.554688 125.53125 37.199219 125.585938 36.855469 125.703125 L 11.988281 133.992188 L 20.277344 109.125 C 20.4375 108.648438 20.484375 108.160156 20.425781 107.660156 C 20.363281 107.164062 20.199219 106.699219 19.933594 106.273438 C 19.3125 105.289062 18.71875 104.289062 18.152344 103.269531 C 17.585938 102.25 17.046875 101.21875 16.539062 100.171875 C 16.027344 99.125 15.546875 98.0625 15.097656 96.988281 C 14.644531 95.914062 14.222656 94.828125 13.832031 93.734375 C 13.441406 92.636719 13.078125 91.527344 12.75 90.410156 C 12.417969 89.296875 12.117188 88.171875 11.851562 87.035156 C 11.582031 85.902344 11.34375 84.761719 11.136719 83.617188 C 10.929688 82.46875 10.757812 81.320312 10.613281 80.164062 C 10.472656 79.007812 10.359375 77.847656 10.28125 76.6875 C 10.203125 75.523438 10.15625 74.359375 10.140625 73.195312 C 10.125 72.03125 10.140625 70.867188 10.191406 69.703125 C 10.238281 68.539062 10.320312 67.378906 10.433594 66.21875 C 10.542969 65.058594 10.6875 63.902344 10.863281 62.753906 C 11.042969 61.601562 11.25 60.453125 11.488281 59.316406 C 11.726562 58.175781 11.996094 57.042969 12.296875 55.917969 C 12.601562 54.792969 12.933594 53.675781 13.296875 52.570312 C 13.65625 51.460938 14.050781 50.367188 14.472656 49.28125 C 14.898438 48.195312 15.347656 47.121094 15.832031 46.0625 C 16.3125 45 16.824219 43.957031 17.363281 42.921875 C 17.902344 41.890625 18.46875 40.875 19.066406 39.871094 C 19.660156 38.871094 20.285156 37.886719 20.933594 36.921875 C 21.582031 35.953125 22.257812 35.003906 22.960938 34.074219 C 23.660156 33.144531 24.386719 32.234375 25.140625 31.347656 C 25.890625 30.457031 26.667969 29.585938 27.464844 28.742188 C 28.265625 27.894531 29.085938 27.070312 29.929688 26.265625 C 30.777344 25.464844 31.640625 24.6875 32.53125 23.929688 C 33.417969 23.175781 34.324219 22.449219 35.253906 21.742188 C 36.179688 21.039062 37.125 20.359375 38.089844 19.707031 C 39.054688 19.054688 40.039062 18.429688 41.039062 17.832031 C 42.035156 17.230469 43.050781 16.660156 44.082031 16.117188 C 45.113281 15.574219 46.15625 15.0625 47.214844 14.578125 C 48.273438 14.089844 49.347656 13.636719 50.429688 13.207031 C 51.515625 12.78125 52.609375 12.386719 53.714844 12.019531 C 54.820312 11.652344 55.9375 11.316406 57.058594 11.011719 C 58.183594 10.707031 59.316406 10.433594 60.453125 10.191406 C 61.59375 9.949219 62.738281 9.738281 63.890625 9.558594 C 65.039062 9.378906 66.195312 9.230469 67.355469 9.113281 C 68.515625 8.996094 69.675781 8.910156 70.839844 8.859375 C 72.003906 8.808594 73.167969 8.785156 74.332031 8.796875 C 75.496094 8.808594 76.660156 8.851562 77.820312 8.929688 C 78.984375 9.003906 80.144531 9.109375 81.300781 9.25 C 82.457031 9.390625 83.609375 9.558594 84.753906 9.761719 C 85.902344 9.964844 87.042969 10.199219 88.175781 10.464844 C 89.3125 10.730469 90.4375 11.027344 91.554688 11.351562 C 92.675781 11.679688 93.78125 12.039062 94.878906 12.425781 C 95.980469 12.8125 97.066406 13.230469 98.140625 13.679688 C 99.214844 14.125 100.277344 14.601562 101.328125 15.109375 C 102.375 15.617188 103.410156 16.148438 104.429688 16.714844 C 105.449219 17.277344 106.453125 17.867188 107.441406 18.484375 C 108.429688 19.101562 109.398438 19.746094 110.351562 20.417969 C 111.300781 21.089844 112.234375 21.789062 113.148438 22.511719 C 114.0625 23.234375 114.953125 23.980469 115.828125 24.753906 C 116.699219 25.523438 117.550781 26.320312 118.378906 27.136719 C 119.207031 27.957031 120.011719 28.796875 120.796875 29.660156 C 121.578125 30.523438 122.335938 31.40625 123.070312 32.3125 C 123.804688 33.214844 124.511719 34.140625 125.195312 35.082031 C 125.878906 36.027344 126.535156 36.988281 127.164062 37.96875 C 127.796875 38.945312 128.398438 39.941406 128.972656 40.957031 C 129.550781 41.96875 130.097656 42.996094 130.617188 44.039062 C 131.136719 45.082031 131.625 46.136719 132.085938 47.207031 C 132.546875 48.277344 132.980469 49.359375 133.378906 50.453125 C 133.78125 51.546875 134.152344 52.648438 134.492188 53.761719 C 134.835938 54.878906 135.144531 56 135.421875 57.128906 C 135.703125 58.261719 135.949219 59.398438 136.167969 60.542969 C 136.382812 61.6875 136.570312 62.835938 136.722656 63.992188 C 136.875 65.148438 136.996094 66.304688 137.085938 67.464844 C 137.175781 68.628906 137.234375 69.789062 137.261719 70.953125 C 137.285156 72.121094 137.28125 73.285156 137.242188 74.449219 C 137.203125 75.613281 137.132812 76.773438 137.03125 77.933594 C 136.929688 79.09375 136.796875 80.25 136.628906 81.40625 C 136.464844 82.558594 136.269531 83.707031 136.039062 84.847656 C 135.808594 85.988281 135.550781 87.125 135.257812 88.253906 C 134.96875 89.378906 134.648438 90.5 134.292969 91.609375 C 133.941406 92.71875 133.558594 93.820312 133.144531 94.910156 C 132.734375 95.996094 132.289062 97.074219 131.816406 98.140625 C 131.34375 99.203125 130.84375 100.253906 130.3125 101.292969 C 129.785156 102.328125 129.226562 103.351562 128.640625 104.359375 C 128.054688 105.363281 127.441406 106.355469 126.800781 107.328125 C 126.160156 108.300781 125.492188 109.253906 124.800781 110.191406 C 124.105469 111.128906 123.386719 112.042969 122.644531 112.941406 C 121.902344 113.835938 121.132812 114.710938 120.34375 115.566406 C 119.550781 116.421875 118.734375 117.253906 117.898438 118.0625 C 117.0625 118.875 116.203125 119.660156 115.320312 120.421875 C 114.441406 121.183594 113.539062 121.921875 112.621094 122.636719 C 111.699219 123.347656 110.757812 124.035156 109.800781 124.695312 C 108.839844 125.359375 107.863281 125.992188 106.871094 126.601562 C 105.878906 127.207031 104.867188 127.789062 103.84375 128.339844 C 102.816406 128.890625 101.777344 129.417969 100.722656 129.910156 C 99.667969 130.40625 98.601562 130.871094 97.519531 131.308594 C 96.441406 131.746094 95.347656 132.152344 94.246094 132.527344 C 93.144531 132.902344 92.03125 133.25 90.910156 133.566406 C 89.789062 133.878906 88.660156 134.164062 87.523438 134.417969 C 86.386719 134.671875 85.242188 134.890625 84.09375 135.082031 C 82.945312 135.273438 81.792969 135.433594 80.632812 135.558594 C 79.476562 135.6875 78.316406 135.78125 77.152344 135.84375 C 75.988281 135.90625 74.824219 135.9375 73.660156 135.9375 Z M 77.007812 109.152344 C 77.007812 109.597656 76.925781 110.023438 76.753906 110.433594 C 76.585938 110.84375 76.34375 111.207031 76.027344 111.519531 C 75.714844 111.832031 75.351562 112.074219 74.941406 112.246094 C 74.53125 112.414062 74.105469 112.5 73.660156 112.5 C 73.214844 112.5 72.789062 112.414062 72.378906 112.246094 C 71.96875 112.074219 71.605469 111.832031 71.292969 111.519531 C 70.980469 111.207031 70.738281 110.84375 70.566406 110.433594 C 70.398438 110.023438 70.3125 109.597656 70.3125 109.152344 C 70.3125 108.707031 70.398438 108.28125 70.566406 107.871094 C 70.738281 107.460938 70.980469 107.097656 71.292969 106.785156 C 71.605469 106.46875 71.96875 106.226562 72.378906 106.058594 C 72.789062 105.886719 73.214844 105.804688 73.660156 105.804688 C 74.105469 105.804688 74.53125 105.886719 74.941406 106.058594 C 75.351562 106.226562 75.714844 106.46875 76.027344 106.785156 C 76.34375 107.097656 76.585938 107.460938 76.753906 107.871094 C 76.925781 108.28125 77.007812 108.707031 77.007812 109.152344 Z M 96.726562 54.707031 C 96.941406 55.910156 97.058594 57.121094 97.085938 58.34375 C 97.113281 59.5625 97.042969 60.777344 96.882812 61.988281 C 96.71875 63.199219 96.464844 64.390625 96.117188 65.558594 C 95.769531 66.730469 95.332031 67.867188 94.808594 68.972656 C 94.285156 70.074219 93.679688 71.128906 92.988281 72.136719 C 92.300781 73.148438 91.539062 74.097656 90.703125 74.988281 C 89.867188 75.878906 88.96875 76.699219 88.007812 77.449219 C 87.042969 78.199219 86.027344 78.871094 84.960938 79.464844 C 83.800781 80.039062 82.738281 80.761719 81.773438 81.621094 C 80.8125 82.484375 79.976562 83.460938 79.277344 84.550781 C 78.578125 85.636719 78.035156 86.800781 77.652344 88.035156 C 77.265625 89.269531 77.050781 90.535156 77.007812 91.828125 C 77.015625 92.289062 76.933594 92.734375 76.769531 93.160156 C 76.605469 93.589844 76.367188 93.972656 76.054688 94.3125 C 75.746094 94.652344 75.382812 94.917969 74.96875 95.117188 C 74.554688 95.320312 74.117188 95.433594 73.660156 95.46875 C 73.234375 95.5 72.816406 95.449219 72.410156 95.308594 C 72.003906 95.167969 71.640625 94.953125 71.324219 94.664062 C 71.007812 94.375 70.761719 94.035156 70.585938 93.640625 C 70.410156 93.25 70.320312 92.839844 70.3125 92.410156 L 70.3125 91.828125 C 70.332031 90.886719 70.414062 89.949219 70.558594 89.019531 C 70.703125 88.085938 70.910156 87.167969 71.179688 86.265625 C 71.449219 85.363281 71.777344 84.480469 72.167969 83.621094 C 72.554688 82.761719 73 81.933594 73.5 81.132812 C 74 80.335938 74.550781 79.574219 75.15625 78.851562 C 75.757812 78.125 76.40625 77.445312 77.101562 76.808594 C 77.796875 76.171875 78.535156 75.585938 79.308594 75.046875 C 80.082031 74.511719 80.890625 74.027344 81.730469 73.601562 C 82.589844 73.128906 83.402344 72.582031 84.167969 71.96875 C 84.929688 71.351562 85.636719 70.671875 86.28125 69.933594 C 86.925781 69.195312 87.5 68.402344 88.007812 67.5625 C 88.511719 66.722656 88.941406 65.84375 89.292969 64.925781 C 89.644531 64.011719 89.914062 63.070312 90.101562 62.109375 C 90.285156 61.144531 90.386719 60.171875 90.402344 59.191406 C 90.417969 58.210938 90.347656 57.234375 90.191406 56.265625 C 90.035156 55.296875 89.796875 54.347656 89.472656 53.421875 C 89.152344 52.496094 88.75 51.605469 88.269531 50.746094 C 87.789062 49.890625 87.238281 49.082031 86.617188 48.324219 C 85.996094 47.566406 85.3125 46.867188 84.566406 46.226562 C 83.824219 45.585938 83.027344 45.015625 82.183594 44.519531 C 81.339844 44.019531 80.457031 43.597656 79.539062 43.25 C 78.621094 42.90625 77.679688 42.644531 76.710938 42.46875 C 75.746094 42.289062 74.773438 42.195312 73.792969 42.1875 C 72.8125 42.179688 71.835938 42.257812 70.871094 42.421875 C 69.902344 42.585938 68.957031 42.832031 68.03125 43.160156 C 67.109375 43.492188 66.21875 43.898438 65.367188 44.386719 C 64.515625 44.871094 63.710938 45.429688 62.957031 46.058594 C 62.203125 46.683594 61.507812 47.371094 60.875 48.121094 C 60.242188 48.871094 59.679688 49.671875 59.183594 50.519531 C 58.691406 51.367188 58.277344 52.253906 57.941406 53.175781 C 57.601562 54.097656 57.347656 55.039062 57.175781 56.007812 C 57.003906 56.972656 56.917969 57.945312 56.917969 58.929688 C 56.917969 59.371094 56.835938 59.800781 56.664062 60.210938 C 56.496094 60.621094 56.253906 60.980469 55.9375 61.296875 C 55.625 61.609375 55.261719 61.851562 54.851562 62.023438 C 54.441406 62.191406 54.015625 62.277344 53.570312 62.277344 C 53.128906 62.277344 52.699219 62.191406 52.289062 62.023438 C 51.878906 61.851562 51.519531 61.609375 51.203125 61.296875 C 50.890625 60.980469 50.648438 60.621094 50.476562 60.210938 C 50.308594 59.800781 50.222656 59.371094 50.222656 58.929688 C 50.222656 58.203125 50.257812 57.484375 50.324219 56.761719 C 50.390625 56.042969 50.488281 55.324219 50.621094 54.613281 C 50.753906 53.902344 50.921875 53.199219 51.117188 52.503906 C 51.316406 51.808594 51.546875 51.121094 51.808594 50.449219 C 52.070312 49.773438 52.363281 49.113281 52.683594 48.464844 C 53.007812 47.816406 53.359375 47.183594 53.738281 46.570312 C 54.121094 45.953125 54.53125 45.359375 54.964844 44.78125 C 55.402344 44.203125 55.863281 43.648438 56.351562 43.113281 C 56.839844 42.578125 57.351562 42.070312 57.886719 41.582031 C 58.421875 41.09375 58.980469 40.632812 59.558594 40.199219 C 60.136719 39.761719 60.730469 39.355469 61.347656 38.972656 C 61.964844 38.59375 62.59375 38.242188 63.242188 37.921875 C 63.890625 37.601562 64.554688 37.308594 65.230469 37.046875 C 65.902344 36.789062 66.589844 36.558594 67.285156 36.363281 C 67.980469 36.164062 68.6875 36 69.398438 35.871094 C 70.109375 35.738281 70.824219 35.640625 71.546875 35.574219 C 72.265625 35.507812 72.988281 35.476562 73.710938 35.476562 C 74.4375 35.480469 75.15625 35.515625 75.878906 35.582031 C 76.597656 35.652344 77.316406 35.753906 78.027344 35.886719 C 78.738281 36.019531 79.441406 36.1875 80.136719 36.386719 C 80.832031 36.589844 81.515625 36.820312 82.191406 37.082031 C 82.863281 37.347656 83.523438 37.640625 84.171875 37.964844 C 84.816406 38.289062 85.449219 38.640625 86.0625 39.023438 C 86.675781 39.40625 87.273438 39.816406 87.847656 40.253906 C 88.425781 40.691406 88.980469 41.15625 89.511719 41.644531 C 90.046875 42.132812 90.554688 42.648438 91.039062 43.183594 C 91.527344 43.71875 91.984375 44.277344 92.421875 44.855469 C 92.855469 45.4375 93.261719 46.035156 93.640625 46.648438 C 94.019531 47.265625 94.367188 47.898438 94.6875 48.546875 C 95.007812 49.199219 95.296875 49.859375 95.554688 50.535156 C 95.816406 51.210938 96.042969 51.898438 96.238281 52.59375 C 96.433594 53.292969 96.59375 53.996094 96.726562 54.707031 Z M 96.726562 54.707031 " fill-opacity="1" fill-rule="nonzero"/></svg>