<svg xmlns="http://www.w3.org/2000/svg" xmlns:xlink="http://www.w3.org/1999/xlink" width="500" zoomAndPan="magnify" viewBox="0 0 375 374.999991" height="500" preserveAspectRatio="xMidYMid meet" version="1.0"><defs><clipPath id="bf45e7e067"><path d="M 9 30.9375 L 366 30.9375 L 366 344.4375 L 9 344.4375 Z M 9 30.9375 " clip-rule="nonzero"/></clipPath></defs><g clip-path="url(#bf45e7e067)"><path fill="#a14a21" d="M 336.84375 59.523438 C 318.402344 41.082031 293.871094 30.921875 267.792969 30.921875 C 241.714844 30.921875 217.1875 41.074219 198.75 59.523438 L 187.542969 70.714844 L 176.339844 59.515625 C 157.898438 41.074219 133.378906 30.914062 107.292969 30.914062 C 81.207031 30.914062 56.683594 41.066406 38.242188 59.515625 C 0.167969 97.589844 0.167969 159.535156 38.242188 197.613281 L 182.695312 342.0625 C 184.03125 343.402344 185.789062 344.074219 187.542969 344.074219 C 189.296875 344.074219 191.054688 343.402344 192.390625 342.0625 L 336.84375 197.613281 C 374.917969 159.542969 374.917969 97.589844 336.84375 59.523438 Z M 336.84375 59.523438 " fill-opacity="1" fill-rule="nonzero"/></g></svg>